<svg xmlns="http://www.w3.org/2000/svg" xmlns:xlink="http://www.w3.org/1999/xlink" fill="none" version="1.1" width="16" height="16" viewBox="0 0 16 16"><g><g><rect x="0" y="0" width="16" height="16" rx="0" fill="#FFFFFF" fill-opacity="0.009999999776482582"/></g><g><path d="M10.166663015441895,6.33333L10.166663015441895,2L10.666663015441895,2L10.666663015441895,2.5L5.3333330154418945,2.5L5.3333330154418945,2L5.8333330154418945,2L5.8333330154418945,6.33333Q5.8333330154418945,6.38258,5.823726015441895,6.43088Q5.8141180154418945,6.47918,5.795273015441895,6.52467Q5.776427015441895,6.57017,5.749068015441894,6.61112Q5.7217080154418944,6.65206,5.686886015441894,6.68689Q5.652064015441894,6.72171,5.611118015441894,6.74907Q5.570172015441894,6.77643,5.524675015441894,6.79527Q5.479178015441894,6.81412,5.430878115441894,6.82373Q5.382578715441895,6.83333,5.3333330154418945,6.83333Q5.284087315441894,6.83333,5.235787915441895,6.82373Q5.187488015441895,6.81412,5.141991015441895,6.79527Q5.096494015441895,6.77643,5.055548015441895,6.74907Q5.014602015441895,6.72171,4.979780015441895,6.68689Q4.944958015441895,6.65206,4.917598015441895,6.61112Q4.890239015441894,6.57017,4.871393015441894,6.52467Q4.8525480154418945,6.47918,4.8429400154418945,6.43088Q4.8333330154418945,6.38258,4.8333330154418945,6.33333L4.8333330154418945,2Q4.8333330154418945,1.9507543,4.8429400154418945,1.9024549Q4.8525480154418945,1.854155,4.871393015441894,1.8086579999999999Q4.890239015441894,1.763161,4.917598015441895,1.722215Q4.944958015441895,1.681269,4.979780015441895,1.646447Q5.014602015441895,1.611625,5.055548015441895,1.584265Q5.096494015441895,1.5569060000000001,5.141991015441895,1.53806Q5.187488015441895,1.519215,5.235787915441895,1.509607Q5.284087315441894,1.5,5.3333330154418945,1.5L10.666663015441895,1.5Q10.715913015441895,1.5,10.764213015441895,1.509607Q10.812513015441894,1.519215,10.858003015441895,1.53806Q10.903503015441895,1.5569060000000001,10.944453015441894,1.584265Q10.985393015441893,1.611625,11.020223015441895,1.646447Q11.055043015441894,1.681269,11.082403015441894,1.722215Q11.109763015441896,1.763161,11.128603015441895,1.8086579999999999Q11.147453015441894,1.854155,11.157063015441896,1.9024549Q11.166663015441895,1.9507543,11.166663015441895,2L11.166663015441895,6.33333Q11.166663015441895,6.38258,11.157063015441896,6.43088Q11.147453015441894,6.47918,11.128603015441895,6.52467Q11.109763015441896,6.57017,11.082403015441894,6.61112Q11.055043015441894,6.65206,11.020223015441895,6.68689Q10.985393015441893,6.72171,10.944453015441894,6.74907Q10.903503015441895,6.77643,10.858003015441895,6.79527Q10.812513015441894,6.81412,10.764213015441895,6.82373Q10.715913015441895,6.83333,10.666663015441895,6.83333Q10.617423015441894,6.83333,10.569123015441894,6.82373Q10.520823015441895,6.81412,10.475323015441894,6.79527Q10.429823015441894,6.77643,10.388883015441895,6.74907Q10.347933015441894,6.72171,10.313113015441894,6.68689Q10.278293015441895,6.65206,10.250933015441895,6.61112Q10.223573015441895,6.57017,10.204723015441894,6.52467Q10.185883015441895,6.47918,10.176273015441893,6.43088Q10.166663015441895,6.38258,10.166663015441895,6.33333ZM11.166663015441895,6.33333Q11.166663015441895,6.38258,11.157063015441896,6.43088Q11.147453015441894,6.47918,11.128603015441895,6.52467Q11.109763015441896,6.57017,11.082403015441894,6.61112Q11.055043015441894,6.65206,11.020223015441895,6.68689Q10.985393015441893,6.72171,10.944453015441894,6.74907Q10.903503015441895,6.77643,10.858003015441895,6.79527Q10.812513015441894,6.81412,10.764213015441895,6.82373Q10.715913015441895,6.83333,10.666663015441895,6.83333Q10.617423015441894,6.83333,10.569123015441894,6.82373Q10.520823015441895,6.81412,10.475323015441894,6.79527Q10.429823015441894,6.77643,10.388883015441895,6.74907Q10.347933015441894,6.72171,10.313113015441894,6.68689Q10.278293015441895,6.65206,10.250933015441895,6.61112Q10.223573015441895,6.57017,10.204723015441894,6.52467Q10.185883015441895,6.47918,10.176273015441893,6.43088Q10.166663015441895,6.38258,10.166663015441895,6.33333Q10.166663015441895,6.28409,10.176273015441893,6.23579Q10.185883015441895,6.18749,10.204723015441894,6.14199Q10.223573015441895,6.09649,10.250933015441895,6.05555Q10.278293015441895,6.0146,10.313113015441894,5.97978Q10.347933015441894,5.94496,10.388883015441895,5.9176Q10.429823015441894,5.89024,10.475323015441894,5.87139Q10.520823015441895,5.85255,10.569123015441894,5.8429400000000005Q10.617423015441894,5.83333,10.666663015441895,5.83333Q10.715913015441895,5.83333,10.764213015441895,5.8429400000000005Q10.812513015441894,5.85255,10.858003015441895,5.87139Q10.903503015441895,5.89024,10.944453015441894,5.9176Q10.985393015441893,5.94496,11.020223015441895,5.97978Q11.055043015441894,6.0146,11.082403015441894,6.05555Q11.109763015441896,6.09649,11.128603015441895,6.14199Q11.147453015441894,6.18749,11.157063015441896,6.23579Q11.166663015441895,6.28409,11.166663015441895,6.33333ZM5.8333330154418945,6.33333Q5.8333330154418945,6.38258,5.823726015441895,6.43088Q5.8141180154418945,6.47918,5.795273015441895,6.52467Q5.776427015441895,6.57017,5.749068015441894,6.61112Q5.7217080154418944,6.65206,5.686886015441894,6.68689Q5.652064015441894,6.72171,5.611118015441894,6.74907Q5.570172015441894,6.77643,5.524675015441894,6.79527Q5.479178015441894,6.81412,5.430878115441894,6.82373Q5.382578715441895,6.83333,5.3333330154418945,6.83333Q5.284087315441894,6.83333,5.235787915441895,6.82373Q5.187488015441895,6.81412,5.141991015441895,6.79527Q5.096494015441895,6.77643,5.055548015441895,6.74907Q5.014602015441895,6.72171,4.979780015441895,6.68689Q4.944958015441895,6.65206,4.917598015441895,6.61112Q4.890239015441894,6.57017,4.871393015441894,6.52467Q4.8525480154418945,6.47918,4.8429400154418945,6.43088Q4.8333330154418945,6.38258,4.8333330154418945,6.33333Q4.8333330154418945,6.28409,4.8429400154418945,6.23579Q4.8525480154418945,6.18749,4.871393015441894,6.14199Q4.890239015441894,6.09649,4.917598015441895,6.05555Q4.944958015441895,6.0146,4.979780015441895,5.97978Q5.014602015441895,5.94496,5.055548015441895,5.9176Q5.096494015441895,5.89024,5.141991015441895,5.87139Q5.187488015441895,5.85255,5.235787915441895,5.8429400000000005Q5.284087315441894,5.83333,5.3333330154418945,5.83333Q5.382578715441895,5.83333,5.430878115441894,5.8429400000000005Q5.479178015441894,5.85255,5.524675015441894,5.87139Q5.570172015441894,5.89024,5.611118015441894,5.9176Q5.652064015441894,5.94496,5.686886015441894,5.97978Q5.7217080154418944,6.0146,5.749068015441894,6.05555Q5.776427015441895,6.09649,5.795273015441895,6.14199Q5.8141180154418945,6.18749,5.823726015441895,6.23579Q5.8333330154418945,6.28409,5.8333330154418945,6.33333Z" fill="#3662EC" fill-opacity="1"/></g><g><path d="M2.168056,14.03694L1.50138894,5.036936C1.4809898,4.761548,1.687699,4.5217652,1.963087,4.50136611C1.975378,4.500455678,1.987698,4.5,2.000023,4.5L14,4.5C14.2762,4.5,14.5,4.723858,14.5,5C14.5,5.012325,14.4996,5.024645,14.4987,5.036936L13.832,14.03694C13.8126,14.29803,13.5952,14.5,13.3334,14.5L2.66669,14.5C2.404876,14.5,2.187396,14.29803,2.168056,14.03694ZM10.66671,11.83334L5.33337,11.83334C5.057230000000001,11.83334,4.83337,11.609490000000001,4.83337,11.33334C4.83337,11.0572,5.057230000000001,10.83334,5.33337,10.83334L10.66671,10.83334C10.94285,10.83334,11.16671,11.0572,11.16671,11.33334C11.16671,11.609490000000001,10.94285,11.83334,10.66671,11.83334Z" fill-rule="evenodd" fill="#3662EC" fill-opacity="1"/></g></g></svg>