<svg xmlns="http://www.w3.org/2000/svg" xmlns:xlink="http://www.w3.org/1999/xlink" fill="none" version="1.1" width="13.9833984375" height="12.66668701171875" viewBox="0 0 13.9833984375 12.66668701171875"><g><g><path d="M2.158291816711426,0.5L2.158291816711426,3.83333C2.158291816711426,4.10948,2.3821498167114257,4.33333,2.658291816711426,4.33333L5.324961816711426,4.33333C5.6011018167114255,4.33333,5.824961816711426,4.10948,5.824961816711426,3.83333L5.824961816711426,0.5C5.824961816711426,0.223858,5.6011018167114255,0,5.324961816711426,0L2.658291816711426,0C2.3821498167114257,0,2.158291816711426,0.223858,2.158291816711426,0.5ZM3.158291816711426,3.33333L3.158291816711426,1L4.824961816711426,1L4.824961816711426,3.33333L3.158291816711426,3.33333Z" fill-rule="evenodd" fill="#FFFFFF" fill-opacity="1"/></g><g><path d="M7.604729863586426,1.5308671877670288L11.366219863586426,4.2391271877670285C11.451319863586427,4.300397187767029,11.553519863586427,4.333367187767029,11.658369863586426,4.333367187767029C11.658369863586426,4.333367187767029,11.687309863586425,4.332527187767029,11.687309863586425,4.332527187767029C11.837689863586426,4.323807187767029,11.976129863586426,4.247757187767029,12.064139863586426,4.125517187767029C12.125409863586427,4.040417187767028,12.158369863586426,3.938217187767029,12.158369863586426,3.833367187767029L12.158369863586426,3.831467187767029C12.158269863586426,3.8051871877670287,12.156099863586427,3.7789571877670287,12.151879863586426,3.753027187767029C12.130569863586427,3.622137187767029,12.058139863586426,3.5050771877670286,11.950529863586425,3.4275971877670286L7.783859863586425,0.4276063877670288C7.559989863586425,0.2664225877670288,7.247879863586426,0.3169973877670288,7.086369863586426,0.5406281877670288L4.919832463586426,3.540437187767029C4.858162063586426,3.6258271877670287,4.825039863586426,3.7282571877670287,4.825039863586426,3.833367187767029L4.8250412344964255,3.8345271877670286C4.825102508086426,3.860807187767029,4.827235103586426,3.887037187767029,4.831419233586426,3.9129771877670287C4.852534563586426,4.043897187767029,4.924791363586426,4.161057187767028,5.032293863586426,4.238707187767028C5.117500863586426,4.300237187767029,5.219933863586426,4.333367187767029,5.325039863586426,4.333367187767029C5.325039863586426,4.333367187767029,5.353249863586425,4.332567187767029,5.353249863586425,4.332567187767029C5.503640863586426,4.324067187767029,5.642185863586426,4.248227187767029,5.7303788635864255,4.126107187767029L7.604729863586426,1.5308671877670288Z" fill-rule="evenodd" fill="#FFFFFF" fill-opacity="1"/></g><g><path d="M1.71615,11.7722940234375L0.0361514,4.7722940234374995Q-0.0959058,4.2220850234375,0.254428,3.7777270234375Q0.604758,3.3333740234375,1.1706,3.3333740234375L12.8127,3.3333740234375Q13.3786,3.3333740234375,13.7289,3.7777280234375Q14.0792,4.2220750234375,13.9472,4.7722840234375L12.2672,11.7722940234375Q12.1728,12.1657240234375,11.8551,12.4162140234375Q11.5373,12.6667040234375,11.1327,12.6667040234375L2.85061,12.6667040234375Q2.44601,12.6667040234375,2.12829,12.4162140234375Q1.81057,12.1657240234375,1.71615,11.7722940234375ZM6.65837,7.0000040234375L3.9917,7.0000040234375C3.71556,7.0000040234375,3.4917,6.776144023437499,3.4917,6.5000040234375C3.4917,6.2238540234375,3.71556,6.0000040234375,3.9917,6.0000040234375L6.65837,6.0000040234375C6.93451,6.0000040234375,7.15837,6.2238540234375,7.15837,6.5000040234375C7.15837,6.776144023437499,6.93451,7.0000040234375,6.65837,7.0000040234375Z" fill-rule="evenodd" fill="#FFFFFF" fill-opacity="1"/></g></g></svg>