<svg xmlns="http://www.w3.org/2000/svg" width="16" height="16" viewBox="0 0 16 16">
  <g id="组_22930" data-name="组 22930" transform="translate(-1139.63 -603)">
    <rect id="box" width="16" height="16" rx="2" transform="translate(1139.63 603)" fill="#1455c3"/>
    <rect id="Rectangle" width="10" height="10" transform="translate(1142.63 606)" opacity="0"/>
    <path id="Path" d="M9.464,1.406h-.78a.355.355,0,0,0-.28.136L3.8,7.372,1.6,4.576a.357.357,0,0,0-.28-.136H.536a.089.089,0,0,0-.07.144L3.522,8.456a.358.358,0,0,0,.561,0L9.535,1.549A.088.088,0,0,0,9.464,1.406Z" transform="translate(1142.63 606)" fill="#fff" stroke="#fff" stroke-width="0.833" fill-rule="evenodd"/>
  </g>
</svg>
