<svg xmlns="http://www.w3.org/2000/svg" xmlns:xlink="http://www.w3.org/1999/xlink" fill="none" version="1.1" width="16" height="16.00335693359375" viewBox="0 0 16 16.00335693359375"><g><g><path d="M8.00135,16.0034C3.56722,15.9928,0.0743608,12.4608,0.00120244,8.14871C-0.0770505,3.5324,3.67522,0.0048959,7.96895,0.00000528614C12.454,-0.00508931,16.0245,3.65283,15.9999,8.02542C15.975,12.4382,12.4224,15.9979,8.00135,16.0034ZM4.89691,11.6375C4.90445,11.8433,5.00145,11.9921,5.15918,12.0968C5.34197,12.2183,5.53577,12.216,5.7259,12.1013C6.42366,11.6805,7.12365,11.2631,7.81774,10.8364C7.93003,10.7675,8.01276,10.7622,8.12464,10.8291C8.82382,11.2477,9.52831,11.6571,10.2265,12.0771C10.4459,12.2091,10.6528,12.2256,10.859,12.0697C11.0622,11.9161,11.118,11.7113,11.0595,11.4645C10.8981,10.7828,10.7685,10.0924,10.5731,9.42093C10.472,9.07369,10.5385,8.86827,10.8128,8.64391C11.3915,8.17031,11.9472,7.66758,12.496,7.15893C12.5934,7.06866,12.6584,6.89218,12.657,6.75626C12.6535,6.44915,12.4754,6.29041,12.1384,6.25943C11.3668,6.18831,10.5951,6.11474,9.82196,6.06991C9.59291,6.05667,9.49366,5.96272,9.4148,5.77076C9.11524,5.04182,8.80671,4.31676,8.49757,3.5919C8.46741,3.52119,8.42156,3.44782,8.36307,3.40014C8.05597,3.14928,7.62945,3.26197,7.47457,3.63245C7.17827,4.34101,6.88156,5.04957,6.59321,5.76118C6.5121,5.9615,6.40674,6.0852,6.16689,6.06624C6.00875,6.05381,5.84715,6.08234,5.68739,6.0964C5.0687,6.15061,4.44981,6.20421,3.83153,6.26269C3.60879,6.28389,3.43231,6.38435,3.36894,6.61401C3.30841,6.83369,3.32859,7.03524,3.52728,7.19174C3.63712,7.27815,3.73065,7.38493,3.8354,7.47847C4.35831,7.94554,4.8859,8.40792,5.40209,8.88254C5.45935,8.93532,5.4891,9.06126,5.47341,9.14216C5.41533,9.44294,5.32975,9.73823,5.26066,10.0372C5.13656,10.5703,5.01755,11.1042,4.89691,11.6375Z" fill="#3662EC" fill-opacity="1"/></g></g></svg>