<svg xmlns="http://www.w3.org/2000/svg" width="14" height="14" viewBox="0 0 14 14">
  <g id="组_24444" data-name="组 24444" transform="translate(-946.595 -2047)">
    <rect id="Rectangle-49" width="14" height="14" transform="translate(946.595 2047)" fill="rgba(0,0,0,0)"/>
    <path id="路径_27360" data-name="路径 27360" d="M58.091,76.614a.474.474,0,0,1,.474.474v3.543a1.678,1.678,0,0,1-1.676,1.676H48.222a1.678,1.678,0,0,1-1.676-1.676V71.964a1.678,1.678,0,0,1,1.676-1.676H53.03a.474.474,0,1,1,0,.949H48.222a.728.728,0,0,0-.728.728v8.667a.728.728,0,0,0,.728.728h8.667a.728.728,0,0,0,.728-.728V77.089a.474.474,0,0,1,.474-.474Zm1.1-4a.469.469,0,0,1,0,.716L56.528,76a.474.474,0,0,1-.671-.671l1.831-1.832c-4.121.273-5.766,2.061-5.766,6.126a.474.474,0,0,1-.949,0c0-4.639,2.047-6.8,6.791-7.085l-1.907-1.906a.474.474,0,1,1,.671-.671Z" transform="translate(900.644 1977.937)" fill="#1062bd"/>
  </g>
</svg>
