<svg xmlns="http://www.w3.org/2000/svg" xmlns:xlink="http://www.w3.org/1999/xlink" fill="none" version="1.1" width="14.3333740234375" height="13" viewBox="0 0 14.3333740234375 13"><g><g><path d="M0,3.16667L0,11.83333Q5.96046e-8,12.3166,0.341711,12.6583Q0.683416,13,1.16667,13L13.1667,13Q13.6499,13,13.9916,12.6583Q14.3333,12.3166,14.3333,11.83333L14.3333,3.16667Q14.3333,2.68341,13.9916,2.341705Q13.6499,2,13.1667,2L1.16667,2.0000000596046Q0.683417,2.000000089407,0.341711,2.341703Q0,2.68341,0,3.16667ZM1.16667,12Q1,12,1,11.83333L1,3.16667Q1,3,1.16667,3L13.1667,3Q13.3333,3,13.3333,3.16667L13.3333,11.83333Q13.3333,12,13.1667,12L1.16667,12Z" fill-rule="evenodd" fill="#FFFFFF" fill-opacity="1"/></g><g><path d="M1.1667480000000001,2.5C0.798584,2.5,0.5,2.798462,0.5,3.166687L0.5,11.83331C0.5,12.20154,0.798584,12.5,1.1667480000000001,12.5L13.1667,12.5C13.5349,12.5,13.8333,12.20154,13.8333,11.83331L13.8333,3.166687C13.8333,2.798462,13.5349,2.5,13.1667,2.5L1.1667480000000001,2.5ZM9.18689,5.18687C9.28065,5.0931,9.33333,4.965920000000001,9.33333,4.83331C9.33333,4.700699999999999,9.28065,4.57353,9.18689,4.47976C9.09312,4.38599,8.96594,4.33331,8.83333,4.33331C8.70073,4.33331,8.57355,4.38599,8.47978,4.47976L7.16667,5.792870000000001L5.85355,4.47976C5.75979,4.38599,5.63261,4.33331,5.5,4.33331C5.36739,4.33331,5.24021,4.38599,5.14645,4.47976C5.05268,4.57353,5,4.700699999999999,5,4.83331C5,4.965920000000001,5.05268,5.0931,5.14645,5.18687L6.29289,6.33331L5.16675,6.33331C4.89061,6.33331,4.66675,6.55717,4.66675,6.83331C4.66675,7.10946,4.89061,7.33331,5.16675,7.33331L6.66675,7.33331L6.66675,8.33331L5.16675,8.33331C4.89061,8.33331,4.66675,8.55717,4.66675,8.83331C4.66675,9.10946,4.89061,9.33331,5.16675,9.33331L6.66675,9.33331L6.66675,10.16665C6.66675,10.442789999999999,6.89061,10.66665,7.16675,10.66665C7.44289,10.66665,7.66675,10.442789999999999,7.66675,10.16665L7.66675,9.33331L9.16675,9.33331C9.44289,9.33331,9.66675,9.10946,9.66675,8.83331C9.66675,8.55717,9.44289,8.33331,9.16675,8.33331L7.66675,8.33331L7.66675,7.33331L9.16675,7.33331C9.44289,7.33331,9.66675,7.10946,9.66675,6.83331C9.66675,6.55717,9.44289,6.33331,9.16675,6.33331L8.04044,6.33331L9.18689,5.18687Z" fill-rule="evenodd" fill="#FFFFFF" fill-opacity="1"/></g><g><path d="M1.83349609375,1L12.50019609375,1C12.77629609375,1,13.00019609375,0.776142,13.00019609375,0.5C13.00019609375,0.223858,12.77629609375,0,12.50019609375,0L1.83349609375,0C1.55735409375,0,1.33349609375,0.223858,1.33349609375,0.5C1.33349609375,0.776142,1.55735409375,1,1.83349609375,1Z" fill-rule="evenodd" fill="#FFFFFF" fill-opacity="1"/></g></g></svg>