<svg xmlns="http://www.w3.org/2000/svg" xmlns:xlink="http://www.w3.org/1999/xlink" fill="none" version="1.1" width="16" height="16" viewBox="0 0 16 16"><g><g><rect x="0" y="0" width="16" height="16" rx="0" fill="#FFFFFF" fill-opacity="0.009999999776482582"/></g><g><path d="M8.000078046875,6.66667C9.288748046875,6.66667,10.333418046875,5.622,10.333418046875,4.33333C10.333418046875,3.04467,9.288748046875,2,8.000078046875,2C6.711418046875,2,5.666748046875,3.04467,5.666748046875,4.33333C5.666748046875,5.622,6.711418046875,6.66667,8.000078046875,6.66667Z" fill="#FFFFFF" fill-opacity="1"/><path d="M6.166748046875,4.33333Q6.166748046875,5.0927299999999995,6.703718046875,5.6297Q7.240688046875,6.16667,8.000078046875,6.16667Q8.759478046875,6.16667,9.296448046875,5.6297Q9.833418046875,5.0927299999999995,9.833418046875,4.33333Q9.833418046875,3.57394,9.296448046875,3.03697Q8.759478046875,2.5,8.000078046875,2.5Q7.240688046875,2.5,6.703718046875,3.03697Q6.166748046875,3.57394,6.166748046875,4.33333ZM5.166748046875,4.33333Q5.166748046875,3.1597299999999997,5.996611046875,2.329865Q6.826478046875,1.5,8.000078046875,1.5Q9.173688046875,1.5,10.003548046875,2.329865Q10.833418046875,3.1597299999999997,10.833418046875,4.33333Q10.833418046875,5.50694,10.003548046875,6.3368Q9.173688046875,7.16667,8.000078046875,7.16667Q6.826478046875,7.16667,5.996611046875,6.3368Q5.166748046875,5.50694,5.166748046875,4.33333Z" fill="#FFFFFF" fill-opacity="1"/></g><g><path d="M3.872744,6.761582890625Q3.244831,6.3832228906249995,2.878312,5.748542890625Q2.5,5.0934328906249995,2.5,4.333322890625Q2.5,2.854873890625,3.713952,2.008119890625Q3.754343,1.979945890625,3.799454,1.960193890625Q3.844564,1.940441890625,3.892662,1.929869890625Q3.94076,1.919298890625,3.989995,1.918312890625Q4.03923,1.917327890625,4.0877099999999995,1.925966890625Q4.1362000000000005,1.9346058906249999,4.18206,1.952536890625Q4.22793,1.970468890625,4.26941,1.9970028906250001Q4.3109,2.023537890625,4.3464100000000006,2.057655890625Q4.38192,2.091774890625,4.41009,2.132164890625Q4.43827,2.172555890625,4.45802,2.217666890625Q4.47777,2.2627778906250002,4.48834,2.310874890625Q4.49891,2.358972690625,4.4999,2.408208590625Q4.50089,2.457444390625,4.49225,2.505926390625Q4.4836100000000005,2.554408890625,4.46568,2.600273890625Q4.44774,2.646138890625,4.42121,2.687623890625Q4.39467,2.7291098906249998,4.3605599999999995,2.764621890625Q4.32644,2.800132890625,4.2860499999999995,2.828306890625Q3.5,3.376589890625,3.5,4.333322890625Q3.5,5.369462890625,4.38886,5.9050628906250004Q4.43104,5.9304728906249995,4.4674499999999995,5.963632890625Q4.5038599999999995,5.9967928906250005,4.5331,6.036412890625Q4.56234,6.076032890625,4.58329,6.120602890624999Q4.60425,6.165172890625,4.6161,6.2129628906250005Q4.62795,6.260762890625,4.63025,6.309952890625Q4.63255,6.359142890625,4.62521,6.407842890625Q4.61787,6.456542890625,4.60118,6.502862890625Q4.58448,6.549192890625,4.55906,6.591372890625Q4.53364,6.633552890625,4.50049,6.669962890625Q4.4673300000000005,6.706372890625,4.42771,6.735622890625Q4.38808,6.764862890625,4.34352,6.785812890625Q4.29895,6.806762890625,4.25115,6.818612890625Q4.20335,6.830472890625,4.15416,6.832772890625Q4.10497,6.835072890625,4.05628,6.827732890625Q4.00758,6.820392890625,3.961252,6.803692890625Q3.914924,6.786992890625,3.872744,6.761582890625ZM4.6308,6.333322890625Q4.6308,6.382562890625,4.62119,6.430862890625Q4.61159,6.479162890625,4.59274,6.524662890625Q4.5738900000000005,6.570162890625,4.54653,6.611102890625Q4.51918,6.652052890625,4.48435,6.686872890625Q4.44953,6.721692890625,4.40859,6.749052890625Q4.36764,6.776412890625,4.32214,6.795262890625Q4.27664,6.814102890625,4.22835,6.823712890625Q4.18005,6.833322890625,4.1308,6.833322890625Q4.08155,6.833322890625,4.03325,6.823712890625Q3.9849550000000002,6.814102890625,3.939458,6.795262890625Q3.893961,6.776412890625,3.853015,6.749052890625Q3.812069,6.721692890625,3.777247,6.686872890625Q3.742425,6.652052890625,3.715065,6.611102890625Q3.687706,6.570162890625,3.66886,6.524662890625Q3.650015,6.479162890625,3.6404069999999997,6.430862890625Q3.6308,6.382562890625,3.6308,6.333322890625Q3.6308,6.284072890625,3.6404069999999997,6.235772890625Q3.650015,6.187472890625,3.66886,6.141972890625Q3.687706,6.0964828906249995,3.715065,6.055532890625Q3.742425,6.014582890625,3.777247,5.979762890625Q3.812069,5.944942890625001,3.853015,5.917582890625Q3.893961,5.890222890625,3.939458,5.871382890625Q3.9849550000000002,5.852532890625,4.03325,5.842922890625Q4.08155,5.833322890625,4.1308,5.833322890625Q4.18005,5.833322890625,4.22835,5.842922890625Q4.27664,5.852532890625,4.32214,5.871382890625Q4.36764,5.890222890625,4.40859,5.917582890625Q4.44953,5.944942890625001,4.48435,5.979762890625Q4.51918,6.014582890625,4.54653,6.055532890625Q4.5738900000000005,6.0964828906249995,4.59274,6.141972890625Q4.61159,6.187472890625,4.62119,6.235772890625Q4.6308,6.284072890625,4.6308,6.333322890625ZM4.5,2.418212890625Q4.5,2.467458590625,4.49039,2.515757990625Q4.48079,2.564057890625,4.46194,2.609554890625Q4.44309,2.655051890625,4.41573,2.695997890625Q4.38838,2.736943890625,4.35355,2.771765890625Q4.31873,2.806587890625,4.2777899999999995,2.833947890625Q4.23684,2.861306890625,4.19134,2.8801528906250002Q4.14584,2.898997890625,4.09755,2.908605890625Q4.04925,2.918212890625,4,2.918212890625Q3.950754,2.918212890625,3.902455,2.908605890625Q3.854155,2.898997890625,3.808658,2.8801528906250002Q3.763161,2.861306890625,3.7222150000000003,2.833947890625Q3.681269,2.806587890625,3.646447,2.771765890625Q3.611625,2.736943890625,3.5842650000000003,2.695997890625Q3.556906,2.655051890625,3.5380599999999998,2.609554890625Q3.519215,2.564057890625,3.509607,2.515757990625Q3.5,2.467458590625,3.5,2.418212890625Q3.5,2.368967190625,3.509607,2.320667790625Q3.519215,2.272367890625,3.5380599999999998,2.226870890625Q3.556906,2.181373890625,3.5842650000000003,2.140427890625Q3.611625,2.099481890625,3.646447,2.064659890625Q3.681269,2.029837890625,3.7222150000000003,2.002477890625Q3.763161,1.9751188906250001,3.808658,1.956272890625Q3.854155,1.937427890625,3.902455,1.927819890625Q3.950754,1.918212890625,4,1.918212890625Q4.04925,1.918212890625,4.09755,1.927819890625Q4.14584,1.937427890625,4.19134,1.956272890625Q4.23684,1.9751188906250001,4.2777899999999995,2.002477890625Q4.31873,2.029837890625,4.35355,2.064659890625Q4.38838,2.099481890625,4.41573,2.140427890625Q4.44309,2.181373890625,4.46194,2.226870890625Q4.48079,2.272367890625,4.49039,2.320667790625Q4.5,2.368967190625,4.5,2.418212890625Z" fill="#FFFFFF" fill-opacity="1"/></g><g><path d="M11.71396,5.838322890625Q12.5,5.290062890625,12.5,4.333322890625Q12.5,3.376589890625,11.713952,2.828306890625Q11.673561,2.800132890625,11.639443,2.764620890625Q11.605325,2.7291098906249998,11.57879,2.687623890625Q11.552256,2.646138890625,11.534324,2.600273890625Q11.516393,2.554407890625,11.507754,2.505926290625Q11.499115,2.457444290625,11.5001,2.408208390625Q11.501085,2.358972590625,11.511657,2.310874890625Q11.522229,2.2627778906250002,11.541981,2.217666890625Q11.561733,2.172555890625,11.589907,2.132164890625Q11.61808,2.091773890625,11.653592,2.057655890625Q11.689103,2.023537890625,11.730589,1.9970028906250001Q11.772074,1.970468890625,11.81794,1.952536890625Q11.863805,1.9346058906249999,11.9122866,1.925966890625Q11.9607686,1.917327890625,12.0100045,1.918312890625Q12.0592403,1.919298890625,12.107338,1.929869890625Q12.155435,1.940441890625,12.200546,1.960193890625Q12.245657,1.979945890625,12.286048,2.008119890625Q13.5,2.854873890625,13.5,4.333322890625Q13.5,5.811792890625,12.28604,6.658522890625Q12.245649,6.686692890625,12.200538,6.706442890625Q12.155427,6.726192890625,12.107329,6.736762890625Q12.0592311,6.747332890625,12.00999523,6.748322890625Q11.9607594,6.749302890625,11.9122775,6.740662890625Q11.863796,6.732022890625,11.817931,6.714092890625Q11.772066,6.696162890625,11.730581,6.669622890625Q11.689096,6.643092890625,11.653585,6.608972890625Q11.618074,6.574852890625,11.589901,6.534462890625Q11.561729,6.494072890625,11.541978,6.448952890625Q11.522226,6.4038428906250005,11.511655,6.355752890625Q11.501084,6.3076528906250005,11.5001,6.258412890624999Q11.499116,6.209182890625,11.507755,6.1606928906250005Q11.516395,6.112212890625,11.534328,6.066352890625Q11.55226,6.020482890625,11.578795,5.979002890625Q11.605331,5.937512890624999,11.63945,5.902002890625Q11.673569,5.8664928906250005,11.71396,5.838322890625ZM12.5,6.248422890625Q12.5,6.297662890625,12.490393,6.345962890625Q12.480785000000001,6.394262890625,12.46194,6.439762890625Q12.443094,6.485262890625,12.415735,6.526202890625Q12.388375,6.567152890625,12.353553,6.601972890625Q12.318731,6.636792890625,12.277785,6.664152890625Q12.236839,6.691512890625,12.191342,6.710362890625Q12.145845,6.729202890625,12.0975451,6.738812890625Q12.0492457,6.748422890625,12,6.748422890625Q11.9507543,6.748422890625,11.9024549,6.738812890625Q11.854155,6.729202890625,11.808658,6.710362890625Q11.763161,6.691512890625,11.722215,6.664152890625Q11.681269,6.636792890625,11.646447,6.601972890625Q11.611625,6.567152890625,11.584265,6.526202890625Q11.556906,6.485252890625,11.53806,6.439762890625Q11.519214999999999,6.394262890625,11.509607,6.345962890625Q11.5,6.297662890625,11.5,6.248422890625Q11.5,6.199172890625,11.509607,6.150872890625Q11.519214999999999,6.102572890625,11.53806,6.057072890625Q11.556906,6.011582890625,11.584265,5.970632890625Q11.611625,5.929692890625001,11.646447,5.894862890624999Q11.681269,5.8600428906249995,11.722215,5.832682890625Q11.763161,5.805322890625,11.808658,5.786482890625Q11.854155,5.767632890625,11.9024549,5.758022890625Q11.9507543,5.748422890625,12,5.748422890625Q12.0492457,5.748422890625,12.0975451,5.758022890625Q12.145845,5.767632890625,12.191342,5.786482890625Q12.236839,5.805322890625,12.277785,5.832682890625Q12.318731,5.8600428906249995,12.353553,5.894862890624999Q12.388375,5.929692890625001,12.415735,5.970632890625Q12.443094,6.011582890625,12.46194,6.057072890625Q12.480785000000001,6.102572890625,12.490393,6.150872890625Q12.5,6.199172890625,12.5,6.248422890625ZM12.5,2.418212890625Q12.5,2.467458590625,12.490393,2.515757990625Q12.480785000000001,2.564057890625,12.46194,2.609554890625Q12.443094,2.655051890625,12.415735,2.695997890625Q12.388375,2.736943890625,12.353553,2.771765890625Q12.318731,2.806587890625,12.277785,2.833947890625Q12.236839,2.861306890625,12.191342,2.8801528906250002Q12.145845,2.898997890625,12.0975451,2.908605890625Q12.0492457,2.918212890625,12,2.918212890625Q11.9507543,2.918212890625,11.9024549,2.908605890625Q11.854155,2.898997890625,11.808658,2.8801528906250002Q11.763161,2.861306890625,11.722215,2.833947890625Q11.681269,2.806587890625,11.646447,2.771765890625Q11.611625,2.736943890625,11.584265,2.695997890625Q11.556906,2.655051890625,11.53806,2.609554890625Q11.519214999999999,2.564057890625,11.509607,2.515757990625Q11.5,2.467458590625,11.5,2.418212890625Q11.5,2.368967190625,11.509607,2.320667790625Q11.519214999999999,2.272367890625,11.53806,2.226870890625Q11.556906,2.181373890625,11.584265,2.140427890625Q11.611625,2.099481890625,11.646447,2.064659890625Q11.681269,2.029837890625,11.722215,2.002477890625Q11.763161,1.9751188906250001,11.808658,1.956272890625Q11.854155,1.937427890625,11.9024549,1.927819890625Q11.9507543,1.918212890625,12,1.918212890625Q12.0492457,1.918212890625,12.0975451,1.927819890625Q12.145845,1.937427890625,12.191342,1.956272890625Q12.236839,1.9751188906250001,12.277785,2.002477890625Q12.318731,2.029837890625,12.353553,2.064659890625Q12.388375,2.099481890625,12.415735,2.140427890625Q12.443094,2.181373890625,12.46194,2.226870890625Q12.480785000000001,2.272367890625,12.490393,2.320667790625Q12.5,2.368967190625,12.5,2.418212890625Z" fill="#FFFFFF" fill-opacity="1"/></g><g><path d="M4,13.333343505859375L4,14.000013505859375L12,14.000013505859375L12,13.333343505859375C12,12.090843505859375,12,11.469573505859374,11.797,10.979513505859375C11.52637,10.326110505859376,11.00723,9.806976505859375,10.35383,9.536343505859374C9.863769999999999,9.333343505859375,9.2425,9.333343505859375,8,9.333343505859375C6.7575,9.333343505859375,6.136229999999999,9.333343505859375,5.64617,9.536343505859374C4.992767,9.806976505859375,4.473633,10.326110505859376,4.203,10.979513505859375C4,11.469573505859374,4,12.090843505859375,4,13.333343505859375Z" fill="#FFFFFF" fill-opacity="1"/><path d="M4.664937,11.170853505859375Q4.5,11.569033505859375,4.5,13.333343505859375L4.5,14.000013505859375L4,14.000013505859375L4,13.500013505859375L12,13.500013505859375L12,14.000013505859375L11.5,14.000013505859375L11.5,13.333343505859375Q11.5,11.569033505859375,11.33506,11.170853505859375Q10.99164,10.341703505859375,10.1625,9.998286505859374Q9.76431,9.833343505859375,8,9.833343505859375L8,9.833343505859375Q6.23569,9.833343505859375,5.83751,9.998280505859375Q5.00836,10.341713505859374,4.664943,11.170843505859375L4.664937,11.170853505859375ZM3.741057,10.788173505859374Q4.242992,9.576336505859375,5.45482,9.074405505859374Q5.86737,8.903513505859374,6.506880000000001,8.859878505859374Q6.895770000000001,8.833343505859375,8,8.833343505859375L8,8.833343505859375Q9.104230000000001,8.833343505859375,9.493120000000001,8.859878505859374Q10.132629999999999,8.903513505859374,10.545169999999999,9.074400505859375Q11.757010000000001,9.576336505859375,12.25894,10.788163505859375Q12.42983,11.200713505859374,12.47346,11.840223505859376Q12.5,12.229113505859376,12.5,13.333343505859375L12.5,14.000013505859375Q12.5,14.049253505859376,12.49039,14.097553505859375Q12.48078,14.145853505859375,12.46194,14.191353505859375Q12.44309,14.236853505859376,12.41573,14.277793505859375Q12.38837,14.318743505859375,12.35355,14.353563505859375Q12.31873,14.388383505859375,12.27778,14.415743505859375Q12.23684,14.443103505859375,12.19134,14.461953505859375Q12.14584,14.480793505859374,12.09754,14.490403505859376Q12.04924,14.500013505859375,12,14.500013505859375L4,14.500013505859375Q3.9507543,14.500013505859375,3.9024549,14.490403505859376Q3.854155,14.480793505859374,3.808658,14.461953505859375Q3.763161,14.443103505859375,3.722215,14.415743505859375Q3.681269,14.388383505859375,3.646447,14.353563505859375Q3.611625,14.318743505859375,3.584265,14.277793505859375Q3.556906,14.236853505859376,3.5380599999999998,14.191353505859375Q3.519215,14.145853505859375,3.509607,14.097553505859375Q3.5,14.049253505859376,3.5,14.000013505859375L3.5,13.333343505859375Q3.5,12.229113505859376,3.526535,11.840223505859376Q3.570171,11.200713505859374,3.741063,10.788163505859375L3.741057,10.788173505859374Z" fill="#FFFFFF" fill-opacity="1"/></g><g><path d="M13.437691359375,9.17846040234375Q14.354463359375,9.64558880234375,14.821593359375,10.56236440234375Q15.066203359375,11.04247240234375,15.128733359375,11.80782240234375Q15.166723359375,12.272822402343749,15.166723359375,13.59999240234375L15.166723359375,13.99999240234375Q15.166723359375,14.04924240234375,15.157123359375,14.09754240234375Q15.147513359375,14.14584240234375,15.128663359375,14.19133240234375Q15.109823359375,14.236832402343751,15.082463359375,14.27778240234375Q15.055103359375,14.318722402343749,15.020283359375,14.35355240234375Q14.985453359375,14.38837240234375,14.944513359375,14.41573240234375Q14.903563359375,14.443092402343751,14.858063359375,14.46193240234375Q14.812573359375,14.480782402343749,14.764273359375,14.490392402343751Q14.715973359374999,14.49999240234375,14.666723359375,14.49999240234375Q14.617483359375,14.49999240234375,14.569183359375,14.490392402343751Q14.520883359375,14.480782402343749,14.475383359375,14.46193240234375Q14.429883359375,14.443092402343751,14.388943359375,14.41573240234375Q14.347993359375,14.38837240234375,14.313173359375,14.35355240234375Q14.278353359375,14.318722402343749,14.250993359375,14.27778240234375Q14.223633359375,14.236832402343751,14.204786359375,14.19133240234375Q14.185941359375,14.14584240234375,14.176333359375,14.09754240234375Q14.166726359375,14.04924240234375,14.166726359375,13.99999240234375L14.166726359375,13.59999240234375Q14.166726359375,11.47983240234375,13.930590359375,11.01636240234375Q13.610972359375,10.38908340234375,12.983695359375,10.06946440234375Q12.939817359375,10.04710640234375,12.901144359375,10.01661840234375Q12.862470359375,9.98613040234375,12.830488359375,9.94868440234375Q12.798506359375,9.91123740234375,12.774443359375,9.86827040234375Q12.750381359375,9.82530340234375,12.735164359375,9.77846740234375Q12.719946359375,9.73163240234375,12.714158359375,9.68272790234375Q12.708371359375,9.63382351234375,12.712235359375,9.58472960234375Q12.716099359375,9.53563580234375,12.729466359375,9.48823940234375Q12.742834359375,9.44084240234375,12.765191359375,9.39696440234375Q12.787549359375,9.35308640234375,12.818037359375,9.31441340234375Q12.848525359375,9.27573940234375,12.885971359375,9.24375740234375Q12.923418359375,9.21177540234375,12.966385359375,9.18771240234375Q13.009352359375,9.16365040234375,13.056188359375,9.14843340234375Q13.103023359375,9.13321540234375,13.151927859375,9.12742740234375Q13.200832249375,9.12164040234375,13.249926159375,9.12550440234375Q13.299019959375,9.12936840234375,13.346416359375,9.14273540234375Q13.393813359375,9.15610340234375,13.437691359375,9.17846040234375ZM13.710693359375,9.62396240234375Q13.710693359375,9.67320810234375,13.701086359375,9.72150750234375Q13.691478359375001,9.76980740234375,13.672633359375,9.81530440234375Q13.653787359375,9.86080140234375,13.626428359375,9.90174740234375Q13.599068359375,9.94269340234375,13.564246359375,9.97751540234375Q13.529424359375,10.01233740234375,13.488478359375,10.03969740234375Q13.447532359375,10.06705640234375,13.402035359375,10.08590240234375Q13.356538359375,10.104747402343751,13.308238459375,10.11435540234375Q13.259939059375,10.12396240234375,13.210693359375,10.12396240234375Q13.161447659375,10.12396240234375,13.113148259375,10.11435540234375Q13.064848359375,10.104747402343751,13.019351359375,10.08590240234375Q12.973854359375,10.06705640234375,12.932908359375,10.03969740234375Q12.891962359375,10.01233740234375,12.857140359375,9.97751540234375Q12.822318359375,9.94269340234375,12.794958359375,9.90174740234375Q12.767599359375,9.86080140234375,12.748753359375,9.81530440234375Q12.729908359374999,9.76980740234375,12.720300359375,9.72150750234375Q12.710693359375,9.67320810234375,12.710693359375,9.62396240234375Q12.710693359375,9.57471670234375,12.720300359375,9.52641730234375Q12.729908359374999,9.47811740234375,12.748753359375,9.43262040234375Q12.767599359375,9.38712340234375,12.794958359375,9.34617740234375Q12.822318359375,9.30523140234375,12.857140359375,9.27040940234375Q12.891962359375,9.23558740234375,12.932908359375,9.20822740234375Q12.973854359375,9.18086840234375,13.019351359375,9.16202240234375Q13.064848359375,9.143177402343749,13.113148259375,9.13356940234375Q13.161447659375,9.12396240234375,13.210693359375,9.12396240234375Q13.259939059375,9.12396240234375,13.308238459375,9.13356940234375Q13.356538359375,9.143177402343749,13.402035359375,9.16202240234375Q13.447532359375,9.18086840234375,13.488478359375,9.20822740234375Q13.529424359375,9.23558740234375,13.564246359375,9.27040940234375Q13.599068359375,9.30523140234375,13.626428359375,9.34617740234375Q13.653787359375,9.38712340234375,13.672633359375,9.43262040234375Q13.691478359375001,9.47811740234375,13.701086359375,9.52641730234375Q13.710693359375,9.57471670234375,13.710693359375,9.62396240234375ZM15.166723359375,13.99999240234375Q15.166723359375,14.04924240234375,15.157123359375,14.09754240234375Q15.147513359375,14.14584240234375,15.128663359375,14.19133240234375Q15.109823359375,14.236832402343751,15.082463359375,14.27778240234375Q15.055103359375,14.318722402343749,15.020283359375,14.35355240234375Q14.985453359375,14.38837240234375,14.944513359375,14.41573240234375Q14.903563359375,14.443092402343751,14.858063359375,14.46193240234375Q14.812573359375,14.480782402343749,14.764273359375,14.490392402343751Q14.715973359374999,14.49999240234375,14.666723359375,14.49999240234375Q14.617483359375,14.49999240234375,14.569183359375,14.490392402343751Q14.520883359375,14.480782402343749,14.475383359375,14.46193240234375Q14.429883359375,14.443092402343751,14.388943359375,14.41573240234375Q14.347993359375,14.38837240234375,14.313173359375,14.35355240234375Q14.278353359375,14.318722402343749,14.250993359375,14.27778240234375Q14.223633359375,14.236832402343751,14.204786359375,14.19133240234375Q14.185941359375,14.14584240234375,14.176333359375,14.09754240234375Q14.166726359375,14.04924240234375,14.166726359375,13.99999240234375Q14.166726359375,13.950752402343749,14.176333359375,13.90245240234375Q14.185941359375,13.85415240234375,14.204786359375,13.80865240234375Q14.223633359375,13.76315240234375,14.250993359375,13.72221240234375Q14.278353359375,13.68126240234375,14.313173359375,13.64644240234375Q14.347993359375,13.61162240234375,14.388943359375,13.58426240234375Q14.429883359375,13.55690240234375,14.475383359375,13.53805240234375Q14.520883359375,13.51921240234375,14.569183359375,13.50960240234375Q14.617483359375,13.49999240234375,14.666723359375,13.49999240234375Q14.715973359374999,13.49999240234375,14.764273359375,13.50960240234375Q14.812573359375,13.51921240234375,14.858063359375,13.53805240234375Q14.903563359375,13.55690240234375,14.944513359375,13.58426240234375Q14.985453359375,13.61162240234375,15.020283359375,13.64644240234375Q15.055103359375,13.68126240234375,15.082463359375,13.72221240234375Q15.109823359375,13.76315240234375,15.128663359375,13.80865240234375Q15.147513359375,13.85415240234375,15.157123359375,13.90245240234375Q15.166723359375,13.950752402343749,15.166723359375,13.99999240234375Z" fill="#FFFFFF" fill-opacity="1"/></g><g><path d="M3.016271953125,10.06946340234375Q2.389021953125,10.38907340234375,2.069405953125,11.01635240234375Q1.833251953125,11.47983240234375,1.833251953125,13.59999240234375L1.833251953125,13.99999240234375Q1.833251953125,14.04924240234375,1.823644953125,14.09754240234375Q1.814036953125,14.14584240234375,1.795191953125,14.19133240234375Q1.7763459531249999,14.236832402343751,1.748986953125,14.27778240234375Q1.721626953125,14.318722402343749,1.686804953125,14.35355240234375Q1.651982953125,14.38837240234375,1.611036953125,14.41573240234375Q1.570090953125,14.443092402343751,1.5245939531250001,14.46193240234375Q1.479096953125,14.480782402343749,1.430797053125,14.490392402343751Q1.382497653125,14.49999240234375,1.333251953125,14.49999240234375Q1.284006253125,14.49999240234375,1.235706853125,14.490392402343751Q1.187406953125,14.480782402343749,1.1419099531249999,14.46193240234375Q1.096412953125,14.443092402343751,1.055466953125,14.41573240234375Q1.014520953125,14.38837240234375,0.979698953125,14.35355240234375Q0.944876953125,14.318722402343749,0.917516953125,14.27778240234375Q0.890157953125,14.236832402343751,0.871311953125,14.19133240234375Q0.852466953125,14.14584240234375,0.8428589531249999,14.09754240234375Q0.833251953125,14.04924240234375,0.833251953125,13.99999240234375L0.833251953125,13.59999240234375Q0.833251953125,12.272822402343749,0.871243953125,11.80782240234375Q0.9337759531250001,11.04246240234375,1.178397953125,10.56236840234375Q1.645518953125,9.64558230234375,2.5622719531250002,9.17846140234375Q2.606151953125,9.15610340234375,2.653551953125,9.14273640234375Q2.700951953125,9.12936840234375,2.7500419531249998,9.12550440234375Q2.7991319531250003,9.12164040234375,2.848041953125,9.12742740234375Q2.8969419531250002,9.13321540234375,2.943781953125,9.14843240234375Q2.9906119531249997,9.16365040234375,3.033581953125,9.18771240234375Q3.076551953125,9.21177440234375,3.1139919531249998,9.24375640234375Q3.151441953125,9.27573840234375,3.181931953125,9.31441240234375Q3.2124219531250002,9.35308540234375,3.234771953125,9.39696340234375Q3.257131953125,9.44084140234375,3.2705019531249997,9.48823840234375Q3.283871953125,9.53563470234375,3.287731953125,9.58472850234375Q3.2916019531250003,9.63382236234375,3.285811953125,9.68272680234375Q3.280021953125,9.73163140234375,3.264801953125,9.77846640234375Q3.249591953125,9.82530240234375,3.225521953125,9.86826940234375Q3.201461953125,9.91123640234375,3.169481953125,9.94868340234375Q3.1375019531249997,9.98613040234375,3.0988219531250003,10.01661840234375Q3.060151953125,10.04710640234375,3.016271953125,10.06946340234375ZM3.289271953125,9.62396240234375Q3.289271953125,9.67320810234375,3.279671953125,9.72150750234375Q3.270061953125,9.76980740234375,3.251211953125,9.81530440234375Q3.232371953125,9.86080140234375,3.205011953125,9.90174740234375Q3.1776519531250003,9.94269340234375,3.142831953125,9.97751540234375Q3.108001953125,10.01233740234375,3.067061953125,10.03969740234375Q3.026111953125,10.06705640234375,2.980611953125,10.08590240234375Q2.935121953125,10.104747402343751,2.8868219531249997,10.11435540234375Q2.8385219531250003,10.12396240234375,2.789271953125,10.12396240234375Q2.740031953125,10.12396240234375,2.691731953125,10.11435540234375Q2.643431953125,10.104747402343751,2.5979319531250002,10.08590240234375Q2.5524319531249997,10.06705640234375,2.5114919531249997,10.03969740234375Q2.470541953125,10.01233740234375,2.4357219531250003,9.97751540234375Q2.400901953125,9.94269340234375,2.3735419531249997,9.90174740234375Q2.346181953125,9.86080140234375,2.327335953125,9.81530440234375Q2.308489953125,9.76980740234375,2.298882953125,9.72150750234375Q2.289274953125,9.67320810234375,2.289274953125,9.62396240234375Q2.289274953125,9.57471670234375,2.298882953125,9.52641730234375Q2.308489953125,9.47811740234375,2.327334953125,9.43262040234375Q2.346181953125,9.38712340234375,2.3735419531249997,9.34617740234375Q2.400901953125,9.30523140234375,2.4357219531250003,9.27040940234375Q2.470541953125,9.23558740234375,2.5114919531249997,9.20822740234375Q2.5524319531249997,9.18086840234375,2.5979319531250002,9.16202240234375Q2.643431953125,9.143177402343749,2.691731953125,9.13356940234375Q2.740031953125,9.12396240234375,2.789271953125,9.12396240234375Q2.8385219531250003,9.12396240234375,2.8868219531249997,9.13356940234375Q2.935121953125,9.143177402343749,2.980611953125,9.16202240234375Q3.026111953125,9.18086840234375,3.067061953125,9.20822740234375Q3.108001953125,9.23558740234375,3.142831953125,9.27040940234375Q3.1776519531250003,9.30523140234375,3.205011953125,9.34617740234375Q3.232371953125,9.38712340234375,3.251211953125,9.43262040234375Q3.270061953125,9.47811740234375,3.279671953125,9.52641730234375Q3.289271953125,9.57471670234375,3.289271953125,9.62396240234375ZM1.833251953125,13.99999240234375Q1.833251953125,14.04924240234375,1.823644953125,14.09754240234375Q1.814036953125,14.14584240234375,1.795191953125,14.19133240234375Q1.7763459531249999,14.236832402343751,1.748986953125,14.27778240234375Q1.721626953125,14.318722402343749,1.686804953125,14.35355240234375Q1.651982953125,14.38837240234375,1.611036953125,14.41573240234375Q1.570090953125,14.443092402343751,1.5245939531250001,14.46193240234375Q1.479096953125,14.480782402343749,1.430797053125,14.490392402343751Q1.382497653125,14.49999240234375,1.333251953125,14.49999240234375Q1.284006253125,14.49999240234375,1.235706853125,14.490392402343751Q1.187406953125,14.480782402343749,1.1419099531249999,14.46193240234375Q1.096412953125,14.443092402343751,1.055466953125,14.41573240234375Q1.014520953125,14.38837240234375,0.979698953125,14.35355240234375Q0.944876953125,14.318722402343749,0.917516953125,14.27778240234375Q0.890157953125,14.236832402343751,0.871311953125,14.19133240234375Q0.852466953125,14.14584240234375,0.8428589531249999,14.09754240234375Q0.833251953125,14.04924240234375,0.833251953125,13.99999240234375Q0.833251953125,13.950752402343749,0.8428589531249999,13.90245240234375Q0.852466953125,13.85415240234375,0.871311953125,13.80865240234375Q0.890157953125,13.76315240234375,0.917516953125,13.72221240234375Q0.944876953125,13.68126240234375,0.979698953125,13.64644240234375Q1.014520953125,13.61162240234375,1.055466953125,13.58426240234375Q1.096412953125,13.55690240234375,1.1419099531249999,13.53805240234375Q1.187406953125,13.51921240234375,1.235706853125,13.50960240234375Q1.284006253125,13.49999240234375,1.333251953125,13.49999240234375Q1.382497653125,13.49999240234375,1.430797053125,13.50960240234375Q1.479096953125,13.51921240234375,1.5245939531250001,13.53805240234375Q1.570090953125,13.55690240234375,1.611036953125,13.58426240234375Q1.651982953125,13.61162240234375,1.686804953125,13.64644240234375Q1.721626953125,13.68126240234375,1.748986953125,13.72221240234375Q1.7763459531249999,13.76315240234375,1.795191953125,13.80865240234375Q1.814036953125,13.85415240234375,1.823644953125,13.90245240234375Q1.833251953125,13.950752402343749,1.833251953125,13.99999240234375Z" fill="#FFFFFF" fill-opacity="1"/></g></g></svg>