<svg xmlns="http://www.w3.org/2000/svg" xmlns:xlink="http://www.w3.org/1999/xlink" fill="none" version="1.1" width="11.6666259765625" height="14.33331298828125" viewBox="0 0 11.6666259765625 14.33331298828125"><g><g><path d="M0,2.5Q0,1.46447,0.732233,0.732233Q1.46447,0,2.5,0L3.16675,0C2.89061,0,2.66675,0.223858,2.66675,0.5L2.66675,5.83333C2.66675,5.95579,2.71169,6.07399,2.79304,6.16552C2.9765,6.37191,3.29254,6.3905,3.49893,6.20704L4.66675,5.16898L5.83457,6.20704C5.92609,6.28839,6.04429,6.33333,6.16675,6.33333C6.44289,6.33333,6.66675,6.10948,6.66675,5.83333L6.66675,0.5C6.66675,0.223858,6.44289,0,6.16675,0L9.16667,0Q10.2022,0,10.9344,0.732233Q11.6667,1.46447,11.6667,2.5L11.6667,11.8333Q11.6667,12.8689,10.9344,13.6011Q10.2022,14.3333,9.16667,14.3333L2.5,14.3333Q1.46447,14.3333,0.732233,13.6011Q0,12.8689,0,11.8333L0,2.5ZM3.66675,4.71991L4.33457,4.1263C4.52401,3.9579,4.80949,3.9579,4.99893,4.1263L5.66675,4.71991L5.66675,1L3.66675,1L3.66675,4.71991ZM6.50008,9L3.16675,9C2.89061,9,2.66675,8.77614,2.66675,8.5C2.66675,8.22386,2.89061,8,3.16675,8L6.50008,8C6.77622,8,7.00008,8.22386,7.00008,8.5C7.00008,8.77614,6.77622,9,6.50008,9ZM8.50008,11L3.16675,11C2.89061,11,2.66675,10.7761,2.66675,10.5C2.66675,10.2239,2.89061,10,3.16675,10L8.50008,10C8.77622,10,9.00008,10.2239,9.00008,10.5C9.00008,10.7761,8.77622,11,8.50008,11Z" fill-rule="evenodd" fill="#FFFFFF" fill-opacity="1"/></g></g></svg>