<svg xmlns="http://www.w3.org/2000/svg" xmlns:xlink="http://www.w3.org/1999/xlink" fill="none" version="1.1" width="16" height="16" viewBox="0 0 16 16"><g><g><rect x="0" y="0" width="16" height="16" rx="0" fill="#FFFFFF" fill-opacity="0.009999999776482582"/></g><g><path d="M12.999951953125,14.5L2.999921953125,14.5Q2.950671953125,14.5,2.902371953125,14.4904Q2.854071953125,14.4808,2.808571953125,14.4619Q2.763081953125,14.4431,2.722131953125,14.4157Q2.681191953125,14.3884,2.646361953125,14.3536Q2.611541953125,14.3187,2.5841819531250003,14.2778Q2.556821953125,14.2368,2.537981953125,14.1913Q2.519131953125,14.1458,2.5095219531249997,14.0975Q2.499921953125,14.0492,2.499921953125,14L2.499921953125,6L2.999921953125,6L3.3122619531249997,6.39043L1.645599953125,7.72377L1.333251953125,7.33333L1.020903953125,6.9429L7.687571953125,1.609566Q7.754061953125,1.556372,7.834411953125,1.528186Q7.914771953125,1.5,7.999921953125,1.5Q8.085071953125,1.5,8.165421953125,1.528186Q8.245771953125,1.556372,8.312261953124999,1.609566L14.978951953125,6.9429Q15.017351953125,6.97366,15.049051953125,7.01134Q15.080851953125,7.04901,15.104551953125,7.09215Q15.128351953125,7.13529,15.143251953125,7.18223Q15.158051953125,7.22917,15.163551953125,7.27812Q15.168951953125,7.32706,15.164751953125,7.37613Q15.160551953125,7.42519,15.146851953125,7.47249Q15.133151953125,7.51979,15.110451953125,7.56351Q15.087751953125,7.60723,15.057051953125,7.64568Q15.026251953125,7.68413,14.988551953125,7.71585Q14.950951953125,7.74756,14.907751953125,7.77132Q14.864651953125,7.79507,14.817651953125,7.80995Q14.770751953125,7.82484,14.721751953125,7.83028Q14.672851953125,7.83571,14.623751953125,7.8315Q14.574751953125,7.82728,14.527451953125,7.81358Q14.480151953125,7.79987,14.436451953125,7.7772Q14.392651953125,7.75453,14.354251953125,7.72377L12.687551953125,6.39043L12.999951953125,6L13.499951953125,6L13.499951953125,14Q13.499951953125,14.0492,13.490351953125,14.0975Q13.480751953125,14.1458,13.461851953125,14.1913Q13.443051953125,14.2368,13.415651953125,14.2778Q13.388251953125,14.3187,13.353451953125,14.3536Q13.318651953125,14.3884,13.277751953125,14.4157Q13.236751953125,14.4431,13.191251953125,14.4619Q13.145751953125,14.4808,13.097451953125,14.4904Q13.049151953125,14.5,12.999951953125,14.5ZM12.999951953125,13.5L12.999951953125,14L12.499951953125,14L12.499951953125,6Q12.499951953125,5.82461,12.609451953125,5.68765Q12.640251953125,5.6492,12.677951953125,5.6174800000000005Q12.715551953125,5.58577,12.758751953125,5.56202Q12.801851953125,5.53826,12.848851953125,5.5233799999999995Q12.895751953125,5.5085,12.944751953125,5.50306Q12.993651953125,5.4976199999999995,13.042751953125,5.50183Q13.091751953125,5.50605,13.139051953125,5.51976Q13.186351953125,5.53346,13.230051953125,5.55613Q13.273851953125,5.5788,13.312251953125,5.60957L14.978951953125,6.9429L14.666551953125,7.33333L14.354251953125,7.72377L7.687571953125,2.390434L7.999921953125,2L8.312261953124999,2.390434L1.645599953125,7.72377Q1.607144953125,7.75453,1.563427953125,7.7772Q1.519710953125,7.79987,1.472410953125,7.81358Q1.425110753125,7.82728,1.376045753125,7.8315Q1.326980703125,7.83571,1.278036253125,7.83028Q1.229091953125,7.82484,1.182148953125,7.80995Q1.135205953125,7.79507,1.092067953125,7.77132Q1.048929953125,7.74756,1.011255953125,7.71585Q0.9735809531249999,7.68413,0.942817953125,7.64568Q0.912053953125,7.60723,0.8893839531250001,7.56351Q0.866712953125,7.51979,0.853006953125,7.47249Q0.839301953125,7.42519,0.835086953125,7.37613Q0.830871953125,7.32706,0.836309953125,7.27812Q0.8417479531250001,7.22917,0.856630953125,7.18223Q0.871512953125,7.13529,0.8952679531250001,7.09215Q0.919021953125,7.04901,0.9507359531249999,7.01134Q0.9824499531249999,6.97366,1.020903953125,6.9429L2.687571953125,5.60957Q2.8245319531249997,5.5,2.999921953125,5.5Q3.049161953125,5.5,3.0974619531250003,5.50961Q3.145761953125,5.51921,3.191261953125,5.53806Q3.236761953125,5.55691,3.277701953125,5.5842600000000004Q3.3186519531250003,5.61162,3.353471953125,5.64645Q3.388291953125,5.68127,3.415651953125,5.7222100000000005Q3.443011953125,5.76316,3.461861953125,5.80866Q3.480701953125,5.854150000000001,3.490311953125,5.90245Q3.499921953125,5.95075,3.499921953125,6L3.499921953125,14L2.999921953125,14L2.999921953125,13.5L12.999951953125,13.5Z" fill="#FFFFFF" fill-opacity="1"/></g><g><path d="M3,14L3,6L8,2L13,6L13,14L3,14ZM6.33325,14L6.33325,9.66666L9.66659,9.66666L9.66659,14L6.33325,14Z" fill-rule="evenodd" fill="#FFFFFF" fill-opacity="1"/></g><g><path d="M13,14.5L3,14.5Q2.9507543,14.5,2.9024549,14.490393Q2.854155,14.480785000000001,2.808658,14.46194Q2.763161,14.443094,2.722215,14.415735Q2.681269,14.388375,2.646447,14.353553Q2.611625,14.318731,2.584265,14.277785Q2.556906,14.236839,2.5380599999999998,14.191342Q2.519215,14.145845,2.509607,14.0975451Q2.5,14.0492457,2.5,14Q2.5,13.9507543,2.509607,13.9024549Q2.519215,13.854155,2.5380599999999998,13.808658Q2.556906,13.763161,2.584265,13.722215Q2.611625,13.681269,2.646447,13.646447Q2.681269,13.611625,2.722215,13.584265Q2.763161,13.556906,2.808658,13.53806Q2.854155,13.519214999999999,2.9024549,13.509607Q2.9507543,13.5,3,13.5L13,13.5Q13.0492,13.5,13.0975,13.509607Q13.1458,13.519214999999999,13.1913,13.53806Q13.2368,13.556906,13.2778,13.584265Q13.3187,13.611625,13.3536,13.646447Q13.3884,13.681269,13.4157,13.722215Q13.4431,13.763161,13.4619,13.808658Q13.4808,13.854155,13.4904,13.9024549Q13.5,13.9507543,13.5,14Q13.5,14.0492457,13.4904,14.0975451Q13.4808,14.145845,13.4619,14.191342Q13.4431,14.236839,13.4157,14.277785Q13.3884,14.318731,13.3536,14.353553Q13.3187,14.388375,13.2778,14.415735Q13.2368,14.443094,13.1913,14.46194Q13.1458,14.480785000000001,13.0975,14.490393Q13.0492,14.5,13,14.5ZM13.5,14Q13.5,14.0492457,13.4904,14.0975451Q13.4808,14.145845,13.4619,14.191342Q13.4431,14.236839,13.4157,14.277785Q13.3884,14.318731,13.3536,14.353553Q13.3187,14.388375,13.2778,14.415735Q13.2368,14.443094,13.1913,14.46194Q13.1458,14.480785000000001,13.0975,14.490393Q13.0492,14.5,13,14.5Q12.95075,14.5,12.90245,14.490393Q12.85415,14.480785000000001,12.80866,14.46194Q12.76316,14.443094,12.72221,14.415735Q12.68127,14.388375,12.64645,14.353553Q12.61162,14.318731,12.58426,14.277785Q12.5569,14.236839,12.53806,14.191342Q12.51921,14.145845,12.50961,14.0975451Q12.5,14.0492457,12.5,14Q12.5,13.9507543,12.50961,13.9024549Q12.51921,13.854155,12.53806,13.808658Q12.5569,13.763161,12.58426,13.722215Q12.61162,13.681269,12.64645,13.646447Q12.68127,13.611625,12.72221,13.584265Q12.76316,13.556906,12.80866,13.53806Q12.85415,13.519214999999999,12.90245,13.509607Q12.95075,13.5,13,13.5Q13.0492,13.5,13.0975,13.509607Q13.1458,13.519214999999999,13.1913,13.53806Q13.2368,13.556906,13.2778,13.584265Q13.3187,13.611625,13.3536,13.646447Q13.3884,13.681269,13.4157,13.722215Q13.4431,13.763161,13.4619,13.808658Q13.4808,13.854155,13.4904,13.9024549Q13.5,13.9507543,13.5,14ZM3.5,14Q3.5,14.0492457,3.490393,14.0975451Q3.480785,14.145845,3.4619400000000002,14.191342Q3.443094,14.236839,3.415735,14.277785Q3.388375,14.318731,3.353553,14.353553Q3.318731,14.388375,3.277785,14.415735Q3.236839,14.443094,3.191342,14.46194Q3.145845,14.480785000000001,3.0975451,14.490393Q3.0492457,14.5,3,14.5Q2.9507543,14.5,2.9024549,14.490393Q2.854155,14.480785000000001,2.808658,14.46194Q2.763161,14.443094,2.722215,14.415735Q2.681269,14.388375,2.646447,14.353553Q2.611625,14.318731,2.584265,14.277785Q2.556906,14.236839,2.5380599999999998,14.191342Q2.519215,14.145845,2.509607,14.0975451Q2.5,14.0492457,2.5,14Q2.5,13.9507543,2.509607,13.9024549Q2.519215,13.854155,2.5380599999999998,13.808658Q2.556906,13.763161,2.584265,13.722215Q2.611625,13.681269,2.646447,13.646447Q2.681269,13.611625,2.722215,13.584265Q2.763161,13.556906,2.808658,13.53806Q2.854155,13.519214999999999,2.9024549,13.509607Q2.9507543,13.5,3,13.5Q3.0492457,13.5,3.0975451,13.509607Q3.145845,13.519214999999999,3.191342,13.53806Q3.236839,13.556906,3.277785,13.584265Q3.318731,13.611625,3.353553,13.646447Q3.388375,13.681269,3.415735,13.722215Q3.443094,13.763161,3.4619400000000002,13.808658Q3.480785,13.854155,3.490393,13.9024549Q3.5,13.9507543,3.5,14Z" fill="#FFFFFF" fill-opacity="1"/></g></g></svg>