<svg xmlns="http://www.w3.org/2000/svg" width="14" height="14" viewBox="0 0 14 14">
  <g id="组_24441" data-name="组 24441" transform="translate(-926.75 -2080)">
    <rect id="Rectangle-49" width="14" height="14" transform="translate(926.75 2080)" fill="rgba(0,0,0,0)"/>
    <path id="路径_27364" data-name="路径 27364" d="M47.811,76.614a.474.474,0,0,0-.474.474v3.543a1.678,1.678,0,0,0,1.676,1.676H57.68a1.678,1.678,0,0,0,1.676-1.676V71.964a1.678,1.678,0,0,0-1.676-1.676H52.872a.474.474,0,1,0,0,.949H57.68a.728.728,0,0,1,.728.728v8.667a.728.728,0,0,1-.728.728H49.013a.728.728,0,0,1-.728-.728V77.089a.474.474,0,0,0-.474-.474Z" transform="translate(880.799 2010.937)" fill="#1062bd"/>
    <path id="路径_27365" data-name="路径 27365" d="M53.93,72.335a.421.421,0,0,1,0,.643L51.537,75.37a.426.426,0,0,1-.6-.6L52.58,73.12c-3.7.246-5.182,1.853-5.182,5.506a.426.426,0,0,1-.853,0c0-4.169,1.839-6.114,6.1-6.367l-1.714-1.713a.426.426,0,1,1,.6-.6Z" transform="translate(1007.187 2035.297) rotate(90)" fill="#1062bd" stroke="#1062bd" stroke-width="0.1"/>
  </g>
</svg>
