<svg xmlns="http://www.w3.org/2000/svg" xmlns:xlink="http://www.w3.org/1999/xlink" fill="none" version="1.1" width="187" height="73.48431396484375" viewBox="0 0 187 73.48431396484375"><g style="mix-blend-mode:passthrough"><g style="mix-blend-mode:passthrough"><path d="M24.88672,3.62891L24.88672,2.75L31.3438,2.75L31.3438,3.62891L28.32812,3.62891Q27.92969,5.00391,27.42578,6.25L28.191409999999998,6.25L28.191409999999998,13.5L27.26562,13.5L27.26562,6.63281Q26.08984,9.39062,24.38281,11.5Q24.07812,11.1953,23.64453,10.9258Q26.16016,7.85156,27.35938,3.62891L24.88672,3.62891ZM20.175781,10.2539Q21.01953,10.0586,21.96875,9.81641L21.96875,7.09375L20.398438,7.09375L20.398438,6.25L21.96875,6.25L21.96875,4.09375L20.316406,4.09375L20.316406,3.25L24.45312,3.25L24.45312,4.09375L22.89453,4.09375L22.89453,6.25L24.44141,6.25L24.44141,7.09375L22.89453,7.09375L22.89453,9.58203Q23.60547,9.39453,24.37109,9.1875Q24.33594,9.62109,24.35938,9.99609Q22.02734,10.707,20.328125,11.25L20.175781,10.2539ZM29.10547,6.5Q30.898400000000002,8.90234,31.835900000000002,10.3906L31.039099999999998,11Q29.79688,8.91406,28.378909999999998,6.98047L29.10547,6.5ZM36.3828,7L42.793,7L42.793,11L41.9844,11L41.9844,10.6797L40.8828,10.6797L40.8828,11.8867Q40.8828,12.5,41.4922,12.5L42.2305,12.5Q42.8047,12.5,42.886700000000005,11.8828Q42.957,11.4023,42.9805,10.75Q43.425799999999995,10.9492,43.8477,11.1016Q43.7656,11.8594,43.6719,12.25Q43.4727,13.2852,42.3477,13.2852L41.2812,13.2852Q40.050799999999995,13.2852,40.050799999999995,12.1523L40.050799999999995,10.6797L38.957,10.6797Q38.8047,11.8867,37.9531,12.4766Q37.238299999999995,13.0156,35.4453,13.5Q35.1992,13.1328,34.9062,12.7539Q36.7344,12.3867,37.414100000000005,11.8672Q37.976600000000005,11.4492,38.0938,10.6797L37.1914,10.6797L37.1914,11L36.3828,11L36.3828,7ZM32.1992,10.7773Q32.8281,10.6133,33.6523,10.375L33.6523,5.83203L32.3164,5.83203L32.3164,5L33.6523,5L33.6523,2.25L34.5078,2.25L34.5078,5L35.7148,5L35.7148,5.83203L34.5078,5.83203L34.5078,10.1211Q35.1641,9.92578,35.9258,9.6875Q35.9375,10.1914,35.9609,10.5664Q34.1562,11.1133,32.375,11.75L32.1992,10.7773ZM35.9609,5.5L38.0703,5.5Q37.75,4.96484,37.3555,4.43359L38.0469,4Q38.5273,4.60547,38.9375,5.19922L38.5,5.5L40.2695,5.5Q40.7422,4.75781,41.1523,4L41.9961,4.46875Q41.5977,4.99609,41.207,5.5L43.625,5.5L43.625,6.20312L35.9609,6.20312L35.9609,5.5ZM36.2422,3.25L39.335899999999995,3.25Q39.125,2.80078,38.8672,2.33984L39.6875,2Q40.0469,2.65625,40.2969,3.25L43.226600000000005,3.25L43.226600000000005,3.95312L36.2422,3.95312L36.2422,3.25ZM37.1914,10L41.9844,10L41.9844,9.15625L37.1914,9.15625L37.1914,10ZM41.9844,7.67969L37.1914,7.67969L37.1914,8.5L41.9844,8.5L41.9844,7.67969ZM44.539100000000005,3.75L47.8203,3.75Q47.9688,2.91016,48.0781,2L49.074200000000005,2.125Q48.9648,2.96484,48.824200000000005,3.75L55.6367,3.75L55.6367,4.64062L48.6523,4.64062Q48.4727,5.61328,48.25,6.5L54.3711,6.5L54.3711,7.34375Q53.4922,9.77344,51.8398,11.168Q53.4688,12.3203,55.8008,12.7695Q55.3906,13.2773,55.0391,13.75Q52.6562,12.9961,51.043,11.7578Q49.3203,12.9219,46.789100000000005,13.75Q46.460899999999995,13.3008,46.1797,12.8867Q48.625,12.2148,50.2695,11.1758Q48.6836,9.67969,48.0039,7.34375Q46.835899999999995,11.1914,44.726600000000005,13.25Q44.4219,12.8594,44.1055,12.5156Q46.6328,9.83203,47.6523,4.64062L44.539100000000005,4.64062L44.539100000000005,3.75ZM53.3047,7.34375L48.9062,7.34375Q49.574200000000005,9.33984,51.043,10.6328Q52.7539,9.20703,53.3047,7.34375ZM61.1094,11.5742L60.418,12.25Q59.7461,11.6133,59.1016,11.0195Q58.2227,12.3633,56.7734,13.5Q56.5273,13.168,56.2344,12.8008Q57.6289,11.7461,58.4453,10.4336Q57.5312,9.61719,56.6797,8.90234Q57.1016,7.39062,57.4531,5.37891L56.2109,5.37891L56.2109,4.5L57.6016,4.5Q57.7891,3.32812,57.957,2L58.9062,2.12891Q58.6953,3.43359,58.5078,4.5L60.7227,4.5L60.7227,5.28125Q60.4609,8.55078,59.5742,10.2773Q60.3477,10.918,61.1094,11.5742ZM60.7109,7.25L63.9336,7.25L63.9336,5.5Q65.0938,4.45312,66.0547,3.60547L61.1328,3.60547L61.1328,2.75L67.3555,2.75L67.3555,3.67578Q66.0898,4.8125,64.8594,5.91016L64.8594,7.25L67.83590000000001,7.25L67.83590000000001,8.10547L64.8594,8.10547L64.8594,12.0977Q64.8594,13.6172,63.3477,13.6172Q62.8555,13.6172,61.8125,13.5938Q61.7539,13.1992,61.6602,12.75Q62.7148,12.75,63.2188,12.75Q63.9336,12.75,63.9336,12.0039L63.9336,8.10547L60.7109,8.10547L60.7109,7.25ZM59.8203,5.37891L58.3516,5.37891Q57.9336,7.6875,57.6289,8.70312Q58.25,9.20703,58.8711,9.71484Q59.6641,8.02734,59.8203,5.37891Z" fill="#FFFFFF" fill-opacity="1"/></g><g style="mix-blend-mode:passthrough"><path d="M24.13672,55.25L27.42969,55.25L27.42969,49.41406L24.64062,49.41406L24.64062,48.5L27.42969,48.5L27.42969,45L28.36719,45L28.36719,48.5L31.3438,48.5L31.3438,49.41406L28.36719,49.41406L28.36719,55.25L31.6953,55.25L31.6953,56.1641L24.13672,56.1641L24.13672,55.25ZM20.328125,48.34375L20.328125,47.5L24.13672,47.5L24.13672,48.36719Q23.57031,49.47266,22.78906,50.46094L22.78906,56.5L21.875,56.5L21.875,51.49609Q21.23047,52.15625,20.480469,52.75Q20.375,52.32812,20.152344,51.77734Q21.95703,50.37109,23.14062,48.34375L20.328125,48.34375ZM21.48828,45.41016L22.30859,45Q22.74219,45.88672,23.22266,47.05469L22.35547,47.5Q21.89844,46.28906,21.48828,45.41016ZM22.92969,51.00391L23.53906,50.5Q24.25391,51.38281,24.83984,52.17578L24.11328,52.75Q23.55078,51.85938,22.92969,51.00391ZM39.7695,53.25Q41.4688,54.7539,42.699200000000005,56.0703L41.9375,56.75Q41.5625,56.2812,41.0703,55.7148Q38.1523,55.918,35.1055,56.1758Q34.6133,56.2344,34.1094,56.5L33.582,55.5898Q34.1562,55.375,34.5547,55.0117Q35.5742,53.9883,36.523399999999995,52.61719L32.6211,52.61719L32.6211,51.75L43.3789,51.75L43.3789,52.61719L37.707,52.61719Q36.511700000000005,54.1016,35.375,55.25Q37.9648,55.1172,40.3203,55Q39.7812,54.4648,39.136700000000005,53.8359L39.7695,53.25ZM38,46.20312Q35.6562,49.02734,32.7383,50.75Q32.457,50.35938,32.0938,49.95703Q35.457,48.17188,37.543,45.25L38.7969,45.25L38.574200000000005,45.54688Q40.601600000000005,48.28516,43.9297,49.56641Q43.5781,50.00391,43.273399999999995,50.5Q39.875,48.85547,38,46.20312ZM34.7422,49.25L41.210899999999995,49.25L41.210899999999995,50.11719L34.7422,50.11719L34.7422,49.25ZM45.5352,47.75L48.6523,47.75Q48.6836,47.39062,48.6953,46.94141L44.4805,46.94141L44.4805,46.25L48.0078,46.25Q47.5977,45.74609,47.2812,45.44531L47.9375,45Q48.4297,45.46094,48.9219,46.00781L48.543,46.25L51.1836,46.25Q51.7188,45.60938,52.1094,45L52.8945,45.50391Q52.6094,45.82812,52.168,46.25L55.5781,46.25L55.5781,46.94141L51.6406,46.94141L51.6406,47.75L54.6289,47.75L54.6289,52.75L53.8438,52.75L53.8438,52.39453L46.3203,52.39453L46.3203,52.75L45.5352,52.75L45.5352,47.75ZM46.543,54.3633L46.9531,53.9414L44.2812,53.9414L44.2812,53.25L52.4258,53.25L52.4258,52.75L53.2578,52.75L53.2578,53.25L55.7188,53.25L55.7188,53.9414L53.2578,53.9414L53.2578,54.918Q53.2578,56.3438,51.793,56.3438Q51.2188,56.3438,49.9062,56.4023Q49.8477,55.9688,49.7305,55.5Q51.0664,55.5,51.6289,55.5Q52.4258,55.5,52.4258,54.7148L52.4258,53.9414L47.2695,53.9414Q48.2539,54.6719,48.8047,55.168L48.1953,55.75Q47.5977,55.1641,46.543,54.3633ZM52.1914,49.25Q52.5078,49.25,53.5391,49.23828L53.375,49.95312L51.9688,49.95312Q50.8789,49.95312,50.8789,48.68359L50.8789,48.39453L49.375,48.39453Q49.210899999999995,49.94922,47.164100000000005,50.5Q46.9648,50.16797,46.707,49.85938Q48.511700000000005,49.48828,48.601600000000005,48.39453L46.3203,48.39453L46.3203,50.5L53.8438,50.5L53.8438,48.39453L51.6406,48.39453L51.6406,48.57031Q51.6406,49.25,52.1914,49.25ZM46.3203,51.75L53.8438,51.75L53.8438,51.12109L46.3203,51.12109L46.3203,51.75ZM49.425799999999995,47.75L50.8789,47.75L50.8789,46.94141L49.449200000000005,46.94141Q49.4453,47.41016,49.425799999999995,47.75ZM56.2109,55.5L61.5781,55.5L61.5781,54.6914L57.125,54.6914L57.125,54L61.5781,54L61.5781,52.92969L58.4141,52.92969L58.4141,53.5L57.5938,53.5L57.5938,49L61.5781,49L61.5781,47.97656L56.3047,47.97656L56.3047,47.25L61.5781,47.25L61.5781,46.4375Q59.4531,46.5,57.1719,46.54688Q57.1016,46.17188,57.0078,45.75Q62.9492,45.67969,66.6289,45.43359L66.7695,46.23047Q64.6836,46.33203,62.4219,46.41406L62.4219,47.25L67.7422,47.25L67.7422,47.97656L62.4219,47.97656L62.4219,49L66.4414,49L66.4414,53.25L65.6211,53.25L65.6211,52.92969L62.4219,52.92969L62.4219,54L66.88669999999999,54L66.88669999999999,54.6914L62.4219,54.6914L62.4219,55.5L67.7422,55.5L67.7422,56.2266L56.2109,56.2266L56.2109,55.5ZM62.4219,52.25L65.6211,52.25L65.6211,51.12109L62.4219,51.12109L62.4219,52.25ZM58.4141,52.25L61.5781,52.25L61.5781,51.12109L58.4141,51.12109L58.4141,52.25ZM65.6211,49.67969L62.4219,49.67969L62.4219,50.5L65.6211,50.5L65.6211,49.67969ZM58.4141,50.5L61.5781,50.5L61.5781,49.67969L58.4141,49.67969L58.4141,50.5Z" fill="#FFFFFF" fill-opacity="1"/></g><g style="mix-blend-mode:passthrough"><path d="M126.0625,2.5L133.9375,2.5L133.9375,6.25L133,6.25L133,5.82031L127,5.82031L127,6.25L126.0625,6.25L126.0625,2.5ZM129.46094,8.25L130.41016,8.25Q130.42188,8.86328,130.375,9.57812Q130.33984,10.0898,130.23438,10.5234Q132.76562,11.5273,135.7656,12.9336L135.2383,13.75Q132.95312,12.5859,129.92969,11.332Q129.71875,11.7383,129.39062,12.0391Q128.03125,13.2539,124.796875,13.75Q124.597656,13.293,124.28125,12.9219Q127.57422,12.4297,128.64062,11.3984Q129.35547,10.7578,129.42578,9.50781Q129.47266,8.86719,129.46094,8.25ZM125.41797,7L134.5938,7L134.5938,11.25L133.65625,11.25L133.65625,7.82031L126.35547,7.82031L126.35547,11.25L125.41797,11.25L125.41797,7ZM133,5L133,3.32031L127,3.32031L127,5L133,5ZM136.3398,11.75L141.4727,11.75L141.4727,3.9375L137.0078,3.9375L137.0078,3L146.9922,3L146.9922,3.9375L142.5039,3.9375L142.5039,11.75L147.6484,11.75L147.6484,12.6641L136.3398,12.6641L136.3398,11.75ZM148.4102,7.25L151.9258,7.25Q152.1133,6.76953,152.2656,6.25L153.2617,6.25Q153.0977,6.76172,152.9102,7.25L159.6953,7.25L159.6953,8.07031L152.5547,8.07031Q152.3281,8.55078,152.0625,9L158.3008,9L158.3008,9.82031Q157.3047,10.957,155.7812,11.7695Q157.5273,12.3633,159.8359,12.5Q159.5195,13.0273,159.2852,13.4609Q156.6016,13.1523,154.6992,12.2969Q152.6836,13.1172,149.9219,13.5Q149.6992,13.1445,149.3828,12.7656Q151.8789,12.4453,153.6953,11.7852Q152.3438,11.0078,151.4922,9.89062Q150.3047,11.5508,148.5742,12.75Q148.3516,12.3477,148.0703,11.957Q150.3672,10.418,151.5586,8.07031L148.4102,8.07031L148.4102,7.25ZM153.0977,3.85938L153.7148,3.50391Q152.2812,3.53516,150.7148,3.56641Q151.2539,4.11719,151.7617,4.78906L151.0898,5.25L156.8906,5.25L156.3672,4.85938Q156.9297,4.11719,157.3984,3.25L158.2656,3.71875Q157.7617,4.53125,157.2305,5.25L159.3086,5.25L159.3086,7L158.3945,7L158.3945,6.07031L149.6172,6.07031L149.6172,7L148.7031,7L148.7031,5.25L150.9609,5.25Q150.4961,4.59766,149.9688,3.99219L150.6016,3.56641Q149.8242,3.57812,149.0078,3.59375Q148.9492,3.21875,148.8438,2.75Q154.4688,2.72266,159.0859,2.5L159.2266,3.33203Q156.832,3.42188,153.9062,3.49609Q154.4336,4.14453,154.8672,4.80469L154.0586,5.25Q153.5781,4.46484,153.0977,3.85938ZM157.0469,9.79688L152.4609,9.79688Q153.3945,10.7383,154.7461,11.3516Q156.1562,10.7031,157.0469,9.79688ZM166.7148,12.3789Q167.6602,11.6133,168.4219,10.6094Q167.8906,8.5625,167.8359,5.20312L160.2695,5.20312L160.2695,4.5L163.3281,4.5L163.3281,3.63281L160.7031,3.63281L160.7031,3L163.3281,3L163.3281,2L164.1719,2L164.1719,3L166.75,3L166.75,3.63281L164.1719,3.63281L164.1719,4.5L167.8164,4.5Q167.7891,3.28516,167.7812,2L168.6484,2Q168.6367,3.28125,168.6719,4.5L171.8125,4.5L171.8125,5.20312L168.6914,5.20312Q168.7422,7.90625,169.0703,9.63672Q169.9844,8.15234,170.5586,6.25L171.4492,6.57812Q170.6133,9.01172,169.3516,10.8086Q169.6172,11.6094,169.9844,12.0742Q170.3125,12.5,170.582,12.5Q170.793,12.5,170.8984,12.0312Q171.0156,11.3633,171.0977,10.25Q171.543,10.4727,171.9297,10.5781Q171.8125,11.5781,171.6836,12.25Q171.4492,13.4961,170.6992,13.4961Q169.8555,13.4961,169.2227,12.5312Q168.9648,12.1172,168.75,11.6289Q168.1289,12.3789,167.418,13Q167.125,12.7188,166.7148,12.3789ZM160.2812,11L162.2148,11L162.2148,10.1094L160.5859,10.1094L160.5859,9.5L162.2148,9.5L162.2148,8.5625L161.6289,8.5625L161.6289,8.75L160.9023,8.75L160.9023,5.75L166.7031,5.75L166.7031,8.75L165.9766,8.75L165.9766,8.5625L165.3555,8.5625L165.3555,9.5L166.9375,9.5L166.9375,10.1094L165.3555,10.1094L165.3555,11L167.2188,11L167.2188,11.6094L160.2812,11.6094L160.2812,11ZM162.7188,11.75L163.2344,12.2617Q161.957,12.9648,160.7148,13.5Q160.5508,13.2227,160.3047,12.8828Q161.5469,12.3945,162.7188,11.75ZM164.3711,12.2617L164.793,11.75Q165.9648,12.3008,167.0312,12.8711L166.5508,13.5Q165.4609,12.8477,164.3711,12.2617ZM169.2227,2.80078L169.7734,2.25Q170.6641,2.94922,171.4141,3.60547L170.7695,4.25Q170.0781,3.53516,169.2227,2.80078ZM162.9414,11L164.6289,11L164.6289,10.1094L162.9414,10.1094L162.9414,11ZM162.9414,9.5L164.6289,9.5L164.6289,8.5625L162.9414,8.5625L162.9414,9.5ZM164.1367,8L165.9766,8L165.9766,7.49219L164.1367,7.49219L164.1367,8ZM161.6289,8L163.457,8L163.457,7.49219L161.6289,7.49219L161.6289,8ZM165.9766,6.3125L164.1367,6.3125L164.1367,7L165.9766,7L165.9766,6.3125ZM161.6289,7L163.457,7L163.457,6.3125L161.6289,6.3125L161.6289,7Z" fill="#FFFFFF" fill-opacity="1"/></g><g style="mix-blend-mode:passthrough"><path d="M128.00781,47.25L128.86328,47.61328Q128.59375,47.94141,128.32422,48.25L133.72656,48.25L133.72656,48.98828Q132.75391,50.10547,131.14844,50.91406Q133.09375,51.48828,135.8945,51.5Q135.5781,51.95703,135.3086,52.44922Q132.17578,52.21484,130.10547,51.38281Q127.83203,52.32422,124.539062,52.75Q124.339844,52.34766,124.046875,51.96875Q127.00781,51.64062,129.07422,50.88672Q127.94922,50.25391,127.25391,49.375Q126.375,50.28125,125.42969,51Q125.17188,50.72656,124.820312,50.42969Q126.89453,48.93359,128.00781,47.25ZM126.20312,52.75L133.84375,52.75L133.84375,56.5L132.97656,56.5L132.97656,56L127.07031,56L127.07031,56.5L126.20312,56.5L126.20312,52.75ZM124.796875,46.5L129.85547,46.5Q129.53906,46.03125,129.08594,45.50391L129.88281,45Q130.35156,45.52734,130.85547,46.16797L130.31641,46.5L135.2734,46.5L135.2734,48.5L134.4062,48.5L134.4062,47.27344L125.66406,47.27344L125.66406,48.75L124.796875,48.75L124.796875,46.5ZM132.97656,53.5L127.07031,53.5L127.07031,55.25L132.97656,55.25L132.97656,53.5ZM132.48438,49L128.00391,49Q128.79297,49.92188,130.08203,50.50391Q131.57812,49.875,132.48438,49ZM141.1094,45.50391L141.9531,45Q142.5156,45.64453,143.0664,46.39844L142.4922,46.75L146.8633,46.75L146.8633,52L145.9258,52L145.9258,51.34375L138.5273,51.34375Q138.3672,54.7305,136.7852,56.75Q136.4688,56.3945,136.1055,56.0391Q137.6055,54.1914,137.6055,50.5L137.6055,46.75L142.0781,46.75Q141.6484,46.12891,141.1094,45.50391ZM138.543,47.59375L138.543,50.5L145.9258,50.5L145.9258,47.59375L138.543,47.59375ZM152.3125,52.25L158.9805,52.25L158.9805,56.5L158.0781,56.5L158.0781,55.7969L153.2148,55.7969L153.2148,56.5L152.3125,56.5L152.3125,52.25ZM148.1523,50.53906Q149.875,48.03516,150.7422,45L151.6562,45.25781Q151.1484,46.80469,150.543,48.11328L150.543,56.5L149.6758,56.5L149.6758,49.80078Q149.1367,50.72656,148.5391,51.5Q148.3516,51.00781,148.1523,50.53906ZM158.0781,53.0469L153.2148,53.0469L153.2148,55L158.0781,55L158.0781,53.0469ZM151.5391,46.5L155.3672,46.5Q155.0156,45.94922,154.6328,45.41016L155.418,45Q155.8398,45.58984,156.25,46.25L155.7422,46.5L159.7891,46.5L159.7891,47.32031L151.5391,47.32031L151.5391,46.5ZM152.1836,48.5L159.0977,48.5L159.0977,49.29688L152.1836,49.29688L152.1836,48.5ZM152.1836,50.25L159.0977,50.25L159.0977,51.04688L152.1836,51.04688L152.1836,50.25ZM162.6484,56.5L162.6484,52.92578Q161.6875,54.7461,160.4102,56Q160.3281,55.4844,160.1523,55.0039Q161.5586,53.6484,162.4961,51.75L161.5938,51.75L161.5938,52L160.7969,52L160.7969,48.25L162.6484,48.25L162.6484,47.02344L160.3984,47.02344L160.3984,46.25L162.6484,46.25L162.6484,45L163.4688,45L163.4688,46.25L165.7422,46.25L165.7422,47.02344L163.4688,47.02344L163.4688,48.25L165.3203,48.25L165.3203,52L164.5234,52L164.5234,51.75L163.4688,51.75L163.4688,52.93359L163.832,52.4375Q164.9688,53.3867,165.6836,54.1094L165.1094,54.75Q164.3945,53.9727,163.4688,53.168L163.4688,56.5L162.6484,56.5ZM166.2109,48.5L168.5898,48.5L169.5742,46.80859L167.4414,46.80859Q166.7969,47.91797,166.0469,48.75Q165.7188,48.43359,165.3789,48.19922Q166.6797,46.81641,167.5,45L168.3672,45.17578Q168.1445,45.60547,167.9102,46L170.6055,46L170.6055,46.76172L169.5391,48.5L171.2734,48.5L171.2734,53.75L170.4414,53.75L170.4414,49.30859L167.043,49.30859L167.043,53.75L166.2109,53.75L166.2109,48.5ZM168.3203,49.75L169.1523,49.75Q169.1641,51.69922,169.0938,52.33594Q169.0469,52.99609,168.8477,53.5547Q170.3711,54.6641,171.7891,55.8594L171.1797,56.5Q169.8203,55.2656,168.4961,54.3164Q167.6641,55.7266,165.6836,56.5Q165.4375,56.1328,165.1328,55.7656Q168.1562,54.8047,168.2852,52.21875Q168.332,51.5625,168.3203,49.75ZM161.5938,51L162.6484,51L162.6484,49L161.5938,49L161.5938,51ZM164.5234,49L163.4688,49L163.4688,51L164.5234,51L164.5234,49Z" fill="#FFFFFF" fill-opacity="1"/></g><g style="opacity:0.6000000238418579;mix-blend-mode:passthrough"><path d="M4.92709,22.8099L1.84766,22.8099L1.84766,25.2318L5.42513,25.2318L5.42513,26L0.910159,26L0.910159,18.91667L5.3763,18.91667L5.3763,19.68815L1.84766,19.68815L1.84766,22.04167L4.92709,22.04167L4.92709,22.8099ZM7.24805,20.58333L7.27735,21.35156Q7.88281,20.58333,8.85938,20.58333Q10.5326,20.58333,10.5488,22.48438L10.5488,26L9.64388,26L9.64388,22.47786Q9.64063,21.901690000000002,9.38347,21.62826Q9.1263,21.35156,8.58594,21.35156Q8.14649,21.35156,7.81446,21.589190000000002Q7.48242,21.82357,7.29688,22.20768L7.29688,26L6.39193,26L6.39193,20.58333L7.24805,20.58333ZM13.5534,24.74349L14.862,20.58333L15.7832,20.58333L13.8887,26L13.2018,26L11.2878,20.58333L12.209,20.58333L13.5534,24.74349ZM17.5833,26L16.6784,26L16.6784,20.58333L17.5833,20.58333L17.5833,26ZM16.6068,19.235680000000002Q16.6068,19.01758,16.7402,18.86784Q16.8737,18.71484,17.1374,18.71484Q17.401,18.71484,17.5378,18.86784Q17.6745,19.01758,17.6745,19.23893Q17.6745,19.45703,17.5378,19.60352Q17.401,19.75,17.1374,19.75Q16.8737,19.75,16.7402,19.60352Q16.6068,19.45703,16.6068,19.235680000000002ZM21.6556,21.494790000000002Q21.4505,21.45898,21.2096,21.45898Q20.321,21.45898,20.0052,22.2207L20.0052,26L19.1003,26L19.1003,20.58333L19.9792,20.58333L19.9954,21.296219999999998Q20.4382,20.58333,21.2552,20.58333Q21.5189,20.58333,21.6556,20.651690000000002L21.6556,21.494790000000002ZM22.196,23.24284Q22.196,22.47461,22.4987,21.86263Q22.8047,21.25065,23.3483,20.91862Q23.8952,20.58333,24.5918,20.58333Q25.6725,20.58333,26.3366,21.32227Q27.0039,22.0612,27.0039,23.28841L27.0039,23.35026Q27.0039,24.111980000000003,26.7077,24.71745Q26.4147,25.3229,25.8646,25.6615Q25.3145,26,24.6016,26Q23.5273,26,22.86,25.2611Q22.196,24.52214,22.196,23.30469L22.196,23.24284ZM23.1042,23.347009999999997Q23.1042,24.21289,23.5111,24.736980000000003Q23.918,25.2611,24.6016,25.2611Q25.2917,25.2611,25.6953,24.73047Q26.1022,24.19987,26.1022,23.24284Q26.1022,22.38672,25.6888,21.85612Q25.2754,21.32552,24.5918,21.32552Q23.9245,21.32552,23.5143,21.84961Q23.1042,22.3737,23.1042,23.347009999999997ZM28.9147,20.58333L28.944,21.35156Q29.5495,20.58333,30.526,20.58333Q32.1992,20.58333,32.2155,22.48438L32.2155,26L31.3105,26L31.3105,22.47786Q31.3073,21.901690000000002,31.0501,21.62826Q30.793,21.35156,30.2526,21.35156Q29.8132,21.35156,29.4811,21.589190000000002Q29.1491,21.82357,28.9635,22.20768L28.9635,26L28.0586,26L28.0586,20.58333L28.9147,20.58333ZM34.3249,20.58333L34.3509,21.27018Q34.9303,20.58333,35.9167,20.58333Q37.0267,20.58333,37.4271,21.43945Q37.6908,21.05534,38.1107,20.82096Q38.5339,20.58333,39.11,20.58333Q40.8483,20.58333,40.8776,22.43555L40.8776,26L39.9759,26L39.9759,22.48763Q39.9759,21.91797,39.7155,21.63477Q39.4583,21.35156,38.8464,21.35156Q38.3451,21.35156,38.013,21.6543Q37.681,21.95703,37.6257,22.4681L37.6257,26L36.7174,26L36.7174,22.51367Q36.7174,21.35156,35.5911,21.35156Q34.7025,21.35156,34.3737,22.11328L34.3737,26L33.472,26L33.472,20.58333L34.3249,20.58333ZM44.4193,26Q43.3451,26,42.6712,25.3034Q41.9974,24.60352,41.9974,23.4349L41.9974,23.27214Q41.9974,22.49414,42.2969,21.88542Q42.5964,21.27344,43.1367,20.92839Q43.6771,20.58333,44.3053,20.58333Q45.3372,20.58333,45.9069,21.27018Q46.4798,21.95703,46.4798,23.236330000000002L46.4798,23.61719L42.8991,23.61719Q42.9186,24.35286,43.3548,24.808590000000002Q43.7943,25.2611,44.4681,25.2611Q44.9466,25.2611,45.2786,25.0723Q45.6107,24.880209999999998,45.8581,24.567709999999998L46.4115,24.99089Q45.7474,26,44.4193,26ZM44.3053,21.32552Q43.7585,21.32552,43.3874,21.73242Q43.0163,22.139319999999998,42.9284,22.875L45.5749,22.875L45.5749,22.80664Q45.5358,22.10026,45.2038,21.71289Q44.8717,21.32552,44.3053,21.32552ZM48.2897,20.58333L48.319,21.35156Q48.9245,20.58333,49.901,20.58333Q51.5742,20.58333,51.5905,22.48438L51.5905,26L50.6855,26L50.6855,22.47786Q50.6823,21.901690000000002,50.4251,21.62826Q50.168,21.35156,49.6276,21.35156Q49.1882,21.35156,48.8561,21.589190000000002Q48.5241,21.82357,48.3385,22.20768L48.3385,26L47.4336,26L47.4336,20.58333L48.2897,20.58333ZM54.0775,19.33333L54.0775,20.58333L55.0638,20.58333L55.0638,21.2832L54.0775,21.2832L54.0775,24.58724Q54.0775,24.9095,54.2077,25.069000000000003Q54.3411,25.2285,54.6569,25.2285Q54.8132,25.2285,55.0866,25.1699L55.0866,25.9023Q54.7318,26,54.3932,26Q53.7878,26,53.4785,25.632199999999997Q53.1725,25.2611,53.1725,24.58398L53.1725,21.2832L52.2122,21.2832L52.2122,20.58333L53.1725,20.58333L53.1725,19.33333L54.0775,19.33333ZM59.1296,26L59.1296,21.2832L58.293,21.2832L58.293,20.58333L59.1296,20.58333L59.1296,20.046219999999998Q59.1296,19.20964,59.582,18.75065Q60.0378,18.29167,60.8678,18.29167Q61.1803,18.29167,61.4863,18.37305L61.4375,19.108719999999998Q61.2096,19.06315,60.9492,19.06315Q60.5098,19.06315,60.2689,19.317059999999998Q60.0312,19.567709999999998,60.0312,20.036459999999998L60.0312,20.58333L61.1608,20.58333L61.1608,21.2832L60.0312,21.2832L60.0312,26L59.1296,26ZM64.7806,21.494790000000002Q64.5755,21.45898,64.3346,21.45898Q63.446,21.45898,63.1302,22.2207L63.1302,26L62.2253,26L62.2253,20.58333L63.1042,20.58333L63.1204,21.296219999999998Q63.5632,20.58333,64.3802,20.58333Q64.6439,20.58333,64.7806,20.651690000000002L64.7806,21.494790000000002ZM66.5417,26L65.6367,26L65.6367,20.58333L66.5417,20.58333L66.5417,26ZM65.5651,19.235680000000002Q65.5651,19.01758,65.6986,18.86784Q65.832,18.71484,66.0957,18.71484Q66.3594,18.71484,66.4961,18.86784Q66.6328,19.01758,66.6328,19.23893Q66.6328,19.45703,66.4961,19.60352Q66.3594,19.75,66.0957,19.75Q65.832,19.75,65.6986,19.60352Q65.5651,19.45703,65.5651,19.235680000000002ZM70.2526,26Q69.1784,26,68.5046,25.3034Q67.8307,24.60352,67.8307,23.4349L67.8307,23.27214Q67.8307,22.49414,68.1302,21.88542Q68.4297,21.27344,68.9701,20.92839Q69.5104,20.58333,70.1387,20.58333Q71.1706,20.58333,71.7402,21.27018Q72.3131,21.95703,72.3131,23.236330000000002L72.3131,23.61719L68.7324,23.61719Q68.752,24.35286,69.1881,24.808590000000002Q69.6276,25.2611,70.3014,25.2611Q70.7799,25.2611,71.112,25.0723Q71.444,24.880209999999998,71.6914,24.567709999999998L72.2448,24.99089Q71.5807,26,70.2526,26ZM70.1387,21.32552Q69.5918,21.32552,69.2207,21.73242Q68.8496,22.139319999999998,68.7617,22.875L71.4082,22.875L71.4082,22.80664Q71.3691,22.10026,71.0371,21.71289Q70.7051,21.32552,70.1387,21.32552ZM74.123,20.58333L74.1523,21.35156Q74.7578,20.58333,75.7344,20.58333Q77.4076,20.58333,77.4238,22.48438L77.4238,26L76.5189,26L76.5189,22.47786Q76.5156,21.901690000000002,76.2585,21.62826Q76.0013,21.35156,75.4609,21.35156Q75.0215,21.35156,74.6895,21.589190000000002Q74.3574,21.82357,74.1719,22.20768L74.1719,26L73.2669,26L73.2669,20.58333L74.123,20.58333ZM78.4655,23.24935Q78.4655,22.04492,79.0417,21.31576Q79.6178,20.58333,80.5488,20.58333Q81.4766,20.58333,82.0202,21.21159L82.0202,18.5L82.9219,18.5L82.9219,26L82.0918,26L82.0495,25.342399999999998Q81.5059,26,80.5391,26Q79.6211,26,79.0417,25.2578Q78.4655,24.51237,78.4655,23.31445L78.4655,23.24935ZM79.3672,23.35026Q79.3672,24.232419999999998,79.7383,24.733719999999998Q80.1094,25.2318,80.7637,25.2318Q81.623,25.2318,82.0202,24.473309999999998L82.0202,22.08724Q81.6133,21.35156,80.7734,21.35156Q80.1094,21.35156,79.7383,21.85612Q79.3672,22.360680000000002,79.3672,23.35026ZM85.2917,26L84.3867,26L84.3867,18.29167L85.2917,18.29167L85.2917,26ZM88.5371,24.58724L89.7676,20.58333L90.7344,20.58333L88.612,26.7487Q88.1172,28.0833,87.043,28.0833L86.8737,28.0671L86.5352,28.005200000000002L86.5352,27.2728L86.7793,27.292299999999997Q87.2383,27.292299999999997,87.4954,27.1003Q87.7526,26.9115,87.9186,26.4036L88.1172,25.8535L86.2324,20.58333L87.2188,20.58333L88.5371,24.58724Z" fill="#FFFFFF" fill-opacity="1"/></g><g style="opacity:0.6000000238418579;mix-blend-mode:passthrough"><path d="M111.13542,22.8099L108.05599,22.8099L108.05599,25.2318L111.63346,25.2318L111.63346,26L107.11849,26L107.11849,18.91667L111.58464000000001,18.91667L111.58464000000001,19.68815L108.05599,19.68815L108.05599,22.04167L111.13542,22.04167L111.13542,22.8099ZM113.44987,20.58333L113.47591,21.27018Q114.05534,20.58333,115.04167,20.58333Q116.1517,20.58333,116.5521,21.43945Q116.8158,21.05534,117.2357,20.82096Q117.6589,20.58333,118.235,20.58333Q119.9733,20.58333,120.0026,22.43555L120.0026,26L119.1009,26L119.1009,22.48763Q119.1009,21.91797,118.8405,21.63477Q118.5833,21.35156,117.9714,21.35156Q117.4701,21.35156,117.138,21.6543Q116.806,21.95703,116.7507,22.4681L116.7507,26L115.84245,26L115.84245,22.51367Q115.84245,21.35156,114.71615,21.35156Q113.82748,21.35156,113.4987,22.11328L113.4987,26L112.59701,26L112.59701,20.58333L113.44987,20.58333ZM125.8132,23.35026Q125.8132,24.54167,125.2598,25.2708Q124.7096,26,123.7689,26Q122.8053,26,122.2552,25.3978L122.2552,28.0833L121.3503,28.0833L121.3503,20.58333L122.1771,20.58333L122.21940000000001,21.26042Q122.7728,20.58333,123.7526,20.58333Q124.7064,20.58333,125.2598,21.29297Q125.8132,22.0026,125.8132,23.26888L125.8132,23.35026ZM124.9115,23.24935Q124.9115,22.370440000000002,124.53059999999999,21.86263Q124.1497,21.35156,123.48570000000001,21.35156Q122.6654,21.35156,122.2552,22.067709999999998L122.2552,24.55143Q122.6589,25.2611,123.4954,25.2611Q124.14320000000001,25.2611,124.5273,24.75651Q124.9115,24.2487,124.9115,23.24935ZM127.95830000000001,26L127.0534,26L127.0534,18.29167L127.95830000000001,18.29167L127.95830000000001,26ZM129.2376,23.24284Q129.2376,22.47461,129.5404,21.86263Q129.8464,21.25065,130.39,20.91862Q130.9368,20.58333,131.6335,20.58333Q132.7142,20.58333,133.3783,21.32227Q134.0456,22.0612,134.0456,23.28841L134.0456,23.35026Q134.0456,24.111980000000003,133.7493,24.71745Q133.4564,25.3229,132.9062,25.6615Q132.3561,26,131.6432,26Q130.569,26,129.9017,25.2611Q129.2376,24.52214,129.2376,23.30469L129.2376,23.24284ZM130.1458,23.347009999999997Q130.1458,24.21289,130.55270000000002,24.736980000000003Q130.9596,25.2611,131.6432,25.2611Q132.3333,25.2611,132.737,24.73047Q133.1439,24.19987,133.1439,23.24284Q133.1439,22.38672,132.7305,21.85612Q132.3171,21.32552,131.6335,21.32552Q130.9661,21.32552,130.556,21.84961Q130.1458,22.3737,130.1458,23.347009999999997ZM136.8288,24.58724L138.0592,20.58333L139.026,20.58333L136.9036,26.7487Q136.4089,28.0833,135.3346,28.0833L135.1654,28.0671L134.8268,28.005200000000002L134.8268,27.2728L135.071,27.292299999999997Q135.5299,27.292299999999997,135.7871,27.1003Q136.0443,26.9115,136.2103,26.4036L136.4089,25.8535L134.5241,20.58333L135.5104,20.58333L136.8288,24.58724ZM142.0859,26Q141.0117,26,140.3379,25.3034Q139.6641,24.60352,139.6641,23.4349L139.6641,23.27214Q139.6641,22.49414,139.9635,21.88542Q140.263,21.27344,140.8034,20.92839Q141.3438,20.58333,141.972,20.58333Q143.0039,20.58333,143.5736,21.27018Q144.1465,21.95703,144.1465,23.236330000000002L144.1465,23.61719L140.5658,23.61719Q140.5853,24.35286,141.0215,24.808590000000002Q141.4609,25.2611,142.13479999999998,25.2611Q142.6133,25.2611,142.9453,25.0723Q143.2773,24.880209999999998,143.5247,24.567709999999998L144.0781,24.99089Q143.4141,26,142.0859,26ZM141.972,21.32552Q141.4251,21.32552,141.054,21.73242Q140.6829,22.139319999999998,140.5951,22.875L143.2415,22.875L143.2415,22.80664Q143.2025,22.10026,142.8704,21.71289Q142.5384,21.32552,141.972,21.32552ZM147.2943,26Q146.2201,26,145.5462,25.3034Q144.8724,24.60352,144.8724,23.4349L144.8724,23.27214Q144.8724,22.49414,145.1719,21.88542Q145.47140000000002,21.27344,146.0117,20.92839Q146.5521,20.58333,147.1803,20.58333Q148.2122,20.58333,148.7819,21.27018Q149.3548,21.95703,149.3548,23.236330000000002L149.3548,23.61719L145.7741,23.61719Q145.7936,24.35286,146.2298,24.808590000000002Q146.6693,25.2611,147.3431,25.2611Q147.8216,25.2611,148.15359999999998,25.0723Q148.4857,24.880209999999998,148.7331,24.567709999999998L149.2865,24.99089Q148.6224,26,147.2943,26ZM147.1803,21.32552Q146.6335,21.32552,146.2624,21.73242Q145.8913,22.139319999999998,145.8034,22.875L148.4499,22.875L148.4499,22.80664Q148.4108,22.10026,148.0788,21.71289Q147.7467,21.32552,147.1803,21.32552ZM157.2812,23.35026Q157.2812,24.548180000000002,156.7246,25.2741Q156.168,26,155.2305,26Q154.2311,26,153.6842,25.3001L153.6387,26L152.8086,26L152.8086,18.5L153.7135,18.5L153.7135,21.25391Q154.2604,20.58333,155.2207,20.58333Q156.1842,20.58333,156.7311,21.30273Q157.2812,22.02214,157.2812,23.27214L157.2812,23.35026ZM156.3796,23.24935Q156.3796,22.34115,156.0215,21.84635Q155.6667,21.35156,154.9961,21.35156Q154.1042,21.35156,153.7135,22.16862L153.7135,24.41471Q154.127,25.2318,155.0059,25.2318Q155.6569,25.2318,156.0182,24.736980000000003Q156.3796,24.24219,156.3796,23.24935ZM160.6276,26Q159.5534,26,158.8796,25.3034Q158.2057,24.60352,158.2057,23.4349L158.2057,23.27214Q158.2057,22.49414,158.5052,21.88542Q158.8047,21.27344,159.3451,20.92839Q159.8854,20.58333,160.5137,20.58333Q161.5456,20.58333,162.11520000000002,21.27018Q162.6882,21.95703,162.6882,23.236330000000002L162.6882,23.61719L159.10739999999998,23.61719Q159.127,24.35286,159.5632,24.808590000000002Q160.0026,25.2611,160.6764,25.2611Q161.1549,25.2611,161.487,25.0723Q161.81900000000002,24.880209999999998,162.0664,24.567709999999998L162.6198,24.99089Q161.9557,26,160.6276,26ZM160.5137,21.32552Q159.9668,21.32552,159.5957,21.73242Q159.2246,22.139319999999998,159.1367,22.875L161.7832,22.875L161.7832,22.80664Q161.7441,22.10026,161.4121,21.71289Q161.08010000000002,21.32552,160.5137,21.32552ZM164.625,26L163.7201,26L163.7201,18.29167L164.625,18.29167L164.625,26ZM165.9043,23.24284Q165.9043,22.47461,166.207,21.86263Q166.513,21.25065,167.0566,20.91862Q167.6035,20.58333,168.3001,20.58333Q169.3809,20.58333,170.04489999999998,21.32227Q170.7122,22.0612,170.7122,23.28841L170.7122,23.35026Q170.7122,24.111980000000003,170.416,24.71745Q170.123,25.3229,169.5729,25.6615Q169.0228,26,168.3099,26Q167.2357,26,166.5684,25.2611Q165.9043,24.52214,165.9043,23.30469L165.9043,23.24284ZM166.8125,23.347009999999997Q166.8125,24.21289,167.2194,24.736980000000003Q167.62630000000001,25.2611,168.3099,25.2611Q169,25.2611,169.40359999999998,24.73047Q169.8105,24.19987,169.8105,23.24284Q169.8105,22.38672,169.3971,21.85612Q168.9837,21.32552,168.3001,21.32552Q167.6328,21.32552,167.2227,21.84961Q166.8125,22.3737,166.8125,23.347009999999997ZM173.51170000000002,24.74349L174.8203,20.58333L175.7415,20.58333L173.84699999999998,26L173.1601,26L171.2461,20.58333L172.1673,20.58333L173.51170000000002,24.74349ZM178.7526,26Q177.6784,26,177.00459999999998,25.3034Q176.33069999999998,24.60352,176.33069999999998,23.4349L176.33069999999998,23.27214Q176.33069999999998,22.49414,176.6302,21.88542Q176.9297,21.27344,177.4701,20.92839Q178.0104,20.58333,178.6387,20.58333Q179.67059999999998,20.58333,180.24020000000002,21.27018Q180.81310000000002,21.95703,180.81310000000002,23.236330000000002L180.81310000000002,23.61719L177.23239999999998,23.61719Q177.252,24.35286,177.68810000000002,24.808590000000002Q178.1276,25.2611,178.8014,25.2611Q179.2799,25.2611,179.612,25.0723Q179.94400000000002,24.880209999999998,180.1914,24.567709999999998L180.7448,24.99089Q180.08069999999998,26,178.7526,26ZM178.6387,21.32552Q178.0918,21.32552,177.7207,21.73242Q177.3496,22.139319999999998,177.26170000000002,22.875L179.9082,22.875L179.9082,22.80664Q179.8691,22.10026,179.5371,21.71289Q179.20510000000002,21.32552,178.6387,21.32552ZM181.5488,23.24935Q181.5488,22.04492,182.125,21.31576Q182.7012,20.58333,183.6322,20.58333Q184.5599,20.58333,185.1035,21.21159L185.1035,18.5L186.0052,18.5L186.0052,26L185.1751,26L185.1328,25.342399999999998Q184.5892,26,183.6224,26Q182.70440000000002,26,182.125,25.2578Q181.5488,24.51237,181.5488,23.31445L181.5488,23.24935ZM182.4505,23.35026Q182.4505,24.232419999999998,182.8216,24.733719999999998Q183.1927,25.2318,183.84699999999998,25.2318Q184.7064,25.2318,185.1035,24.473309999999998L185.1035,22.08724Q184.6966,21.35156,183.85680000000002,21.35156Q183.1927,21.35156,182.8216,21.85612Q182.4505,22.360680000000002,182.4505,23.35026Z" fill="#FFFFFF" fill-opacity="1"/></g><g style="opacity:0.6000000238418579;mix-blend-mode:passthrough"><path d="M3.06576,66.83268Q1.86133,66.4974,1.3112,66.00910999999999Q0.761072,65.51758,0.761072,64.79818Q0.761072,63.98112,1.43165,63.45052Q2.10547,62.916669999999996,3.17969,62.916669999999996Q3.91211,62.916669999999996,4.48503,63.19987Q5.05795,63.48307,5.3737,63.98112Q5.68946,64.47917,5.68946,65.07160999999999L4.74545,65.07160999999999Q4.74545,64.42708,4.33529,64.05925Q3.92513,63.68815,3.17969,63.68815Q2.48633,63.68815,2.09571,63.97786Q1.70834,64.26758,1.70834,64.78516Q1.70834,65.19857,2.07618,65.48503Q2.44727,65.76823,3.33269,66.00586Q4.2181,66.24349,4.71941,66.53646Q5.22071,66.82943,5.46159,67.22005Q5.70248,67.61068,5.70248,68.14128Q5.70248,68.98438,5.02865,69.4922Q4.35482,70,3.22852,70Q2.4961,70,1.86133,69.7201Q1.22657,69.4368,0.881515,68.94857Q0.536463,68.46029,0.536463,67.8418L1.48047,67.8418Q1.48047,68.48633,1.95573,68.86068Q2.43099,69.23179999999999,3.22852,69.23179999999999Q3.97071,69.23179999999999,4.36459,68.94206Q4.76172,68.65234,4.76172,68.15104Q4.76172,67.64974,4.39388,67.3763Q4.0293,67.10287,3.06576,66.83268ZM6.42513,67.24284Q6.42513,66.47461,6.72787,65.86263Q7.03386,65.25065000000001,7.57748,64.91862Q8.12435,64.58333,8.82097,64.58333Q9.9017,64.58333,10.5658,65.32227Q11.2331,66.0612,11.2331,67.28841L11.2331,67.35026Q11.2331,68.11198,10.9369,68.71745Q10.6439,69.3229,10.0938,69.6615Q9.54362,70,8.83073,70Q7.75651,70,7.0892,69.2611Q6.42513,68.52214000000001,6.42513,67.30469L6.42513,67.24284ZM7.33334,67.34701Q7.33334,68.21289,7.74024,68.73698Q8.14714,69.2611,8.83073,69.2611Q9.52084,69.2611,9.92448,68.73047Q10.3314,68.19987,10.3314,67.24284Q10.3314,66.38672,9.91797,65.85612Q9.50456,65.32552,8.82097,65.32552Q8.15365,65.32552,7.74349,65.84961Q7.33334,66.3737,7.33334,67.34701ZM14.4069,69.2611Q14.8919,69.2611,15.2533,68.96809999999999Q15.6146,68.67513,15.6537,68.23568L16.5065,68.23568Q16.4837,68.69141,16.194,69.1016Q15.9076,69.5117,15.4258,69.7559Q14.944,70,14.4069,70Q13.3294,70,12.6914,69.2871Q12.0534,68.57422,12.0534,67.3405L12.0534,67.19076Q12.0534,66.42904,12.3366,65.83659Q12.6198,65.24089000000001,13.1504,64.91211Q13.681,64.58333,14.4037,64.58333Q15.2923,64.58333,15.8783,65.11719Q16.4675,65.64779,16.5065,66.4974L15.6537,66.4974Q15.6146,65.98307,15.263,65.6543Q14.9147,65.32552,14.4037,65.32552Q13.7135,65.32552,13.3359,65.8138Q12.9583,66.30208,12.9583,67.22331L12.9583,67.39258Q12.9583,68.29102,13.3327,68.77604Q13.7103,69.2611,14.4069,69.2611ZM18.4792,70L17.5742,70L17.5742,64.58333L18.4792,64.58333L18.4792,70ZM17.5026,63.23568Q17.5026,63.01758,17.6361,62.86784Q17.7695,62.71484,18.0332,62.71484Q18.2969,62.71484,18.4336,62.86784Q18.5703,63.01758,18.5703,63.238929999999996Q18.5703,63.45703,18.4336,63.60352Q18.2969,63.75,18.0332,63.75Q17.7695,63.75,17.6361,63.60352Q17.5026,63.45703,17.5026,63.23568ZM23.2578,70Q23.1797,69.8177,23.1309,69.3522Q22.5026,70,21.627,70Q20.8457,70,20.3444,69.554Q19.8464,69.10810000000001,19.8464,68.42122Q19.8464,67.58789,20.4714,67.12891Q21.0996,66.66667,22.2389,66.66667L23.1178,66.66667L23.1178,66.2793Q23.1178,65.83659,22.8346,65.57617Q22.5514,65.3125,21.9981,65.3125Q21.5163,65.3125,21.1875,65.53711Q20.862,65.75846,20.862,66.07747L19.9538,66.07747Q19.9538,65.69987,20.2337,65.34831Q20.5137,64.99349,20.9954,64.78841Q21.4772,64.58333,22.0534,64.58333Q22.9648,64.58333,23.4824,65.04232Q24,65.5013,24.0195,66.30859L24.0195,68.75651Q24.0195,69.4889,24.2051,69.9219L24.2051,70L23.2578,70ZM21.7604,69.2122Q22.1836,69.2122,22.5645,68.99089000000001Q22.9453,68.76628,23.1178,68.4082L23.1178,67.30794L22.4082,67.30794Q20.7481,67.30794,20.7481,68.29427Q20.7481,68.72721,21.0313,68.97135Q21.3145,69.2122,21.7604,69.2122ZM26.3958,70L25.4909,70L25.4909,62.291669999999996L26.3958,62.291669999999996L26.3958,70ZM32.9681,65.49479Q32.763,65.45898,32.5221,65.45898Q31.6335,65.45898,31.3177,66.2207L31.3177,70L30.4128,70L30.4128,64.58333L31.2917,64.58333L31.3079,65.29622Q31.7507,64.58333,32.5677,64.58333Q32.8314,64.58333,32.9681,64.65169L32.9681,65.49479ZM35.9401,70Q34.8659,70,34.1921,69.3034Q33.5182,68.60352,33.5182,67.4349L33.5182,67.27214000000001Q33.5182,66.49414,33.8177,65.88542Q34.1172,65.27344,34.6576,64.92839000000001Q35.1979,64.58333,35.8262,64.58333Q36.8581,64.58333,37.4277,65.27018Q38.0007,65.95703,38.0007,67.23633L38.0007,67.61719L34.4199,67.61719Q34.4395,68.35285999999999,34.8757,68.80859Q35.3151,69.2611,35.9889,69.2611Q36.4674,69.2611,36.7995,69.0723Q37.1315,68.88021,37.3789,68.56771L37.9323,68.99089000000001Q37.2682,70,35.9401,70ZM35.8262,65.32552Q35.2793,65.32552,34.9082,65.73242Q34.5371,66.13932,34.4492,66.875L37.0957,66.875L37.0957,66.80664Q37.0566,66.10026,36.7246,65.71289Q36.3926,65.32552,35.8262,65.32552ZM42.0306,68.51237Q42.0306,68.15104,41.7539,67.95247Q41.4805,67.75391,40.7936,67.61068Q40.1068,67.46419,39.7031,67.26237Q39.3027,67.05729,39.1074,66.78059999999999Q38.9154,66.50065000000001,38.9154,66.11328Q38.9154,65.47201,39.4655,65.0293Q40.0156,64.58333,40.8685,64.58333Q41.7669,64.58333,42.3268,65.04883Q42.8867,65.51107,42.8867,66.23372L41.9785,66.23372Q41.9785,65.86263,41.6628,65.5957Q41.347,65.32552,40.8685,65.32552Q40.377,65.32552,40.097,65.53711Q39.8203,65.74544,39.8203,66.08398Q39.8203,66.403,40.0775,66.56576Q40.3379,66.72526,41.0117,66.875Q41.6888,67.02474,42.1087,67.23307Q42.5286,67.44141,42.7305,67.73438Q42.9356,68.02734,42.9356,68.45052Q42.9356,69.1536,42.3691,69.5768Q41.8027,70,40.8978,70Q40.263,70,39.7747,69.7754Q39.2865,69.5508,39.0098,69.1471Q38.7363,68.74349,38.7363,68.27474L39.638,68.27474Q39.6641,68.72721,40.0026,68.99414Q40.3411,69.2611,40.8978,69.2611Q41.4121,69.2611,41.7214,69.0592Q42.0306,68.85417,42.0306,68.51237ZM48.6256,67.35026Q48.6256,68.54167,48.0723,69.2708Q47.5221,70,46.5814,70Q45.6178,70,45.0677,69.3978L45.0677,72.0833L44.1628,72.0833L44.1628,64.58333L44.9896,64.58333L45.0319,65.26042Q45.5853,64.58333,46.5651,64.58333Q47.5189,64.58333,48.0723,65.29297Q48.6256,66.0026,48.6256,67.26888L48.6256,67.35026ZM47.724,67.24934999999999Q47.724,66.37044,47.3431,65.86263Q46.9622,65.35156,46.2982,65.35156Q45.4779,65.35156,45.0677,66.06771L45.0677,68.55143Q45.4714,69.2611,46.3079,69.2611Q46.9557,69.2611,47.3398,68.75651Q47.724,68.2487,47.724,67.24934999999999ZM51.9818,70Q50.9076,70,50.2337,69.3034Q49.5599,68.60352,49.5599,67.4349L49.5599,67.27214000000001Q49.5599,66.49414,49.8594,65.88542Q50.1589,65.27344,50.6992,64.92839000000001Q51.2396,64.58333,51.8678,64.58333Q52.8997,64.58333,53.4694,65.27018Q54.0423,65.95703,54.0423,67.23633L54.0423,67.61719L50.4616,67.61719Q50.4811,68.35285999999999,50.9173,68.80859Q51.3568,69.2611,52.0306,69.2611Q52.5091,69.2611,52.8411,69.0723Q53.1732,68.88021,53.4206,68.56771L53.974,68.99089000000001Q53.3099,70,51.9818,70ZM51.8678,65.32552Q51.321,65.32552,50.9499,65.73242Q50.5788,66.13932,50.4909,66.875L53.1374,66.875L53.1374,66.80664Q53.0983,66.10026,52.7663,65.71289Q52.4342,65.32552,51.8678,65.32552ZM57.1152,69.2611Q57.6003,69.2611,57.9616,68.96809999999999Q58.3229,68.67513,58.362,68.23568L59.2148,68.23568Q59.1921,68.69141,58.9023,69.1016Q58.6159,69.5117,58.1341,69.7559Q57.6523,70,57.1152,70Q56.0378,70,55.3997,69.2871Q54.7617,68.57422,54.7617,67.3405L54.7617,67.19076Q54.7617,66.42904,55.0449,65.83659Q55.3281,65.24089000000001,55.8587,64.91211Q56.3893,64.58333,57.112,64.58333Q58.0007,64.58333,58.5866,65.11719Q59.1758,65.64779,59.2148,66.4974L58.362,66.4974Q58.3229,65.98307,57.9714,65.6543Q57.623,65.32552,57.112,65.32552Q56.4219,65.32552,56.0443,65.8138Q55.6667,66.30208,55.6667,67.22331L55.6667,67.39258Q55.6667,68.29102,56.041,68.77604Q56.4186,69.2611,57.1152,69.2611ZM61.4316,63.333330000000004L61.4316,64.58333L62.418,64.58333L62.418,65.2832L61.4316,65.2832L61.4316,68.58724Q61.4316,68.9095,61.5618,69.069Q61.6953,69.2285,62.0111,69.2285Q62.1673,69.2285,62.4408,69.1699L62.4408,69.9023Q62.0859,70,61.7474,70Q61.1419,70,60.8327,69.6322Q60.5267,69.2611,60.5267,68.58398L60.5267,65.2832L59.5664,65.2832L59.5664,64.58333L60.5267,64.58333L60.5267,63.333330000000004L61.4316,63.333330000000004Z" fill="#FFFFFF" fill-opacity="1"/></g><g style="opacity:0.6000000238418579;mix-blend-mode:passthrough"><path d="M112.28386,67.64648Q112.15365,68.77279,111.45052,69.388Q110.75065000000001,70,109.58854,70Q108.32878,70,107.57031,69.1243Q106.81185,68.2487,106.81185,66.78059999999999L106.81185,66.11654Q106.81185,65.15625,107.16341,64.42708Q107.51823,63.697919999999996,108.16602,63.30729Q108.81706,62.916669999999996,109.67318,62.916669999999996Q110.80599,62.916669999999996,111.48958,63.54818Q112.17318,64.17969,112.28386,65.29948L111.34309999999999,65.29948Q111.21940000000001,64.44987,110.8125,64.06901Q110.40559999999999,63.68815,109.67318,63.68815Q108.77474,63.68815,108.26367,64.32617Q107.75261,64.96419,107.75261,66.14258L107.75261,66.80339000000001Q107.75261,67.91667,108.23438,68.57422Q108.7194,69.23179999999999,109.58854,69.23179999999999Q110.36979,69.23179999999999,110.78646,68.88021Q111.20638,68.52539,111.34309999999999,67.64648L112.28386,67.64648ZM114.35417,70L113.44922,70L113.44922,62.291669999999996L114.35417,62.291669999999996L114.35417,70ZM116.8542,70L115.94922,70L115.94922,64.58333L116.8542,64.58333L116.8542,70ZM115.87761,63.23568Q115.87761,63.01758,116.0111,62.86784Q116.1445,62.71484,116.4082,62.71484Q116.6719,62.71484,116.8086,62.86784Q116.9453,63.01758,116.9453,63.238929999999996Q116.9453,63.45703,116.8086,63.60352Q116.6719,63.75,116.4082,63.75Q116.1445,63.75,116.0111,63.60352Q115.87761,63.45703,115.87761,63.23568ZM120.5651,70Q119.4909,70,118.8171,69.3034Q118.14320000000001,68.60352,118.14320000000001,67.4349L118.14320000000001,67.27214000000001Q118.14320000000001,66.49414,118.4427,65.88542Q118.7422,65.27344,119.2826,64.92839000000001Q119.8229,64.58333,120.4512,64.58333Q121.48310000000001,64.58333,122.0527,65.27018Q122.6257,65.95703,122.6257,67.23633L122.6257,67.61719L119.0449,67.61719Q119.0645,68.35285999999999,119.5007,68.80859Q119.9401,69.2611,120.6139,69.2611Q121.0924,69.2611,121.4245,69.0723Q121.7565,68.88021,122.0039,68.56771L122.5573,68.99089000000001Q121.89320000000001,70,120.5651,70ZM120.4512,65.32552Q119.9043,65.32552,119.5332,65.73242Q119.1621,66.13932,119.0742,66.875L121.7207,66.875L121.7207,66.80664Q121.6816,66.10026,121.3496,65.71289Q121.0176,65.32552,120.4512,65.32552ZM124.4355,64.58333L124.4648,65.35156Q125.0703,64.58333,126.0469,64.58333Q127.7201,64.58333,127.7363,66.48438L127.7363,70L126.8314,70L126.8314,66.47785999999999Q126.8281,65.90169,126.571,65.62826Q126.3138,65.35156,125.7734,65.35156Q125.334,65.35156,125.002,65.58919Q124.6699,65.82357,124.4844,66.20768L124.4844,70L123.57939999999999,70L123.57939999999999,64.58333L124.4355,64.58333ZM130.2233,63.333330000000004L130.2233,64.58333L131.2096,64.58333L131.2096,65.2832L130.2233,65.2832L130.2233,68.58724Q130.2233,68.9095,130.3535,69.069Q130.487,69.2285,130.80270000000002,69.2285Q130.959,69.2285,131.23239999999998,69.1699L131.23239999999998,69.9023Q130.8776,70,130.5391,70Q129.9336,70,129.6243,69.6322Q129.3184,69.2611,129.3184,68.58398L129.3184,65.2832L128.3581,65.2832L128.3581,64.58333L129.3184,64.58333L129.3184,63.333330000000004L130.2233,63.333330000000004ZM136.0566,63.333330000000004L136.0566,64.58333L137.043,64.58333L137.043,65.2832L136.0566,65.2832L136.0566,68.58724Q136.0566,68.9095,136.1868,69.069Q136.3203,69.2285,136.6361,69.2285Q136.7923,69.2285,137.0658,69.1699L137.0658,69.9023Q136.7109,70,136.3724,70Q135.7669,70,135.4577,69.6322Q135.1517,69.2611,135.1517,68.58398L135.1517,65.2832L134.1914,65.2832L134.1914,64.58333L135.1517,64.58333L135.1517,63.333330000000004L136.0566,63.333330000000004ZM140.7181,65.49479Q140.513,65.45898,140.2721,65.45898Q139.3835,65.45898,139.0677,66.2207L139.0677,70L138.1628,70L138.1628,64.58333L139.0417,64.58333L139.0579,65.29622Q139.5007,64.58333,140.3177,64.58333Q140.5814,64.58333,140.7181,64.65169L140.7181,65.49479ZM144.7578,69.375Q144.2305,70,143.2116,70Q142.36520000000002,70,141.9225,69.5052Q141.4831,69.0104,141.4766,68.04362L141.4766,64.58333L142.38150000000002,64.58333L142.38150000000002,68.02083Q142.38150000000002,69.23179999999999,143.3581,69.23179999999999Q144.3932,69.23179999999999,144.735,68.45378L144.735,64.58333L145.6367,64.58333L145.6367,70L144.7773,70L144.7578,69.375ZM149.9889,68.51237Q149.9889,68.15104,149.7122,67.95247Q149.43880000000001,67.75391,148.752,67.61068Q148.0651,67.46419,147.6615,67.26237Q147.2611,67.05729,147.0658,66.78059999999999Q146.87369999999999,66.50065000000001,146.87369999999999,66.11328Q146.87369999999999,65.47201,147.4238,65.0293Q147.974,64.58333,148.8268,64.58333Q149.7253,64.58333,150.2852,65.04883Q150.8451,65.51107,150.8451,66.23372L149.9369,66.23372Q149.9369,65.86263,149.6211,65.5957Q149.3053,65.32552,148.8268,65.32552Q148.3353,65.32552,148.0553,65.53711Q147.77859999999998,65.74544,147.77859999999998,66.08398Q147.77859999999998,66.403,148.0358,66.56576Q148.2962,66.72526,148.9701,66.875Q149.6471,67.02474,150.0671,67.23307Q150.487,67.44141,150.68880000000001,67.73438Q150.8939,68.02734,150.8939,68.45052Q150.8939,69.1536,150.3275,69.5768Q149.7611,70,148.8561,70Q148.22140000000002,70,147.7331,69.7754Q147.2448,69.5508,146.9681,69.1471Q146.6947,68.74349,146.6947,68.27474L147.59640000000002,68.27474Q147.6224,68.72721,147.9609,68.99414Q148.2995,69.2611,148.8561,69.2611Q149.3704,69.2611,149.6797,69.0592Q149.9889,68.85417,149.9889,68.51237ZM153.3483,63.333330000000004L153.3483,64.58333L154.3346,64.58333L154.3346,65.2832L153.3483,65.2832L153.3483,68.58724Q153.3483,68.9095,153.4785,69.069Q153.612,69.2285,153.92770000000002,69.2285Q154.084,69.2285,154.35739999999998,69.1699L154.35739999999998,69.9023Q154.0026,70,153.6641,70Q153.0586,70,152.7493,69.6322Q152.4434,69.2611,152.4434,68.58398L152.4434,65.2832L151.4831,65.2832L151.4831,64.58333L152.4434,64.58333L152.4434,63.333330000000004L153.3483,63.333330000000004Z" fill="#FFFFFF" fill-opacity="1"/></g><g><g><path d="M6.31319,14.565C6.17604,14.565,6.03889,14.509,5.94031,14.397C4.64382,12.9391,2.550139,12.9241,2.505137,12.9241L2.502994,12.9241C2.228694,12.9241,2.00582605,12.7023,2.00368299,12.4266C2.00153992,12.151,2.222265,11.9249,2.496565,11.9227C2.599427,11.9162,5.07455,11.9206,6.68392,13.7295C6.86821,13.9362,6.84893,14.2528,6.6432,14.4358C6.55105,14.5219,6.43105,14.565,6.31319,14.565ZM9.65407,14.5629C9.53192,14.5629,9.411909999999999,14.5198,9.31548,14.4293C9.11404,14.242,9.10118,13.9254,9.28762,13.723C10.9527,11.9162,13.3764,11.9184,13.4728,11.9227C13.7493,11.9249,13.97,12.151,13.9657,12.4288C13.9636,12.7044,13.7407,12.9241,13.4685,12.9241L13.4643,12.9241C13.4235,12.9241,11.37059,12.937,10.01837,14.4035C9.92194,14.509,9.78693,14.5629,9.65407,14.5629ZM8.77545,12.0175L7.19609,12.0175C7.1468,12.0175,7.09751,12.011,7.05037,11.9959C5.366,11.7784,3.93235,10.79645,3.0108800000000002,9.22012C1.9393941,7.38968,1.692953,5.01873,2.400132,3.31965C2.477278,3.13661,2.653002,3.01601,2.850155,3.01171L3.00016,3.00955C3.9495,3.00955,4.8345400000000005,3.19044,5.642440000000001,3.54576C6.22533,2.4755000000000003,6.88964,1.663643,7.62468,1.125279C7.66325,1.0908237,7.70826,1.0628287,7.75754,1.0412942C7.91184,0.974537,8.08971,0.9896112,8.23114,1.0800564C8.25471,1.0951307,8.27829,1.114512,8.29972,1.133893C9.034749999999999,1.676564,9.681930000000001,2.4776499999999997,10.2691,3.56945C11.092,3.1969,11.99847,3.0074,12.9714,3.0074L13.1235,3.00955C13.3207,3.01386,13.4964,3.13445,13.5736,3.3175C14.2807,5.01657,14.0343,7.38753,12.9628,9.21797C12.0392,10.79214,10.60769,11.7763,8.92332,11.9938C8.87618,12.0088,8.826889999999999,12.0175,8.77545,12.0175ZM7.98255,15C7.70826,15,7.48539,14.776,7.48539,14.5004L7.48539,11.5157C7.48539,11.2379,7.70826,11.0161,7.98255,11.0161C8.25686,11.0161,8.47972,11.2401,8.47972,11.5157L8.47972,14.4982C8.47972,14.776,8.25686,15,7.98255,15Z" fill="#FFFFFF" fill-opacity="1"/></g></g><g><g><path d="M7.5,55.0435C7.77014,55.0435,7.98913,55.2625,7.98913,55.5326L7.98913,56.5109C7.98913,56.781,7.77014,57,7.5,57C7.22986,57,7.01087,56.781,7.01087,56.5109L7.01087,55.5326C7.01087,55.2625,7.22986,55.0435,7.5,55.0435ZM3.58044,53.4196C3.7716,53.6106,3.7716,53.920500000000004,3.58044,54.1115L2.88848,54.803200000000004C2.69611,54.9852,2.39381,54.9811,2.20649,54.7938C2.01917,54.6066,2.0149,54.3043,2.19685,54.1118L2.88815,53.4199C3.07919,53.2287,3.38907,53.2287,3.58011,53.4199L3.58044,53.4196ZM12.1115,53.4196L12.8032,54.1115C12.9852,54.3039,12.9811,54.6062,12.7938,54.7935C12.6066,54.9808,12.3043,54.9851,12.1118,54.803200000000004L11.4199,54.1118C11.2286,53.9209,11.2284,53.611000000000004,11.4195,53.4198C11.6106,53.2286,11.9205,53.2287,12.1115,53.4199L12.1115,53.4196ZM7.5,44.93478C10.0213,44.93478,12.0652,46.9787,12.0652,49.5C12.0652,52.0213,10.0213,54.065200000000004,7.5,54.065200000000004C4.9787,54.065200000000004,2.93478,52.0213,2.93478,49.5C2.93478,46.9787,4.9787,44.93478,7.5,44.93478ZM1.46739,49.01087C1.73753,49.01087,1.95652,49.22986,1.95652,49.5C1.95652,49.77014,1.73753,49.98913,1.46739,49.98913L0.48913,49.98913C0.218991,49.98913,0,49.77014,0,49.5C0,49.22986,0.218991,49.01087,0.48913,49.01087L1.46739,49.01087ZM14.5109,49.01087C14.781,49.01087,15,49.22986,15,49.5C15,49.77014,14.781,49.98913,14.5109,49.98913L13.5326,49.98913C13.2625,49.98913,13.0435,49.77014,13.0435,49.5C13.0435,49.22986,13.2625,49.01087,13.5326,49.01087L14.5109,49.01087ZM2.88848,44.19685L3.58011,44.88815C3.77141,45.0791,3.77159,45.38901,3.58051,45.58018C3.38943,45.77136,3.07952,45.77132,2.88848,45.58011L2.19685,44.88848C2.01481,44.69611,2.01894,44.39381,2.20617,44.20649C2.3934,44.01918,2.6957,44.0149,2.88815,44.19685L2.88848,44.19685ZM12.8032,44.19685C12.9939,44.38782,12.9939,44.69718,12.8032,44.88815L12.1118,45.58011C11.9209,45.7713,11.6111,45.77143,11.4199,45.58039C11.2288,45.389359999999996,11.2288,45.07954,11.4199,44.88848L12.1115,44.19685C12.3025,44.0059,12.6121,44.0059,12.8032,44.19685ZM7.5,42C7.77014,42,7.98913,42.218991,7.98913,42.48913L7.98913,43.46739C7.98913,43.73753,7.77014,43.95652,7.5,43.95652C7.22986,43.95652,7.01087,43.73753,7.01087,43.46739L7.01087,42.48913C7.01087,42.218991,7.22986,41.9999999708456,7.5,42Z" fill="#FFFFFF" fill-opacity="1"/></g></g><g><g><path d="M110.68302,49.66831Q112.34421,49.66831,114.0054,47.83539L114.26769,47.57355L117.4152,50.89026C118.0272,50.27929,118.989,49.14462,118.989,47.74811C119.0764,46.78801,118.6392,45.91519,117.8524,45.12965C115.4917,42.68576,113.04366,44.955088,112.95622,45.04237L109.10926,48.970060000000004C109.54641,49.40647,110.071,49.66831,110.68302,49.66831ZM108.9344,51.15211C109.02183,51.06483,109.02183,50.97754,109.02183,50.89026C109.02183,50.7157,108.9344,50.62841,108.84697,50.54113C108.6721,50.36657,108.49724,50.36657,108.32238,50.36657C108.23495,50.36657,108.06009,50.45385,107.97266,50.54113L106.57376,52.286770000000004C106.3989,52.54862,106.3989,52.89775,106.66119,53.07231C106.83605,53.246880000000004,107.09834,53.246880000000004,107.27321,53.07231Q107.27321,53.07231,107.27321,52.98503L108.6721,51.23939C108.75953,51.23939,108.84697,51.23939,108.9344,51.15211ZM110.15843,52.37406C110.15843,52.286770000000004,110.24586,52.11221,110.24586,52.02493C110.24586,51.85037,110.15843,51.76308,110.071,51.6758C109.89614,51.50124,109.80871,51.50124,109.63385,51.50124C109.54641,51.50124,109.45898,51.50124,109.37155,51.58852Q109.37155,51.58852,109.37155,51.6758L107.97266,53.421440000000004C107.97266,53.50872,107.88522,53.50872,107.79779,53.596000000000004C107.71036,53.85785,107.71036,54.1197,107.97266,54.2943C108.06009,54.3815,108.23495,54.3815,108.40981,54.3815C108.49724,54.3815,108.58467,54.2943,108.6721,54.2943L110.071,52.54862C110.071,52.46134,110.071,52.37406,110.15843,52.37406ZM111.38247,53.50872C111.4699,53.246880000000004,111.4699,52.98503,111.2076,52.81046C111.12017,52.72318,111.03274,52.72318,110.85788,52.72318Q110.85788,52.72318,110.77045,52.72318C110.68302,52.72318,110.59559,52.81046,110.50815,52.81046L109.10926,54.5561L109.02183,54.6434C108.9344,54.7307,108.9344,54.9052,108.9344,54.9925C108.9344,55.1671,109.02183,55.254400000000004,109.10926,55.3416C109.19669,55.4289,109.37155,55.5162,109.54641,55.4289C109.63385,55.4289,109.80871,55.3416,109.89614,55.254400000000004Q109.89614,55.1671,109.98357,55.1671L111.38247,53.50872ZM112.86879,54.207C112.86879,54.0324,112.78136,53.94513,112.69393,53.85785C112.6065,53.77057,112.43164,53.77057,112.34421,53.77057C112.16935,53.77057,112.08191,53.85785,111.99448,53.94513Q111.99448,54.0324,111.90705,54.0324L110.50816,55.7781Q110.50816,55.7781,110.50816,55.8653C110.42073,55.952600000000004,110.42073,56.0399,110.42073,56.1272C110.42073,56.3017,110.50816,56.388999999999996,110.59559,56.4763C110.85788,56.6509,111.2076,56.6509,111.38247,56.388999999999996L112.78136,54.6434C112.78136,54.4688,112.86879,54.3815,112.86879,54.207ZM112.86879,55.4289L112.08191,56.388999999999996L112.51907,56.8254C112.6065,56.9127,112.78136,57,112.95622,57C113.13109,57,113.30595,56.9127,113.39338000000001,56.8254C113.48081,56.7382,113.56824,56.5636,113.56824,56.388999999999996C113.56824,56.2145,113.48081,56.0399,113.39338000000001,55.952600000000004L112.86879,55.4289ZM115.3169,49.66831Q115.3169,49.58103,115.3169,49.66831L114.18026,48.44637C113.65567,49.057339999999996,112.25678,50.27929,110.68302,50.27929C109.80871,50.27929,109.02183,49.93016,108.40981,49.14462L108.23495,48.88278L111.4699,45.65334L111.12017,45.30422Q109.98357,44.16955,108.49724,44.16955C107.62293,44.16955,106.74862,44.518678,105.961741,45.30422C105.262293,45.91519,105,46.70073,105,47.48626C105,49.057339999999996,106.31147,50.45385,106.74862,50.97754L107.44807,50.10472C107.62293,49.84288,107.97266,49.66831,108.23495,49.66831C108.58467,49.66831,108.84697,49.7556,109.10926,49.93016C109.37155,50.10472,109.54641,50.45385,109.54641,50.7157L109.54641,50.80298C109.80871,50.80298,110.15843,50.89026,110.33329,51.06483C110.59559,51.23939,110.77045,51.58852,110.77045,51.85037L110.77045,51.93765C111.03274,51.93765,111.38247,52.02493,111.55733000000001,52.19949C111.81962,52.37406,111.99448,52.72319,111.99448,52.98503C112.34421,52.89775,112.69393,52.98503,112.95622,53.246880000000004C113.21852,53.421440000000004,113.39338000000001,53.77057,113.39338000000001,54.0324C113.39338000000001,54.2943,113.39338000000001,54.5561,113.21852,54.818L113.83054,55.4289C113.91797,55.5162,114.09282999999999,55.6035,114.26769,55.6035C114.44255,55.6035,114.61741,55.5162,114.70485,55.4289C114.79227,55.3416,114.87971,55.1671,114.87971,54.9925C114.87971,54.818,114.79227,54.6434,114.70485,54.5561Q114.70485,54.5561,114.61741,54.4688L112.43164,52.19949C112.34421,52.02493,112.34421,51.85037,112.43164,51.76308C112.51907,51.6758,112.69393,51.6758,112.86879,51.76308Q112.95622,51.76308,112.95622,51.85037L115.142,54.1197C115.4043,54.2943,115.754,54.2943,116.0163,54.1197C116.2786,53.94513,116.2786,53.596000000000004,116.1037,53.33416L116.0163,53.246880000000004L113.83054,50.97754C113.7431,50.80298,113.7431,50.62842,113.83054,50.54113C113.91797,50.45385,114.09282999999999,50.45385,114.18026,50.45385C114.26769,50.45385,114.26769,50.45385,114.35512,50.54113L116.5409,52.81047Q116.5409,52.89775,116.6283,52.89775C116.8906,53.07231,117.1529,53.07231,117.4152,52.81047C117.5026,52.72318,117.5901,52.54862,117.5901,52.37406C117.5901,52.19949,117.5026,52.02493,117.4152,51.93765L115.3169,49.66831Z" fill="#FFFFFF" fill-opacity="1"/></g></g><g><g><path d="M111.95012,9.36815C111.88202,8.68384,112.06888000000001,7.9497,112.55371,7.49377C113.45411,6.64702,114.71277,6.67193,115.5374,7.49659L115.5816,7.54077C115.6206,7.57981,115.6838,7.57981,115.7228,7.54077L115.775,7.48862C116.5244,6.73936,117.6943,6.6809,118.5212,7.29728C118.7716,6.748,118.9249,6.21899,118.9756,5.71124C119.1043,4.42101,118.7238,3.06153,117.8345,2.17225C116.2829,0.6205959999999999,113.76969,0.618271,112.22102,2.1669400000000003L112.12286,2.2651C112.04944,2.3385100000000003,111.93052,2.3385100000000003,111.85727,2.2651L111.77439,2.1820500000000003C110.22273,0.630396,107.85505,0.583557,106.16088,2.1767399999999997C105.248857,3.03429,104.897401,4.4157,105.0254596,5.70293C105.237064,7.82928,107.18021,10.30592,110.85489,13.1324C111.53056,13.6521,112.47166,13.6517,113.147,13.1312C113.44497,12.9016,113.72717,12.6751,114.00239,12.4504C112.72545,11.3032,112.04047,10.27552,111.95012,9.36815Z" fill="#FFFFFF" fill-opacity="1"/></g><g><path d="M113.0692771871643,8.02097080609131C113.80109418716431,7.332673806091309,114.82407418716431,7.352937806091308,115.49442418716431,8.02329680609131L115.5303041871643,8.059172806091308C115.56202418716431,8.090896806091308,115.6133541871643,8.090896806091308,115.64507418716431,8.059172806091308L115.68742418716431,8.016818806091308C116.3564541871643,7.347788806091309,117.4422241871643,7.348785806091309,118.11257418716431,8.019143806091309C118.4967541871643,8.40332180609131,118.66118418716431,8.990632806091309,118.60554418716431,9.548042806091308C118.5143641871643,10.461572806091308,117.6749141871643,11.530052806091309,116.0873841871643,12.75367280609131C115.79572418716431,12.978572806091309,115.38912418716431,12.978732806091308,115.09712418716431,12.754172806091308C113.50959418716431,11.53304280609131,112.67015118716431,10.463232806091309,112.5786326871643,9.544562806091308C112.52348908716431,8.988312806091308,112.67530018716431,8.39152980609131,113.0692771871643,8.02097080609131Z" fill="#FFFFFF" fill-opacity="1"/></g></g></g></svg>