<svg xmlns="http://www.w3.org/2000/svg" width="18" height="18" viewBox="0 0 18 18">
  <g id="组_27314" data-name="组 27314" transform="translate(-1694 -15)">
    <rect id="矩形_22992" data-name="矩形 22992" width="18" height="18" transform="translate(1694 15)" fill="#fff" opacity="0"/>
    <path id="fill" d="M16.074,14.033h-.5V7.727a5.428,5.428,0,0,0-5-5.139V1.867a.838.838,0,0,0-1.666,0v.721a5.428,5.428,0,0,0-5,5.139v6.305h-.5a.632.632,0,0,0-.666.593v.593a.159.159,0,0,0,.167.148h4.5a2.217,2.217,0,0,0,2.332,2.077,2.217,2.217,0,0,0,2.332-2.077h4.5a.159.159,0,0,0,.167-.148v-.593A.632.632,0,0,0,16.074,14.033ZM9.745,16.258a.95.95,0,0,1-1-.89h2A.95.95,0,0,1,9.745,16.258Zm-4.33-2.225V7.727A3.632,3.632,0,0,1,6.683,5,4.582,4.582,0,0,1,9.745,3.87,4.582,4.582,0,0,1,12.808,5a3.632,3.632,0,0,1,1.268,2.728v6.305Z" transform="translate(1693.668 14.875)"/>
  </g>
</svg>
