<svg xmlns="http://www.w3.org/2000/svg" width="16" height="16" viewBox="0 0 16 16">
  <g id="组_22931" data-name="组 22931" transform="translate(-1152 -536)">
    <g id="矩形_22977" data-name="矩形 22977" transform="translate(1152 536)" fill="#fff" stroke="#707070" stroke-width="1" opacity="0">
      <rect width="16" height="16" stroke="none"/>
      <rect x="0.5" y="0.5" width="15" height="15" fill="none"/>
    </g>
    <path id="fill" d="M13,7.25H11.938V3.75a2,2,0,0,0-2-2H6.063a2,2,0,0,0-2,2v3.5H3a.5.5,0,0,0-.5.5v6a.5.5,0,0,0,.5.5H13a.5.5,0,0,0,.5-.5v-6A.5.5,0,0,0,13,7.25ZM5.188,3.75a.876.876,0,0,1,.875-.875H9.938a.876.876,0,0,1,.875.875v3.5H5.188Zm7.188,9.375H3.625V8.375h8.75ZM7.563,10.953v.828a.125.125,0,0,0,.125.125h.625a.125.125,0,0,0,.125-.125v-.828a.75.75,0,1,0-.875,0Z" transform="translate(1151.63 536)" fill="#bbc0c9" fill-rule="evenodd"/>
  </g>
</svg>
