<svg xmlns="http://www.w3.org/2000/svg" width="14" height="14" viewBox="0 0 14 14">
  <g id="组_27312" data-name="组 27312" transform="translate(14919.327 -10885)">
    <rect id="Rectangle-49" width="14" height="14" transform="translate(-14919.327 10885)" fill="rgba(0,0,0,0)"/>
    <path id="路径_39592" data-name="路径 39592" d="M101.736,111.392a.609.609,0,0,1-.609-.609V108.29h-1.87a.457.457,0,0,1-.457-.457v-4.675a1.643,1.643,0,0,1,1.643-1.643h.684V99.409a.609.609,0,0,1,.609-.609h6.719a.609.609,0,0,1,.609.609v2.106h.684a1.643,1.643,0,0,1,1.643,1.643v4.675a.457.457,0,0,1-.457.457h-1.87v2.493a.609.609,0,0,1-.609.609Zm6.371-.958v-3.306h-6.022v3.306Zm2.327-3.1v-4.173a.684.684,0,0,0-.684-.684h-9.307a.684.684,0,0,0-.684.684v4.173h1.368V106.26a.092.092,0,0,1,.091-.091h7.756a.092.092,0,0,1,.091.091v1.071Zm-2.327-5.816V99.758h-6.022v1.757Zm-6.5,2.9a.478.478,0,1,1,0-.957H105.1a.478.478,0,1,1,0,.957Z" transform="translate(-15017.423 10786.904)" fill="#1062bd"/>
  </g>
</svg>
