<svg xmlns="http://www.w3.org/2000/svg" xmlns:xlink="http://www.w3.org/1999/xlink" fill="none" version="1.1" width="36" height="36" viewBox="0 0 36 36"><defs><clipPath id="master_svg0_116_7749"><rect x="0" y="0" width="36" height="36" rx="0"/></clipPath></defs><g style="mix-blend-mode:passthrough" clip-path="url(#master_svg0_116_7749)"><g><g><rect x="0" y="0" width="36" height="36" rx="0" fill="#FFFFFF" fill-opacity="0.009999999776482582"/></g><g><path d="M3.75,5.25C3.75,4.00736,4.75736,3,6,3L24,3C25.2427,3,26.25,4.00736,26.25,5.25L26.25,33L6,33C4.75736,33,3.75,31.9927,3.75,30.75L3.75,5.25Z" fill="#3662EC" fill-opacity="1"/><path d="M3.25,30.75L3.25,5.25Q3.25,4.11092,4.055458,3.305458Q4.86092,2.5,6,2.5L24,2.5Q25.1391,2.5,25.9446,3.30546Q26.75,4.1109100000000005,26.75,5.25L26.75,33Q26.75,33.0492,26.7404,33.0975Q26.7308,33.1458,26.7119,33.1913Q26.6931,33.2368,26.6657,33.2778Q26.6384,33.3187,26.6036,33.3536Q26.5687,33.388400000000004,26.5278,33.4157Q26.4868,33.4431,26.4413,33.4619Q26.3958,33.4808,26.3475,33.4904Q26.2992,33.5,26.25,33.5L6,33.5Q4.8609100000000005,33.5,4.05546,32.6946Q3.25,31.8891,3.25,30.75ZM4.25,30.75Q4.25,32.5,6,32.5L26.25,32.5L26.25,33L25.75,33L25.75,5.25Q25.75,3.5,24,3.5L6,3.5Q4.25,3.5,4.25,5.25L4.25,30.75Z" fill="#333333" fill-opacity="1"/></g><g><path d="M25.75,33L25.75,18Q25.75,16,27.75,16L30.75,16Q32.75,16,32.75,18L32.75,30.75Q32.75,31.8891,31.94456,32.6946Q31.13911,33.5,30,33.5L26.25,33.5Q26.2007543,33.5,26.1524549,33.4904Q26.104155,33.4808,26.058658,33.4619Q26.013161,33.4431,25.972215,33.4157Q25.931269,33.388400000000004,25.896447,33.3536Q25.861625,33.3187,25.834265,33.2778Q25.806906,33.2368,25.78806,33.1913Q25.769215,33.1458,25.759607,33.0975Q25.75,33.0492,25.75,33ZM26.75,33L26.25,33L26.25,32.5L30,32.5Q31.75,32.5,31.75,30.75L31.75,18Q31.75,17,30.75,17L27.75,17Q26.75,17,26.75,18L26.75,33Z" fill="#333333" fill-opacity="1"/></g><g><path d="M14.25,9.5L8.25,9.5Q8.2007543,9.5,8.1524549,9.490393Q8.104155,9.480785000000001,8.058658,9.46194Q8.013161,9.443094,7.972215,9.415735Q7.931269,9.388375,7.896447,9.353553Q7.861625,9.318731,7.834265,9.277785Q7.806906,9.236839,7.78806,9.191342Q7.769215,9.145845,7.759607,9.0975451Q7.75,9.0492457,7.75,9Q7.75,8.9507543,7.759607,8.9024549Q7.769215,8.854155,7.78806,8.808658Q7.806906,8.763161,7.834265,8.722215Q7.861625,8.681269,7.896447,8.646447Q7.931269,8.611625,7.972215,8.584265Q8.013161,8.556906,8.058658,8.53806Q8.104155,8.519214999999999,8.1524549,8.509607Q8.2007543,8.5,8.25,8.5L14.25,8.5Q14.29925,8.5,14.34755,8.509607Q14.39584,8.519214999999999,14.44134,8.53806Q14.48684,8.556906,14.52778,8.584265Q14.56873,8.611625,14.60355,8.646447Q14.63838,8.681269,14.66574,8.722215Q14.69309,8.763161,14.71194,8.808658Q14.730789999999999,8.854155,14.74039,8.9024549Q14.75,8.9507543,14.75,9Q14.75,9.0492457,14.74039,9.0975451Q14.730789999999999,9.145845,14.71194,9.191342Q14.69309,9.236839,14.66574,9.277785Q14.63838,9.318731,14.60355,9.353553Q14.56873,9.388375,14.52778,9.415735Q14.48684,9.443094,14.44134,9.46194Q14.39584,9.480785000000001,14.34755,9.490393Q14.29925,9.5,14.25,9.5ZM14.75,9Q14.75,9.0492457,14.74039,9.0975451Q14.730789999999999,9.145845,14.71194,9.191342Q14.69309,9.236839,14.66574,9.277785Q14.63838,9.318731,14.60355,9.353553Q14.56873,9.388375,14.52778,9.415735Q14.48684,9.443094,14.44134,9.46194Q14.39584,9.480785000000001,14.34755,9.490393Q14.29925,9.5,14.25,9.5Q14.200759999999999,9.5,14.15246,9.490393Q14.10416,9.480785000000001,14.05866,9.46194Q14.01316,9.443094,13.97222,9.415735Q13.93127,9.388375,13.89645,9.353553Q13.86163,9.318731,13.83427,9.277785Q13.80691,9.236839,13.78806,9.191342Q13.769210000000001,9.145845,13.75961,9.0975451Q13.75,9.0492457,13.75,9Q13.75,8.9507543,13.75961,8.9024549Q13.769210000000001,8.854155,13.78806,8.808658Q13.80691,8.763161,13.83427,8.722215Q13.86163,8.681269,13.89645,8.646447Q13.93127,8.611625,13.97222,8.584265Q14.01316,8.556906,14.05866,8.53806Q14.10416,8.519214999999999,14.15246,8.509607Q14.200759999999999,8.5,14.25,8.5Q14.29925,8.5,14.34755,8.509607Q14.39584,8.519214999999999,14.44134,8.53806Q14.48684,8.556906,14.52778,8.584265Q14.56873,8.611625,14.60355,8.646447Q14.63838,8.681269,14.66574,8.722215Q14.69309,8.763161,14.71194,8.808658Q14.730789999999999,8.854155,14.74039,8.9024549Q14.75,8.9507543,14.75,9ZM8.75,9Q8.75,9.0492457,8.740393,9.0975451Q8.730785000000001,9.145845,8.71194,9.191342Q8.693094,9.236839,8.665735,9.277785Q8.638375,9.318731,8.603553,9.353553Q8.568731,9.388375,8.527785,9.415735Q8.486839,9.443094,8.441342,9.46194Q8.395845,9.480785000000001,8.3475451,9.490393Q8.2992457,9.5,8.25,9.5Q8.2007543,9.5,8.1524549,9.490393Q8.104155,9.480785000000001,8.058658,9.46194Q8.013161,9.443094,7.972215,9.415735Q7.931269,9.388375,7.896447,9.353553Q7.861625,9.318731,7.834265,9.277785Q7.806906,9.236839,7.78806,9.191342Q7.769215,9.145845,7.759607,9.0975451Q7.75,9.0492457,7.75,9Q7.75,8.9507543,7.759607,8.9024549Q7.769215,8.854155,7.78806,8.808658Q7.806906,8.763161,7.834265,8.722215Q7.861625,8.681269,7.896447,8.646447Q7.931269,8.611625,7.972215,8.584265Q8.013161,8.556906,8.058658,8.53806Q8.104155,8.519214999999999,8.1524549,8.509607Q8.2007543,8.5,8.25,8.5Q8.2992457,8.5,8.3475451,8.509607Q8.395845,8.519214999999999,8.441342,8.53806Q8.486839,8.556906,8.527785,8.584265Q8.568731,8.611625,8.603553,8.646447Q8.638375,8.681269,8.665735,8.722215Q8.693094,8.763161,8.71194,8.808658Q8.730785000000001,8.854155,8.740393,8.9024549Q8.75,8.9507543,8.75,9Z" fill="#FFFFFF" fill-opacity="1"/></g><g><path d="M17.25,14.75L8.25,14.75Q8.2007543,14.75,8.1524549,14.740393Q8.104155,14.730785000000001,8.058658,14.71194Q8.013161,14.693094,7.972215,14.665735Q7.931269,14.638375,7.896447,14.603553Q7.861625,14.568731,7.834265,14.527785Q7.806906,14.486839,7.78806,14.441342Q7.769215,14.395845,7.759607,14.3475451Q7.75,14.2992457,7.75,14.25Q7.75,14.2007543,7.759607,14.1524549Q7.769215,14.104155,7.78806,14.058658Q7.806906,14.013161,7.834265,13.972215Q7.861625,13.931269,7.896447,13.896447Q7.931269,13.861625,7.972215,13.834265Q8.013161,13.806906,8.058658,13.78806Q8.104155,13.769214999999999,8.1524549,13.759607Q8.2007543,13.75,8.25,13.75L17.25,13.75Q17.299239999999998,13.75,17.347540000000002,13.759607Q17.39584,13.769214999999999,17.44134,13.78806Q17.48684,13.806906,17.52778,13.834265Q17.568730000000002,13.861625,17.60355,13.896447Q17.638370000000002,13.931269,17.66573,13.972215Q17.693089999999998,14.013161,17.71194,14.058658Q17.73078,14.104155,17.740389999999998,14.1524549Q17.75,14.2007543,17.75,14.25Q17.75,14.2992457,17.740389999999998,14.3475451Q17.73078,14.395845,17.71194,14.441342Q17.693089999999998,14.486839,17.66573,14.527785Q17.638370000000002,14.568731,17.60355,14.603553Q17.568730000000002,14.638375,17.52778,14.665735Q17.48684,14.693094,17.44134,14.71194Q17.39584,14.730785000000001,17.347540000000002,14.740393Q17.299239999999998,14.75,17.25,14.75ZM17.75,14.25Q17.75,14.2992457,17.740389999999998,14.3475451Q17.73078,14.395845,17.71194,14.441342Q17.693089999999998,14.486839,17.66573,14.527785Q17.638370000000002,14.568731,17.60355,14.603553Q17.568730000000002,14.638375,17.52778,14.665735Q17.48684,14.693094,17.44134,14.71194Q17.39584,14.730785000000001,17.347540000000002,14.740393Q17.299239999999998,14.75,17.25,14.75Q17.20075,14.75,17.15245,14.740393Q17.10415,14.730785000000001,17.05866,14.71194Q17.01316,14.693094,16.97221,14.665735Q16.931269999999998,14.638375,16.89645,14.603553Q16.861620000000002,14.568731,16.83426,14.527785Q16.8069,14.486839,16.78806,14.441342Q16.76921,14.395845,16.759610000000002,14.3475451Q16.75,14.2992457,16.75,14.25Q16.75,14.2007543,16.759610000000002,14.1524549Q16.76921,14.104155,16.78806,14.058658Q16.8069,14.013161,16.83426,13.972215Q16.861620000000002,13.931269,16.89645,13.896447Q16.931269999999998,13.861625,16.97221,13.834265Q17.01316,13.806906,17.05866,13.78806Q17.10415,13.769214999999999,17.15245,13.759607Q17.20075,13.75,17.25,13.75Q17.299239999999998,13.75,17.347540000000002,13.759607Q17.39584,13.769214999999999,17.44134,13.78806Q17.48684,13.806906,17.52778,13.834265Q17.568730000000002,13.861625,17.60355,13.896447Q17.638370000000002,13.931269,17.66573,13.972215Q17.693089999999998,14.013161,17.71194,14.058658Q17.73078,14.104155,17.740389999999998,14.1524549Q17.75,14.2007543,17.75,14.25ZM8.75,14.25Q8.75,14.2992457,8.740393,14.3475451Q8.730785000000001,14.395845,8.71194,14.441342Q8.693094,14.486839,8.665735,14.527785Q8.638375,14.568731,8.603553,14.603553Q8.568731,14.638375,8.527785,14.665735Q8.486839,14.693094,8.441342,14.71194Q8.395845,14.730785000000001,8.3475451,14.740393Q8.2992457,14.75,8.25,14.75Q8.2007543,14.75,8.1524549,14.740393Q8.104155,14.730785000000001,8.058658,14.71194Q8.013161,14.693094,7.972215,14.665735Q7.931269,14.638375,7.896447,14.603553Q7.861625,14.568731,7.834265,14.527785Q7.806906,14.486839,7.78806,14.441342Q7.769215,14.395845,7.759607,14.3475451Q7.75,14.2992457,7.75,14.25Q7.75,14.2007543,7.759607,14.1524549Q7.769215,14.104155,7.78806,14.058658Q7.806906,14.013161,7.834265,13.972215Q7.861625,13.931269,7.896447,13.896447Q7.931269,13.861625,7.972215,13.834265Q8.013161,13.806906,8.058658,13.78806Q8.104155,13.769214999999999,8.1524549,13.759607Q8.2007543,13.75,8.25,13.75Q8.2992457,13.75,8.3475451,13.759607Q8.395845,13.769214999999999,8.441342,13.78806Q8.486839,13.806906,8.527785,13.834265Q8.568731,13.861625,8.603553,13.896447Q8.638375,13.931269,8.665735,13.972215Q8.693094,14.013161,8.71194,14.058658Q8.730785000000001,14.104155,8.740393,14.1524549Q8.75,14.2007543,8.75,14.25Z" fill="#FFFFFF" fill-opacity="1"/></g></g></g></svg>