<svg xmlns="http://www.w3.org/2000/svg" xmlns:xlink="http://www.w3.org/1999/xlink" fill="none" version="1.1" width="14.3333740234375" height="11.666671752929688" viewBox="0 0 14.3333740234375 11.666671752929688"><g><g><path d="M13.8333,1.5C13.8333,0.9477169999999999,13.3856,0.5,12.8333,0.5L1.5,0.5C0.9477169999999999,0.5,0.5,0.9477169999999999,0.5,1.5L0.5,4.5L13.8333,4.5L13.8333,1.5Z" fill="#FFFFFF" fill-opacity="1"/><path d="M13.3333,4.5L13.3333,1.5Q13.3333,1.2928899999999999,13.1869,1.146445Q13.0404,1,12.8333,1L1.5,1Q1.292894,1,1.146447,1.146447Q1,1.292894,1,1.5L1,4.5L0.5,4.5L0.5,4L13.8333,4L13.8333,4.5L13.3333,4.5ZM14.3333,4.5Q14.3333,4.54925,14.3237,4.59755Q14.3141,4.64584,14.2953,4.69134Q14.2764,4.73684,14.2491,4.77778Q14.2217,4.81873,14.1869,4.85355Q14.1521,4.88837,14.1111,4.91573Q14.0702,4.94309,14.0247,4.96194Q13.9792,4.98078,13.9309,4.99039Q13.8826,5,13.8333,5L0.5,5Q0.4507543,5,0.4024549,4.99039Q0.354155,4.98078,0.308658,4.96194Q0.263161,4.94309,0.222215,4.91573Q0.181269,4.88837,0.146447,4.85355Q0.11162499999999997,4.81873,0.08426499999999998,4.77778Q0.05690600000000001,4.73684,0.03805999999999998,4.69134Q0.019214999999999982,4.64584,0.009606999999999977,4.59755Q0,4.54925,0,4.5L0,1.5Q0,0.878681,0.4393404,0.4393404Q0.878681,0,1.5,0L12.8333,0Q13.4547,0,13.894,0.4393423Q14.3333,0.878679,14.3333,1.5L14.3333,4.5Z" fill="#FFFFFF" fill-opacity="1"/></g><g><path d="M10.61479765625,8.314021907348632L9.12129765625,6.858021907348633L9.47032765625,6.500001907348633L9.79937765625,6.876470907348633L7.11827765625,9.219841907348632Q7.08330765625,9.250401907348632,7.04329765625,9.274001907348634Q7.00329765625,9.297611907348633,6.95962765625,9.313441907348633Q6.91596765625,9.329261907348632,6.87012765625,9.336781907348634Q6.82429765625,9.344291907348634,6.77785765625,9.343241907348633Q6.73142765625,9.342181907348632,6.68597765625,9.332591907348633Q6.64052765625,9.323001907348633,6.59762765625,9.305201907348632Q6.55472765625,9.287401907348633,6.51583765625,9.262001907348633Q6.47694765625,9.236611907348633,6.44340765625,9.204481907348633L4.2503076562499995,7.104215907348633L4.59612765625,6.743101907348633L4.95148765625,7.094841907348632L0.8929546562499999,11.195111907348632Q0.8583116562499999,11.230111907348633,0.81750565625,11.257681907348633Q0.77669965625,11.285241907348633,0.73129965625,11.304321907348633Q0.6858996562499999,11.323401907348632,0.63764965625,11.333251907348632Q0.58940025625,11.343111907348632,0.54015524625,11.343361907348633Q0.49091015625,11.343611907348633,0.44256225625,11.334251907348634Q0.39421465624999996,11.324891907348633,0.34862165624999997,11.306281907348634Q0.30302865625,11.287671907348633,0.26194265625,11.260521907348632Q0.22085665625,11.233371907348634,0.18585765625,11.198721907348633Q0.15085765625000003,11.164081907348633,0.12328965624999999,11.123271907348633Q0.09572065624999998,11.082471907348634,0.07664265625,11.037071907348633Q0.05756465625000001,10.991671907348632,0.04771065624999998,10.943421907348633Q0.03785665625000001,10.895171907348633,0.03760465624999998,10.845921907348632Q0.03735265624999995,10.796681907348633,0.046712656249999984,10.748331907348632Q0.05607265625000002,10.699981907348633,0.07468565625000001,10.654391907348632Q0.09329765625000003,10.608801907348631,0.12044765624999998,10.567711907348633Q0.14759665625,10.526631907348634,0.18224065625000002,10.491631907348633L4.24077765625,6.3913619073486325Q4.27504765625,6.356731907348633,4.31536765625,6.329371907348633Q4.35568765625,6.302011907348633,4.40052765625,6.282949907348633Q4.44536765625,6.263888907348633,4.49304765625,6.253842907348633Q4.54072765625,6.2437979073486325,4.58944765625,6.243146907348633Q4.63816765625,6.242494907348632,4.68609765625,6.251262907348633Q4.73402765625,6.260029907348633,4.77936765625,6.277885907348633Q4.82469765625,6.295741907348633,4.86573765625,6.322014907348633Q4.90676765625,6.3482869073486325,4.94195765625,6.381987907348633L7.13505765625,8.482251907348633L6.78922765625,8.843371907348633L6.46018765625,8.466901907348634L9.14128765625,6.123532907348633Q9.17646765625,6.092781907348633,9.21673765625,6.069081907348632Q9.25700765625,6.045382907348633,9.30097765625,6.029555907348633Q9.34494765625,6.013728907348633,9.39107765625,6.0063219073486325Q9.43721765625,5.998915907348633,9.48392765625,6.000186907348633Q9.53063765625,6.001457907348633,9.57630765625,6.011361907348633Q9.62197765625,6.021265907348633,9.66501765625,6.039459907348633Q9.70805765625,6.057654907348633,9.74697765625,6.083508907348633Q9.78589765625,6.109362907348633,9.81935765625,6.141981907348633L11.31289765625,7.5979819073486325Q11.34809765625,7.632361907348633,11.37599765625,7.672951907348633Q11.40389765625,7.7135519073486325,11.42329765625,7.758801907348633Q11.44269765625,7.804051907348633,11.45289765625,7.852231907348633Q11.46319765625,7.900401907348633,11.46379765625,7.949641907348633Q11.46439765625,7.998891907348633,11.45539765625,8.047301907348633Q11.44639765625,8.095721907348633,11.42819765625,8.141451907348634Q11.40989765625,8.187191907348632,11.38309765625,8.228481907348632Q11.35619765625,8.269771907348632,11.32189765625,8.305031907348633Q11.28749765625,8.340291907348632,11.24689765625,8.368171907348632Q11.20629765625,8.396051907348633,11.16099765625,8.415471907348632Q11.11579765625,8.434891907348632,11.06759765625,8.445111907348632Q11.01939765625,8.455331907348633,10.97019765625,8.455961907348632Q10.92089765625,8.456591907348633,10.87249765625,8.447591907348633Q10.82409765625,8.438601907348634,10.77839765625,8.420331907348633Q10.73259765625,8.402071907348633,10.69139765625,8.375231907348633Q10.65009765625,8.348401907348633,10.61479765625,8.314021907348632ZM11.46379765625,7.956001907348632Q11.46379765625,8.005251907348633,11.45419765625,8.053551907348632Q11.44459765625,8.101841907348632,11.42579765625,8.147341907348633Q11.40689765625,8.192841907348633,11.37959765625,8.233781907348632Q11.35219765625,8.274731907348633,11.31739765625,8.309551907348633Q11.28259765625,8.344381907348632,11.24159765625,8.371731907348632Q11.20069765625,8.399091907348632,11.15519765625,8.417941907348633Q11.10969765625,8.436791907348633,11.06139765625,8.446391907348634Q11.01309765625,8.456001907348632,10.96379765625,8.456001907348632Q10.91459765625,8.456001907348632,10.86629765625,8.446391907348634Q10.81799765625,8.436781907348633,10.77249765625,8.417941907348633Q10.72699765625,8.399091907348632,10.68599765625,8.371731907348632Q10.64509765625,8.344381907348632,10.61029765625,8.309551907348633Q10.57549765625,8.274731907348633,10.54809765625,8.233781907348632Q10.52073765625,8.192841907348633,10.50188765625,8.147341907348633Q10.48304765625,8.101841907348632,10.47343765625,8.053541907348633Q10.46382765625,8.005251907348633,10.46382765625,7.956001907348632Q10.46382765625,7.9067519073486325,10.47343765625,7.858451907348632Q10.48304765625,7.810161907348633,10.50188765625,7.764661907348633Q10.52073765625,7.719161907348633,10.54809765625,7.678211907348633Q10.57549765625,7.637271907348633,10.61029765625,7.602451907348633Q10.64509765625,7.567621907348633,10.68599765625,7.540271907348632Q10.72699765625,7.512911907348633,10.77249765625,7.494061907348633Q10.81799765625,7.475216907348633,10.86629765625,7.465608907348633Q10.91459765625,7.456001907348632,10.96379765625,7.456001907348632Q11.01309765625,7.456001907348632,11.06139765625,7.465608907348633Q11.10969765625,7.475216907348633,11.15519765625,7.494061907348633Q11.20069765625,7.512911907348633,11.24159765625,7.540271907348632Q11.28259765625,7.567621907348633,11.31739765625,7.602451907348633Q11.35219765625,7.637271907348633,11.37959765625,7.678211907348633Q11.40689765625,7.719161907348633,11.42579765625,7.764661907348633Q11.44459765625,7.810161907348633,11.45419765625,7.858451907348632Q11.46379765625,7.9067519073486325,11.46379765625,7.956001907348632ZM1.03759765625,10.843371907348633Q1.03759765625,10.892611907348634,1.02799065625,10.940911907348632Q1.01838265625,10.989211907348633,0.99953765625,11.034711907348633Q0.98069165625,11.080211907348634,0.95333265625,11.121151907348633Q0.92597265625,11.162101907348632,0.89115065625,11.196921907348633Q0.85632865625,11.231741907348633,0.81538265625,11.259101907348633Q0.77443665625,11.286461907348633,0.72893965625,11.305311907348633Q0.68344265625,11.324151907348632,0.63514275625,11.333761907348633Q0.58684335625,11.343371907348633,0.53759765625,11.343371907348633Q0.48835195625,11.343371907348633,0.44005255625,11.333761907348633Q0.39175265625,11.324151907348632,0.34625565625,11.305311907348633Q0.30075865625,11.286461907348633,0.25981265625,11.259101907348633Q0.21886665625,11.231741907348633,0.18404465625,11.196921907348633Q0.14922265624999997,11.162101907348632,0.12186265624999998,11.121151907348633Q0.09450365625000001,11.080211907348634,0.07565765624999998,11.034711907348633Q0.05681265624999998,10.989211907348633,0.04720465624999998,10.940911907348632Q0.03759765625,10.892611907348634,0.03759765625,10.843371907348633Q0.03759765625,10.794121907348632,0.04720465624999998,10.745821907348633Q0.05681265624999998,10.697521907348634,0.07565765624999998,10.652031907348633Q0.09450365625000001,10.606531907348632,0.12186265624999998,10.565581907348633Q0.14922265624999997,10.524641907348633,0.18404465625,10.489811907348633Q0.21886665625,10.454991907348633,0.25981265625,10.427631907348633Q0.30075865625,10.400271907348632,0.34625565625,10.381431907348633Q0.39175265625,10.362581907348632,0.44005255625,10.352971907348632Q0.48835195625,10.343371907348633,0.53759765625,10.343371907348633Q0.58684335625,10.343371907348633,0.63514275625,10.352971907348632Q0.68344265625,10.362581907348632,0.72893965625,10.381431907348633Q0.77443665625,10.400271907348632,0.81538265625,10.427631907348633Q0.85632865625,10.454991907348633,0.89115065625,10.489811907348633Q0.92597265625,10.524641907348633,0.95333265625,10.565581907348633Q0.98069165625,10.606531907348632,0.99953765625,10.652031907348633Q1.01838265625,10.697521907348634,1.02799065625,10.745821907348633Q1.03759765625,10.794121907348632,1.03759765625,10.843371907348633Z" fill="#FFFFFF" fill-opacity="1"/></g><g><path d="M3.166748046875,10.666663969116211L12.833418046875,10.666663969116211Q13.040528046875,10.666663969116211,13.186948046875,10.520223969116211Q13.333448046875,10.37378396911621,13.333448046875,10.166663969116211L13.333448046875,3.833333969116211Q13.333448046875,3.7840882691162108,13.343048046875,3.735788869116211Q13.352648046875,3.687488969116211,13.371448046875,3.641991969116211Q13.390348046875,3.596494969116211,13.417648046875,3.5555489691162108Q13.445048046875,3.514602969116211,13.479848046875,3.479780969116211Q13.514648046875,3.444958969116211,13.555648046875,3.4175989691162107Q13.596548046875,3.390239969116211,13.642048046875,3.3713939691162107Q13.687548046875,3.352548969116211,13.735848046875,3.342940969116211Q13.784148046875,3.333333969116211,13.833448046875,3.333333969116211Q13.882648046875,3.333333969116211,13.930948046875,3.342940969116211Q13.979248046875,3.352548969116211,14.024748046875,3.3713939691162107Q14.070248046875,3.390239969116211,14.111248046875,3.4175989691162107Q14.152148046875,3.444958969116211,14.186948046875,3.479780969116211Q14.221748046875,3.514602969116211,14.249148046875,3.5555489691162108Q14.276548046875,3.596494969116211,14.295348046875,3.641991969116211Q14.314248046875,3.687488969116211,14.323848046875,3.735788869116211Q14.333448046875,3.7840882691162108,14.333448046875,3.833333969116211L14.333448046875,10.166663969116211Q14.333448046875,10.788003969116211,13.894048046875,11.227333969116211Q13.454748046875,11.666663969116211,12.833418046875,11.666663969116211L3.166748046875,11.666663969116211Q3.117502346875,11.666663969116211,3.069202946875,11.657063969116212Q3.020903046875,11.64745396911621,2.975406046875,11.628603969116211Q2.929909046875,11.609763969116212,2.888963046875,11.58240396911621Q2.848017046875,11.55504396911621,2.813195046875,11.520223969116211Q2.778373046875,11.48539396911621,2.751013046875,11.44445396911621Q2.723654046875,11.403503969116212,2.7048080468749998,11.358003969116211Q2.685963046875,11.31251396911621,2.676355046875,11.264213969116211Q2.666748046875,11.215913969116212,2.666748046875,11.166663969116211Q2.666748046875,11.11742396911621,2.676355046875,11.06912396911621Q2.685963046875,11.020823969116211,2.7048080468749998,10.97532396911621Q2.723654046875,10.92982396911621,2.751013046875,10.888883969116211Q2.778373046875,10.84793396911621,2.813195046875,10.81311396911621Q2.848017046875,10.778293969116211,2.888963046875,10.750933969116211Q2.929909046875,10.723573969116211,2.975406046875,10.70472396911621Q3.020903046875,10.685883969116212,3.069202946875,10.67627396911621Q3.117502346875,10.666663969116211,3.166748046875,10.666663969116211ZM3.666748046875,11.166663969116211Q3.666748046875,11.215913969116212,3.657141046875,11.264213969116211Q3.647533046875,11.31251396911621,3.6286880468750002,11.358003969116211Q3.609842046875,11.403503969116212,3.582483046875,11.44445396911621Q3.555123046875,11.48539396911621,3.520301046875,11.520223969116211Q3.485479046875,11.55504396911621,3.444533046875,11.58240396911621Q3.403587046875,11.609763969116212,3.358090046875,11.628603969116211Q3.312593046875,11.64745396911621,3.264293146875,11.657063969116212Q3.215993746875,11.666663969116211,3.166748046875,11.666663969116211Q3.117502346875,11.666663969116211,3.069202946875,11.657063969116212Q3.020903046875,11.64745396911621,2.975406046875,11.628603969116211Q2.929909046875,11.609763969116212,2.888963046875,11.58240396911621Q2.848017046875,11.55504396911621,2.813195046875,11.520223969116211Q2.778373046875,11.48539396911621,2.751013046875,11.44445396911621Q2.723654046875,11.403503969116212,2.7048080468749998,11.358003969116211Q2.685963046875,11.31251396911621,2.676355046875,11.264213969116211Q2.666748046875,11.215913969116212,2.666748046875,11.166663969116211Q2.666748046875,11.11742396911621,2.676355046875,11.06912396911621Q2.685963046875,11.020823969116211,2.7048080468749998,10.97532396911621Q2.723654046875,10.92982396911621,2.751013046875,10.888883969116211Q2.778373046875,10.84793396911621,2.813195046875,10.81311396911621Q2.848017046875,10.778293969116211,2.888963046875,10.750933969116211Q2.929909046875,10.723573969116211,2.975406046875,10.70472396911621Q3.020903046875,10.685883969116212,3.069202946875,10.67627396911621Q3.117502346875,10.666663969116211,3.166748046875,10.666663969116211Q3.215993746875,10.666663969116211,3.264293146875,10.67627396911621Q3.312593046875,10.685883969116212,3.358090046875,10.70472396911621Q3.403587046875,10.723573969116211,3.444533046875,10.750933969116211Q3.485479046875,10.778293969116211,3.520301046875,10.81311396911621Q3.555123046875,10.84793396911621,3.582483046875,10.888883969116211Q3.609842046875,10.92982396911621,3.6286880468750002,10.97532396911621Q3.647533046875,11.020823969116211,3.657141046875,11.06912396911621Q3.666748046875,11.11742396911621,3.666748046875,11.166663969116211ZM14.333448046875,3.833333969116211Q14.333448046875,3.882579669116211,14.323848046875,3.930879069116211Q14.314248046875,3.979178969116211,14.295348046875,4.024675969116211Q14.276548046875,4.070172969116211,14.249148046875,4.111118969116211Q14.221748046875,4.152064969116211,14.186948046875,4.186886969116211Q14.152148046875,4.221708969116211,14.111248046875,4.249068969116211Q14.070248046875,4.276427969116211,14.024748046875,4.295273969116211Q13.979248046875,4.314118969116211,13.930948046875,4.323726969116211Q13.882648046875,4.333333969116211,13.833448046875,4.333333969116211Q13.784148046875,4.333333969116211,13.735848046875,4.323726969116211Q13.687548046875,4.314118969116211,13.642048046875,4.295273969116211Q13.596548046875,4.276427969116211,13.555648046875,4.249068969116211Q13.514648046875,4.221708969116211,13.479848046875,4.186886969116211Q13.445048046875,4.152064969116211,13.417648046875,4.111118969116211Q13.390348046875,4.070172969116211,13.371448046875,4.024675969116211Q13.352648046875,3.979178969116211,13.343048046875,3.930879069116211Q13.333448046875,3.882579669116211,13.333448046875,3.833333969116211Q13.333448046875,3.7840882691162108,13.343048046875,3.735788869116211Q13.352648046875,3.687488969116211,13.371448046875,3.641991969116211Q13.390348046875,3.596494969116211,13.417648046875,3.5555489691162108Q13.445048046875,3.514602969116211,13.479848046875,3.479780969116211Q13.514648046875,3.444958969116211,13.555648046875,3.4175989691162107Q13.596548046875,3.390239969116211,13.642048046875,3.3713939691162107Q13.687548046875,3.352548969116211,13.735848046875,3.342940969116211Q13.784148046875,3.333333969116211,13.833448046875,3.333333969116211Q13.882648046875,3.333333969116211,13.930948046875,3.342940969116211Q13.979248046875,3.352548969116211,14.024748046875,3.3713939691162107Q14.070248046875,3.390239969116211,14.111248046875,3.4175989691162107Q14.152148046875,3.444958969116211,14.186948046875,3.479780969116211Q14.221748046875,3.514602969116211,14.249148046875,3.5555489691162108Q14.276548046875,3.596494969116211,14.295348046875,3.641991969116211Q14.314248046875,3.687488969116211,14.323848046875,3.735788869116211Q14.333448046875,3.7840882691162108,14.333448046875,3.833333969116211Z" fill="#FFFFFF" fill-opacity="1"/></g><g><path d="M11.537353515625,3.000001907348633L5.537353515625,3.000001907348633Q5.488107815625,3.000001907348633,5.439808415625,2.990394907348633Q5.391508515625,2.980786907348633,5.346011515625,2.961941907348633Q5.300514515625,2.9430959073486327,5.259568515625,2.915736907348633Q5.218622515625,2.8883769073486327,5.183800515625,2.8535549073486326Q5.148978515625,2.818732907348633,5.121618515625,2.777786907348633Q5.094259515625,2.7368409073486326,5.075413515625,2.691343907348633Q5.056568515625,2.645846907348633,5.046960515625,2.597547007348633Q5.037353515625,2.549247607348633,5.037353515625,2.500001907348633Q5.037353515625,2.4507562073486326,5.046960515625,2.4024568073486328Q5.056568515625,2.354156907348633,5.075413515625,2.3086599073486327Q5.094259515625,2.263162907348633,5.121618515625,2.2222169073486326Q5.148978515625,2.1812709073486327,5.183800515625,2.146448907348633Q5.218622515625,2.111626907348633,5.259568515625,2.0842669073486326Q5.300514515625,2.056907907348633,5.346011515625,2.0380619073486326Q5.391508515625,2.019216907348633,5.439808415625,2.0096089073486327Q5.488107815625,2.000001907348633,5.537353515625,2.000001907348633L11.537353515625,2.000001907348633Q11.586603515625,2.000001907348633,11.634903515625,2.0096089073486327Q11.683193515625,2.019216907348633,11.728693515625,2.0380619073486326Q11.774193515625,2.056907907348633,11.815133515625,2.0842669073486326Q11.856083515625,2.111626907348633,11.890903515625,2.146448907348633Q11.925733515625,2.1812709073486327,11.953093515625,2.2222169073486326Q11.980443515625,2.263162907348633,11.999293515625,2.3086599073486327Q12.018143515624999,2.354156907348633,12.027743515625,2.4024568073486328Q12.037353515625,2.4507562073486326,12.037353515625,2.500001907348633Q12.037353515625,2.549247607348633,12.027743515625,2.597547007348633Q12.018143515624999,2.645846907348633,11.999293515625,2.691343907348633Q11.980443515625,2.7368409073486326,11.953093515625,2.777786907348633Q11.925733515625,2.818732907348633,11.890903515625,2.8535549073486326Q11.856083515625,2.8883769073486327,11.815133515625,2.915736907348633Q11.774193515625,2.9430959073486327,11.728693515625,2.961941907348633Q11.683193515625,2.980786907348633,11.634903515625,2.990394907348633Q11.586603515625,3.000001907348633,11.537353515625,3.000001907348633ZM12.037353515625,2.500001907348633Q12.037353515625,2.549247607348633,12.027743515625,2.597547007348633Q12.018143515624999,2.645846907348633,11.999293515625,2.691343907348633Q11.980443515625,2.7368409073486326,11.953093515625,2.777786907348633Q11.925733515625,2.818732907348633,11.890903515625,2.8535549073486326Q11.856083515625,2.8883769073486327,11.815133515625,2.915736907348633Q11.774193515625,2.9430959073486327,11.728693515625,2.961941907348633Q11.683193515625,2.980786907348633,11.634903515625,2.990394907348633Q11.586603515625,3.000001907348633,11.537353515625,3.000001907348633Q11.488113515624999,3.000001907348633,11.439813515625,2.990394907348633Q11.391513515625,2.980786907348633,11.346013515625,2.961941907348633Q11.300513515625,2.9430959073486327,11.259573515625,2.915736907348633Q11.218623515625,2.8883769073486327,11.183803515625,2.8535549073486326Q11.148983515625,2.818732907348633,11.121623515625,2.777786907348633Q11.094263515625,2.7368409073486326,11.075413515625,2.691343907348633Q11.056563515625001,2.645846907348633,11.046963515625,2.597547007348633Q11.037353515625,2.549247607348633,11.037353515625,2.500001907348633Q11.037353515625,2.4507562073486326,11.046963515625,2.4024568073486328Q11.056563515625001,2.354156907348633,11.075413515625,2.3086599073486327Q11.094263515625,2.263162907348633,11.121623515625,2.2222169073486326Q11.148983515625,2.1812709073486327,11.183803515625,2.146448907348633Q11.218623515625,2.111626907348633,11.259573515625,2.0842669073486326Q11.300513515625,2.056907907348633,11.346013515625,2.0380619073486326Q11.391513515625,2.019216907348633,11.439813515625,2.0096089073486327Q11.488113515624999,2.000001907348633,11.537353515625,2.000001907348633Q11.586603515625,2.000001907348633,11.634903515625,2.0096089073486327Q11.683193515625,2.019216907348633,11.728693515625,2.0380619073486326Q11.774193515625,2.056907907348633,11.815133515625,2.0842669073486326Q11.856083515625,2.111626907348633,11.890903515625,2.146448907348633Q11.925733515625,2.1812709073486327,11.953093515625,2.2222169073486326Q11.980443515625,2.263162907348633,11.999293515625,2.3086599073486327Q12.018143515624999,2.354156907348633,12.027743515625,2.4024568073486328Q12.037353515625,2.4507562073486326,12.037353515625,2.500001907348633ZM6.037353515625,2.500001907348633Q6.037353515625,2.549247607348633,6.027746515625,2.597547007348633Q6.018138515625,2.645846907348633,5.999293515625,2.691343907348633Q5.980447515625,2.7368409073486326,5.953088515625,2.777786907348633Q5.925728515625,2.818732907348633,5.890906515625,2.8535549073486326Q5.856084515625,2.8883769073486327,5.815138515625,2.915736907348633Q5.774192515625,2.9430959073486327,5.728695515625,2.961941907348633Q5.683198515625,2.980786907348633,5.634898615625,2.990394907348633Q5.586599215625,3.000001907348633,5.537353515625,3.000001907348633Q5.488107815625,3.000001907348633,5.439808415625,2.990394907348633Q5.391508515625,2.980786907348633,5.346011515625,2.961941907348633Q5.300514515625,2.9430959073486327,5.259568515625,2.915736907348633Q5.218622515625,2.8883769073486327,5.183800515625,2.8535549073486326Q5.148978515625,2.818732907348633,5.121618515625,2.777786907348633Q5.094259515625,2.7368409073486326,5.075413515625,2.691343907348633Q5.056568515625,2.645846907348633,5.046960515625,2.597547007348633Q5.037353515625,2.549247607348633,5.037353515625,2.500001907348633Q5.037353515625,2.4507562073486326,5.046960515625,2.4024568073486328Q5.056568515625,2.354156907348633,5.075413515625,2.3086599073486327Q5.094259515625,2.263162907348633,5.121618515625,2.2222169073486326Q5.148978515625,2.1812709073486327,5.183800515625,2.146448907348633Q5.218622515625,2.111626907348633,5.259568515625,2.0842669073486326Q5.300514515625,2.056907907348633,5.346011515625,2.0380619073486326Q5.391508515625,2.019216907348633,5.439808415625,2.0096089073486327Q5.488107815625,2.000001907348633,5.537353515625,2.000001907348633Q5.586599215625,2.000001907348633,5.634898615625,2.0096089073486327Q5.683198515625,2.019216907348633,5.728695515625,2.0380619073486326Q5.774192515625,2.056907907348633,5.815138515625,2.0842669073486326Q5.856084515625,2.111626907348633,5.890906515625,2.146448907348633Q5.925728515625,2.1812709073486327,5.953088515625,2.2222169073486326Q5.980447515625,2.263162907348633,5.999293515625,2.3086599073486327Q6.018138515625,2.354156907348633,6.027746515625,2.4024568073486328Q6.037353515625,2.4507562073486326,6.037353515625,2.500001907348633Z" fill="#FFFFFF" fill-opacity="1"/></g><g><path d="M3.537028328125,3.000001907348633L2.870361328125,3.000001907348633Q2.821115628125,3.000001907348633,2.772816228125,2.990394907348633Q2.724516328125,2.980786907348633,2.679019328125,2.961941907348633Q2.633522328125,2.9430959073486327,2.592576328125,2.915736907348633Q2.551630328125,2.8883769073486327,2.516808328125,2.8535549073486326Q2.481986328125,2.818732907348633,2.454626328125,2.777786907348633Q2.427267328125,2.7368409073486326,2.4084213281249998,2.691343907348633Q2.389576328125,2.645846907348633,2.379968328125,2.597547007348633Q2.370361328125,2.549247607348633,2.370361328125,2.500001907348633Q2.370361328125,2.4507562073486326,2.379968328125,2.4024568073486328Q2.389576328125,2.354156907348633,2.4084213281249998,2.3086599073486327Q2.427267328125,2.263162907348633,2.454626328125,2.2222169073486326Q2.481986328125,2.1812709073486327,2.516808328125,2.146448907348633Q2.551630328125,2.111626907348633,2.592576328125,2.0842669073486326Q2.633522328125,2.056907907348633,2.679019328125,2.0380619073486326Q2.724516328125,2.019216907348633,2.772816228125,2.0096089073486327Q2.821115628125,2.000001907348633,2.870361328125,2.000001907348633L3.537028328125,2.000001907348633Q3.586273328125,2.000001907348633,3.634573328125,2.0096089073486327Q3.6828723281249998,2.019216907348633,3.728369328125,2.0380619073486326Q3.773866328125,2.056907907348633,3.814813328125,2.0842669073486326Q3.855759328125,2.111626907348633,3.890581328125,2.146448907348633Q3.925401328125,2.1812709073486327,3.952761328125,2.2222169073486326Q3.980121328125,2.263162907348633,3.998971328125,2.3086599073486327Q4.017811328125,2.354156907348633,4.0274213281249995,2.4024568073486328Q4.037031328125,2.4507562073486326,4.037031328125,2.500001907348633Q4.037031328125,2.549247607348633,4.0274213281249995,2.597547007348633Q4.017811328125,2.645846907348633,3.998971328125,2.691343907348633Q3.980121328125,2.7368409073486326,3.952761328125,2.777786907348633Q3.925401328125,2.818732907348633,3.890581328125,2.8535549073486326Q3.855759328125,2.8883769073486327,3.814813328125,2.915736907348633Q3.773866328125,2.9430959073486327,3.728369328125,2.961941907348633Q3.6828723281249998,2.980786907348633,3.634573328125,2.990394907348633Q3.586273328125,3.000001907348633,3.537028328125,3.000001907348633ZM4.037031328125,2.500001907348633Q4.037031328125,2.549247607348633,4.0274213281249995,2.597547007348633Q4.017811328125,2.645846907348633,3.998971328125,2.691343907348633Q3.980121328125,2.7368409073486326,3.952761328125,2.777786907348633Q3.925401328125,2.818732907348633,3.890581328125,2.8535549073486326Q3.855759328125,2.8883769073486327,3.814813328125,2.915736907348633Q3.773866328125,2.9430959073486327,3.728369328125,2.961941907348633Q3.6828723281249998,2.980786907348633,3.634573328125,2.990394907348633Q3.586273328125,3.000001907348633,3.537028328125,3.000001907348633Q3.487782328125,3.000001907348633,3.439483328125,2.990394907348633Q3.391183328125,2.980786907348633,3.3456863281249998,2.961941907348633Q3.300189328125,2.9430959073486327,3.259243328125,2.915736907348633Q3.218296328125,2.8883769073486327,3.183474328125,2.8535549073486326Q3.148652328125,2.818732907348633,3.121293328125,2.777786907348633Q3.093933328125,2.7368409073486326,3.075088328125,2.691343907348633Q3.056242328125,2.645846907348633,3.046635328125,2.597547007348633Q3.037028328125,2.549247607348633,3.037028328125,2.500001907348633Q3.037028328125,2.4507562073486326,3.046635328125,2.4024568073486328Q3.056242328125,2.354156907348633,3.075088328125,2.3086599073486327Q3.093933328125,2.263162907348633,3.121293328125,2.2222169073486326Q3.148652328125,2.1812709073486327,3.183474328125,2.146448907348633Q3.218296328125,2.111626907348633,3.259243328125,2.0842669073486326Q3.300189328125,2.056907907348633,3.3456863281249998,2.0380619073486326Q3.391183328125,2.019216907348633,3.439483328125,2.0096089073486327Q3.487782328125,2.000001907348633,3.537028328125,2.000001907348633Q3.586273328125,2.000001907348633,3.634573328125,2.0096089073486327Q3.6828723281249998,2.019216907348633,3.728369328125,2.0380619073486326Q3.773866328125,2.056907907348633,3.814813328125,2.0842669073486326Q3.855759328125,2.111626907348633,3.890581328125,2.146448907348633Q3.925401328125,2.1812709073486327,3.952761328125,2.2222169073486326Q3.980121328125,2.263162907348633,3.998971328125,2.3086599073486327Q4.017811328125,2.354156907348633,4.0274213281249995,2.4024568073486328Q4.037031328125,2.4507562073486326,4.037031328125,2.500001907348633ZM3.370361328125,2.500001907348633Q3.370361328125,2.549247607348633,3.360754328125,2.597547007348633Q3.351146328125,2.645846907348633,3.3323013281250002,2.691343907348633Q3.313455328125,2.7368409073486326,3.286096328125,2.777786907348633Q3.258736328125,2.818732907348633,3.223914328125,2.8535549073486326Q3.189092328125,2.8883769073486327,3.148146328125,2.915736907348633Q3.107200328125,2.9430959073486327,3.061703328125,2.961941907348633Q3.016206328125,2.980786907348633,2.967906428125,2.990394907348633Q2.919607028125,3.000001907348633,2.870361328125,3.000001907348633Q2.821115628125,3.000001907348633,2.772816228125,2.990394907348633Q2.724516328125,2.980786907348633,2.679019328125,2.961941907348633Q2.633522328125,2.9430959073486327,2.592576328125,2.915736907348633Q2.551630328125,2.8883769073486327,2.516808328125,2.8535549073486326Q2.481986328125,2.818732907348633,2.454626328125,2.777786907348633Q2.427267328125,2.7368409073486326,2.4084213281249998,2.691343907348633Q2.389576328125,2.645846907348633,2.379968328125,2.597547007348633Q2.370361328125,2.549247607348633,2.370361328125,2.500001907348633Q2.370361328125,2.4507562073486326,2.379968328125,2.4024568073486328Q2.389576328125,2.354156907348633,2.4084213281249998,2.3086599073486327Q2.427267328125,2.263162907348633,2.454626328125,2.2222169073486326Q2.481986328125,2.1812709073486327,2.516808328125,2.146448907348633Q2.551630328125,2.111626907348633,2.592576328125,2.0842669073486326Q2.633522328125,2.056907907348633,2.679019328125,2.0380619073486326Q2.724516328125,2.019216907348633,2.772816228125,2.0096089073486327Q2.821115628125,2.000001907348633,2.870361328125,2.000001907348633Q2.919607028125,2.000001907348633,2.967906428125,2.0096089073486327Q3.016206328125,2.019216907348633,3.061703328125,2.0380619073486326Q3.107200328125,2.056907907348633,3.148146328125,2.0842669073486326Q3.189092328125,2.111626907348633,3.223914328125,2.146448907348633Q3.258736328125,2.1812709073486327,3.286096328125,2.2222169073486326Q3.313455328125,2.263162907348633,3.3323013281250002,2.3086599073486327Q3.351146328125,2.354156907348633,3.360754328125,2.4024568073486328Q3.370361328125,2.4507562073486326,3.370361328125,2.500001907348633Z" fill="#FFFFFF" fill-opacity="1"/></g><g><path d="M0,6.833333969116211L0,3.833333969116211Q0,3.7840882691162108,0.009606999999999977,3.735788869116211Q0.019214999999999982,3.687488969116211,0.03805999999999998,3.641991969116211Q0.05690600000000001,3.596494969116211,0.08426499999999998,3.5555489691162108Q0.11162499999999997,3.514602969116211,0.146447,3.479780969116211Q0.181269,3.444958969116211,0.222215,3.4175989691162107Q0.263161,3.390239969116211,0.308658,3.3713939691162107Q0.354155,3.352548969116211,0.4024549,3.342940969116211Q0.4507543,3.333333969116211,0.5,3.333333969116211Q0.5492457,3.333333969116211,0.5975451,3.342940969116211Q0.645845,3.352548969116211,0.691342,3.3713939691162107Q0.736839,3.390239969116211,0.777785,3.4175989691162107Q0.818731,3.444958969116211,0.853553,3.479780969116211Q0.888375,3.514602969116211,0.915735,3.5555489691162108Q0.943094,3.596494969116211,0.96194,3.641991969116211Q0.980785,3.687488969116211,0.9903930000000001,3.735788869116211Q1,3.7840882691162108,1,3.833333969116211L1,6.833333969116211Q1,6.882583969116211,0.9903930000000001,6.930873969116211Q0.980785,6.979173969116211,0.96194,7.024673969116211Q0.943094,7.070173969116211,0.915735,7.111113969116211Q0.888375,7.152063969116211,0.853553,7.186883969116211Q0.818731,7.221703969116211,0.777785,7.249063969116211Q0.736839,7.276423969116211,0.691342,7.295273969116211Q0.645845,7.314113969116211,0.5975451,7.323723969116211Q0.5492457,7.333333969116211,0.5,7.333333969116211Q0.4507543,7.333333969116211,0.4024549,7.323723969116211Q0.354155,7.314113969116211,0.308658,7.295273969116211Q0.263161,7.276423969116211,0.222215,7.249063969116211Q0.181269,7.221703969116211,0.146447,7.186883969116211Q0.11162499999999997,7.152063969116211,0.08426499999999998,7.111113969116211Q0.05690600000000001,7.070173969116211,0.03805999999999998,7.024673969116211Q0.019214999999999982,6.979173969116211,0.009606999999999977,6.930873969116211Q0,6.882583969116211,0,6.833333969116211ZM1,6.833333969116211Q1,6.882583969116211,0.9903930000000001,6.930873969116211Q0.980785,6.979173969116211,0.96194,7.024673969116211Q0.943094,7.070173969116211,0.915735,7.111113969116211Q0.888375,7.152063969116211,0.853553,7.186883969116211Q0.818731,7.221703969116211,0.777785,7.249063969116211Q0.736839,7.276423969116211,0.691342,7.295273969116211Q0.645845,7.314113969116211,0.5975451,7.323723969116211Q0.5492457,7.333333969116211,0.5,7.333333969116211Q0.4507543,7.333333969116211,0.4024549,7.323723969116211Q0.354155,7.314113969116211,0.308658,7.295273969116211Q0.263161,7.276423969116211,0.222215,7.249063969116211Q0.181269,7.221703969116211,0.146447,7.186883969116211Q0.11162499999999997,7.152063969116211,0.08426499999999998,7.111113969116211Q0.05690600000000001,7.070173969116211,0.03805999999999998,7.024673969116211Q0.019214999999999982,6.979173969116211,0.009606999999999977,6.930873969116211Q0,6.882583969116211,0,6.833333969116211Q0,6.784083969116211,0.009606999999999977,6.735783969116211Q0.019214999999999982,6.687483969116212,0.03805999999999998,6.641993969116211Q0.05690600000000001,6.596493969116211,0.08426499999999998,6.555543969116211Q0.11162499999999997,6.5146039691162105,0.146447,6.479783969116211Q0.181269,6.444953969116211,0.222215,6.417593969116211Q0.263161,6.390243969116211,0.308658,6.371393969116211Q0.354155,6.352543969116211,0.4024549,6.342943969116211Q0.4507543,6.333333969116211,0.5,6.333333969116211Q0.5492457,6.333333969116211,0.5975451,6.342943969116211Q0.645845,6.352543969116211,0.691342,6.371393969116211Q0.736839,6.390243969116211,0.777785,6.417593969116211Q0.818731,6.444953969116211,0.853553,6.479783969116211Q0.888375,6.5146039691162105,0.915735,6.555543969116211Q0.943094,6.596493969116211,0.96194,6.641993969116211Q0.980785,6.687483969116212,0.9903930000000001,6.735783969116211Q1,6.784083969116211,1,6.833333969116211ZM1,3.833333969116211Q1,3.882579669116211,0.9903930000000001,3.930879069116211Q0.980785,3.979178969116211,0.96194,4.024675969116211Q0.943094,4.070172969116211,0.915735,4.111118969116211Q0.888375,4.152064969116211,0.853553,4.186886969116211Q0.818731,4.221708969116211,0.777785,4.249068969116211Q0.736839,4.276427969116211,0.691342,4.295273969116211Q0.645845,4.314118969116211,0.5975451,4.323726969116211Q0.5492457,4.333333969116211,0.5,4.333333969116211Q0.4507543,4.333333969116211,0.4024549,4.323726969116211Q0.354155,4.314118969116211,0.308658,4.295273969116211Q0.263161,4.276427969116211,0.222215,4.249068969116211Q0.181269,4.221708969116211,0.146447,4.186886969116211Q0.11162499999999997,4.152064969116211,0.08426499999999998,4.111118969116211Q0.05690600000000001,4.070172969116211,0.03805999999999998,4.024675969116211Q0.019214999999999982,3.979178969116211,0.009606999999999977,3.930879069116211Q0,3.882579669116211,0,3.833333969116211Q0,3.7840882691162108,0.009606999999999977,3.735788869116211Q0.019214999999999982,3.687488969116211,0.03805999999999998,3.641991969116211Q0.05690600000000001,3.596494969116211,0.08426499999999998,3.5555489691162108Q0.11162499999999997,3.514602969116211,0.146447,3.479780969116211Q0.181269,3.444958969116211,0.222215,3.4175989691162107Q0.263161,3.390239969116211,0.308658,3.3713939691162107Q0.354155,3.352548969116211,0.4024549,3.342940969116211Q0.4507543,3.333333969116211,0.5,3.333333969116211Q0.5492457,3.333333969116211,0.5975451,3.342940969116211Q0.645845,3.352548969116211,0.691342,3.3713939691162107Q0.736839,3.390239969116211,0.777785,3.4175989691162107Q0.818731,3.444958969116211,0.853553,3.479780969116211Q0.888375,3.514602969116211,0.915735,3.5555489691162108Q0.943094,3.596494969116211,0.96194,3.641991969116211Q0.980785,3.687488969116211,0.9903930000000001,3.735788869116211Q1,3.7840882691162108,1,3.833333969116211Z" fill="#FFFFFF" fill-opacity="1"/></g></g></svg>