<svg xmlns="http://www.w3.org/2000/svg" width="18" height="18" viewBox="0 0 18 18">
  <g id="组_27313" data-name="组 27313" transform="translate(-1641 -15)">
    <rect id="矩形_22993" data-name="矩形 22993" width="18" height="18" transform="translate(1641 15)" fill="#fff" opacity="0"/>
    <path id="fill" d="M9.92,16a6.082,6.082,0,0,1-4.8-9.812L.046,1.119a.161.161,0,0,1,0-.226L.892.047a.161.161,0,0,1,.226,0L6.19,5.12A6.081,6.081,0,1,1,9.92,16ZM13.144,6.7A4.56,4.56,0,1,0,14.48,9.923,4.524,4.524,0,0,0,13.144,6.7Z" transform="translate(1658.445 32.004) rotate(180)"/>
  </g>
</svg>
