<svg id="组_23642" data-name="组 23642" xmlns="http://www.w3.org/2000/svg" width="14" height="14" viewBox="0 0 14 14">
  <g id="upload" transform="translate(0.875 0.784)">
    <path id="Shape" d="M5.8.138a.475.475,0,0,1,.67,0L8.6,2.27a.472.472,0,1,1-.667.669L6.612,1.613v7.9a.473.473,0,0,1-.946,0v-7.9L4.341,2.938a.473.473,0,0,1-.669-.669ZM11.777,7.88a.473.473,0,0,0-.473.473v2.671a.282.282,0,0,1-.282.282h-9.8a.282.282,0,0,1-.282-.282V8.352a.472.472,0,1,0-.945,0V11.4a.85.85,0,0,0,.849.849H11.4a.85.85,0,0,0,.849-.849V8.352A.473.473,0,0,0,11.777,7.88Z" fill="#1062bd"/>
  </g>
  <rect id="Rectangle-49" width="14" height="14" fill="none"/>
</svg>
