<svg xmlns="http://www.w3.org/2000/svg" width="16" height="16" viewBox="0 0 16 16">
  <g id="组_22932" data-name="组 22932" transform="translate(-1152 -472)">
    <g id="矩形_22976" data-name="矩形 22976" transform="translate(1152 472)" fill="#fff" stroke="#707070" stroke-width="1" opacity="0">
      <rect width="16" height="16" stroke="none"/>
      <rect x="0.5" y="0.5" width="15" height="15" fill="none"/>
    </g>
    <path id="fill" d="M13.414,11.931A5.9,5.9,0,0,0,10.288,8.8L10.269,8.8a3.874,3.874,0,1,0-4.538,0l-.019.008a5.873,5.873,0,0,0-3.588,5.284.125.125,0,0,0,.125.128h.938a.125.125,0,0,0,.125-.122,4.689,4.689,0,0,1,9.375,0,.124.124,0,0,0,.125.122h.938a.125.125,0,0,0,.125-.128A5.823,5.823,0,0,0,13.414,11.931ZM8,8.344a2.689,2.689,0,1,1,1.9-.787A2.67,2.67,0,0,1,8,8.344Z" transform="translate(1151.63 472)" fill="#3662EC" fill-rule="evenodd"/>
  </g>
</svg>
