<svg xmlns="http://www.w3.org/2000/svg" xmlns:xlink="http://www.w3.org/1999/xlink" fill="none" version="1.1" width="12.6666259765625" height="8" viewBox="0 0 12.6666259765625 12"><g><g><path d="M0.666667,0C0.298477,0,0,0.298477,0,0.666667L0,11.3333C0,11.7015,0.298477,12,0.666667,12L12,12C12.3682,12,12.6667,11.7015,12.6667,11.3333L12.6667,2.66667C12.6667,2.29847,12.3682,2,12,2L6.33333,2L4.66667,0L0.666667,0ZM5.83325,5C5.83325,4.72386,6.05711,4.5,6.33325,4.5C6.60939,4.5,6.83325,4.72386,6.83325,5L6.83325,5.56457Q7.02194,5.61607,7.19361,5.70863L7.58914,5.3131C7.68291,5.21934,7.81009,5.16666,7.9427,5.16666C8.0753,5.16666,8.20248,5.21934,8.29625,5.3131C8.39002,5.40687,8.4427,5.53405,8.4427,5.66666C8.4427,5.79926,8.39002,5.92644,8.29625,6.02021L7.91637,6.40009Q8.03952,6.60417,8.10208,6.83334L8.6665,6.83334C8.94265,6.83334,9.1665,7.0572,9.1665,7.33334C9.1665,7.60949,8.94265,7.83334,8.6665,7.83334L8.10207,7.83334Q8.04501,8.04238,7.93754,8.23053L8.39391,8.68689C8.48767,8.78066,8.54035,8.90784,8.54035,9.04044C8.54035,9.17305,8.48767,9.30023,8.39391,9.394C8.30014,9.48776,8.17296,9.54044,8.04035,9.54044C7.90774,9.54044,7.78057,9.48776,7.6868,9.394L7.23041,8.93761Q7.04227,9.04505,6.83325,9.1021L6.83325,9.66666C6.83325,9.9428,6.60939,10.1667,6.33325,10.1667C6.05711,10.1667,5.83325,9.9428,5.83325,9.66666L5.83325,9.10205Q5.6041,9.03949,5.40005,8.91635L4.9224,9.394C4.82863,9.48776,4.70146,9.54044,4.56885,9.54044C4.43624,9.54044,4.30906,9.48776,4.21529,9.394C4.12153,9.30023,4.06885,9.17305,4.06885,9.04044C4.06885,8.90784,4.12153,8.78066,4.21529,8.68689L4.70861,8.19357Q4.61608,8.02196,4.56459,7.83334L4,7.83334C3.72386,7.83334,3.5,7.60949,3.5,7.33334C3.5,7.0572,3.72386,6.83334,4,6.83334L4.56459,6.83334Q4.62163,6.62439,4.72904,6.43629L4.31301,6.02027C4.21918,5.92644,4.1665,5.79926,4.1665,5.66666C4.1665,5.53405,4.21918,5.40687,4.31295,5.3131C4.40672,5.21934,4.5339,5.16666,4.6665,5.16666C4.79911,5.16666,4.92629,5.21934,5.02006,5.3131L5.4361,5.72915Q5.62424,5.62168,5.83325,5.56461L5.83325,5Z" fill-rule="evenodd" fill="#3662EC" fill-opacity="1"/></g></g></svg>