<svg xmlns="http://www.w3.org/2000/svg" xmlns:xlink="http://www.w3.org/1999/xlink" fill="none" version="1.1" width="16" height="16" viewBox="0 0 16 16"><g><g><g><rect x="0" y="0" width="16" height="16" rx="0" fill="#FFFFFF" fill-opacity="0.009999999776482582"/></g><g><g><path d="M8.3535940234375,0.97975998828125L10.2071440234375,2.83331298828125L12.6666740234375,2.83331298828125C12.9428740234375,2.83331298828125,13.1666740234375,3.05717298828125,13.1666740234375,3.33331298828125L13.1666740234375,5.79287298828125L15.0202740234375,7.64642298828125C15.2154740234375,7.84169298828125,15.2154740234375,8.15827298828125,15.0202740234375,8.35353298828125L13.1666740234375,10.20708298828125L13.1666740234375,12.66661298828125C13.1666740234375,12.94281298828125,12.9428740234375,13.16661298828125,12.6666740234375,13.16661298828125L10.2071440234375,13.16661298828125L8.3535940234375,15.02021298828125C8.1583340234375,15.21541298828125,7.8417540234375,15.21541298828125,7.6464840234375,15.02021298828125L5.7929340234375,13.16661298828125L3.3333740234375,13.16661298828125C3.0572340234375,13.16661298828125,2.8333740234375,12.94281298828125,2.8333740234375,12.66661298828125L2.8333740234375,10.20708298828125L0.9798210234375,8.35353298828125C0.8860524234375,8.259762988281249,0.8333740234375,8.13258298828125,0.8333740234375,7.99998298828125C0.8333740234375,7.86737298828125,0.8860524234375,7.74019298828125,0.9798210234375,7.64642298828125L2.8333740234375,5.79287298828125L2.8333740234375,3.33331298828125C2.8333740234375,3.05717298828125,3.0572340234375,2.83331298828125,3.3333740234375,2.83331298828125L5.7929340234375,2.83331298828125L7.6464840234375,0.97975998828125C7.7402540234375,0.88599138828125,7.8674340234375,0.83331298828125,8.0000440234375,0.83331298828125C8.1326540234375,0.83331298828125,8.259824023437499,0.88599138828125,8.3535940234375,0.97975998828125ZM10.4998740234375,8.00000298828125Q10.4998740234375,9.03553298828125,9.7676440234375,9.76776298828125Q9.0354140234375,10.50000298828125,7.9998740234375,10.50000298828125Q6.9643440234375,10.50000298828125,6.2321140234375,9.76776298828125Q5.4998740234375,9.03553298828125,5.4998740234375,8.00000298828125Q5.4998740234375,6.96446298828125,6.2321140234375,6.23223298828125Q6.9643440234375,5.50000298828125,7.9998740234375,5.50000298828125Q9.0354140234375,5.50000298828125,9.7676440234375,6.23223298828125Q10.4998740234375,6.96446298828125,10.4998740234375,8.00000298828125ZM9.4998740234375,8.00000298828125Q9.4998740234375,7.37868298828125,9.0605340234375,6.93934298828125Q8.6211940234375,6.50000298828125,7.9998740234375,6.50000298828125Q7.3785540234375,6.50000298828125,6.9392140234375,6.93934298828125Q6.4998740234375,7.37868298828125,6.4998740234375,8.00000298828125Q6.4998740234375,8.62132298828125,6.9392140234375,9.06066298828125Q7.3785540234375,9.50000298828125,7.9998740234375,9.50000298828125Q8.6211940234375,9.50000298828125,9.0605340234375,9.06066298828125Q9.4998740234375,8.62132298828125,9.4998740234375,8.00000298828125Z" fill-rule="evenodd" fill="#FFFFFF" fill-opacity="1"/></g></g></g></g></svg>