<svg xmlns="http://www.w3.org/2000/svg" xmlns:xlink="http://www.w3.org/1999/xlink" fill="none" version="1.1" width="14.333251953125" height="14.3333740234375" viewBox="0 0 14.333251953125 14.3333740234375"><g><g><path d="M12.8333259765625,10.6667L11.8390959765625,10.6667L11.8390959765625,11.6667L12.8333259765625,11.6667Q13.4546259765625,11.6667,13.8939259765625,11.2273Q14.3333259765625,10.788,14.3333259765625,10.1667L14.3333259765625,1.5Q14.3333259765625,0.878679,13.8939259765625,0.439342Q13.4546259765625,-5.96046e-8,12.8333259765625,0L4.1666259765625,0Q3.5452949765625,0,3.1059579765625,0.439342Q2.6666260361671,0.87868,2.6666260361671,1.5L2.6666259765625,2.47568L3.6666259765625,2.47568L3.6666259765625,1.5Q3.6666259765625,1.29289,3.8130659765625,1.14645Q3.9595159765625,1,4.1666259765625,1L12.8333259765625,1Q13.0404259765625,1,13.1868259765625,1.14645Q13.3333259765625,1.29289,13.3333259765625,1.5L13.3333259765625,10.1667Q13.3333259765625,10.3738,13.1868259765625,10.5202Q13.0404259765625,10.6667,12.8333259765625,10.6667Z" fill-rule="evenodd" fill="#3662EC" fill-opacity="1"/></g><g><path d="M0,5.5Q0,4.05025,1.02513,3.02513Q2.05025,2,3.5,2L8.83333,2Q10.2831,2,11.3082,3.02513Q12.3333,4.05025,12.3333,5.5L12.3333,10.83333Q12.3333,12.2831,11.3082,13.3082Q10.2831,14.3333,8.83333,14.3333L3.5,14.3333Q2.05025,14.3333,1.02513,13.3082Q0,12.2831,0,10.83333L0,5.5ZM8.52006,5.18687C8.61382,5.0931,8.6665,4.965920000000001,8.6665,4.83331C8.6665,4.700699999999999,8.61382,4.57353,8.52006,4.479760000000001C8.42629,4.38599,8.29911,4.33331,8.1665,4.33331C8.0339,4.33331,7.90672,4.38599,7.81295,4.479760000000001L6.1665,6.12621L4.52006,4.479760000000001C4.42629,4.38599,4.29911,4.33331,4.1665,4.33331C4.0339,4.33331,3.90672,4.38599,3.81295,4.479760000000001C3.71918,4.57353,3.6665,4.700699999999999,3.6665,4.83331C3.6665,4.965920000000001,3.71918,5.0931,3.81295,5.18687L5.62608,7L3.83325,7C3.55711,7,3.33325,7.22386,3.33325,7.5C3.33325,7.77614,3.55711,8,3.83325,8L5.6665,8L5.6665,9L3.83325,9C3.55711,9,3.33325,9.22386,3.33325,9.5C3.33325,9.77614,3.55711,10,3.83325,10L5.6665,10L5.6665,11.16667C5.6665,11.19719,5.6693,11.22764,5.67485,11.25765C5.71871,11.49468,5.92545,11.66667,6.1665,11.66667C6.44265,11.66667,6.6665,11.44281,6.6665,11.16667L6.6665,10L8.49992,10C8.77606,10,8.99992,9.77614,8.99992,9.5C8.99992,9.22386,8.77606,9,8.49992,9L6.6665,9L6.6665,8L8.49992,8C8.77606,8,8.99992,7.77614,8.99992,7.5C8.99992,7.22386,8.77606,7,8.49992,7L6.70692,7L8.52006,5.18687Z" fill-rule="evenodd" fill="#3662EC" fill-opacity="1"/></g></g></svg>