<svg xmlns="http://www.w3.org/2000/svg" xmlns:xlink="http://www.w3.org/1999/xlink" fill="none" version="1.1" width="10" height="6" viewBox="0 0 13.6666259765625 13"><g><g><path d="M0,11.8333L0,1.16667Q0,0.683417,0.341709,0.341709Q0.683417,0,1.16667,0L5.16667,0C5.31506,0,5.45578,0.0659115,5.55078,0.179908L7.06752,2L12.5,2Q12.9833,2,13.325,2.3417Q13.6667,2.68341,13.6667,3.16667L13.6667,11.8333Q13.6667,12.3166,13.325,12.6583Q12.9833,13,12.5,13L1.16667,13Q0.683416,13,0.341711,12.6583Q0,12.3166,0,11.8333ZM4.47994,6.81313L6.47994,4.81313C6.48065,4.81243,6.48136,4.81172,6.48207,4.81102C6.52767,4.76596,6.58189,4.7296,6.64204,4.70465C6.70101,4.68019,6.76568,4.66669,6.8335,4.66669C6.90122,4.66669,6.96579,4.68015,7.0247,4.70455C7.08358,4.72888,7.13875,4.76495,7.18666,4.81274L7.1868,4.81288L9.18666,6.80831C9.28053,6.90197,9.33335,7.02909,9.3335,7.1617L9.3335,7.16226C9.3335,7.29467,9.28097,7.42168,9.18744,7.51541C9.09378,7.60929,8.96666,7.66211,8.83405,7.66225L8.8335,7.66225C8.70108,7.66225,8.57407,7.60973,8.48034,7.5162L8.48005,7.51591L7.3335,6.3719L7.3335,9.83335C7.3335,10.1095,7.10964,10.3334,6.8335,10.3334C6.55735,10.3334,6.3335,10.1095,6.3335,9.83335L6.3335,6.37379L5.18705,7.52024C5.09328,7.61401,4.9661,7.66669,4.8335,7.66669C4.70089,7.66669,4.57371,7.61401,4.47994,7.52024C4.39205,7.43235,4.34004,7.31486,4.33407,7.19071L4.3335,7.16669C4.3335,7.03408,4.38617,6.9069,4.47994,6.81313Z" fill-rule="evenodd" fill="#3662EC" fill-opacity="1"/></g></g></svg>