<svg xmlns="http://www.w3.org/2000/svg" xmlns:xlink="http://www.w3.org/1999/xlink" fill="none" version="1.1" width="16" height="15.686274528503418" viewBox="0 0 16 15.686274528503418"><defs><clipPath id="master_svg0_28_0917"><rect x="0" y="0" width="16" height="15.686274528503418" rx="0"/></clipPath></defs><g style="mix-blend-mode:passthrough" clip-path="url(#master_svg0_28_0917)"><g style="mix-blend-mode:passthrough"><path d="M8.0000440234375,1.960784970703125C7.2927940234375,1.960784970703125,6.6145240234375,2.236224970703125,6.1144240234375,2.726514970703125C5.6143240234375,3.216814970703125,5.3333740234375,3.881784970703125,5.3333740234375,4.575164970703125C5.3333740234375,4.575164970703125,5.3333740234375,6.535944970703125,5.3333740234375,6.535944970703125C5.3333740234375,6.535944970703125,10.6667040234375,6.535944970703125,10.6667040234375,6.535944970703125C10.6667040234375,6.535944970703125,10.6667040234375,4.575164970703125,10.6667040234375,4.575164970703125C10.6667040234375,3.881784970703125,10.3857740234375,3.216814970703125,9.8856440234375,2.726514970703125C9.3855740234375,2.236224970703125,8.7073040234375,1.960784970703125,8.0000440234375,1.960784970703125C8.0000440234375,1.960784970703125,8.0000440234375,1.960784970703125,8.0000440234375,1.960784970703125ZM12.0000740234375,6.535944970703125C12.0000740234375,6.535944970703125,12.0000740234375,4.575164970703125,12.0000740234375,4.575164970703125C12.0000740234375,3.535094970703125,11.5786740234375,2.5376349707031247,10.8284440234375,1.802194970703125C10.0783040234375,1.066758970703125,9.0609040234375,0.653594970703125,8.0000440234375,0.653594970703125C6.9391740234375,0.653594970703125,5.9217640234375,1.066758970703125,5.1716140234375,1.802194970703125C4.421464023437499,2.5376349707031247,4.0000440234375,3.535094970703125,4.0000440234375,4.575164970703125C4.0000440234375,4.575164970703125,4.0000440234375,6.535944970703125,4.0000440234375,6.535944970703125C4.0000440234375,6.535944970703125,3.3333740234375,6.535944970703125,3.3333740234375,6.535944970703125C2.2288070234375,6.535944970703125,1.3333740234375,7.413794970703125,1.3333740234375,8.496734970703125C1.3333740234375,8.496734970703125,1.3333740234375,13.071894970703125,1.3333740234375,13.071894970703125C1.3333740234375,14.154794970703126,2.2288070234375,15.032694970703124,3.3333740234375,15.032694970703124C3.3333740234375,15.032694970703124,12.6666740234375,15.032694970703124,12.6666740234375,15.032694970703124C13.7712740234375,15.032694970703124,14.6666740234375,14.154794970703126,14.6666740234375,13.071894970703125C14.6666740234375,13.071894970703125,14.6666740234375,8.496734970703125,14.6666740234375,8.496734970703125C14.6666740234375,7.413794970703125,13.7712740234375,6.535944970703125,12.6666740234375,6.535944970703125C12.6666740234375,6.535944970703125,12.0000740234375,6.535944970703125,12.0000740234375,6.535944970703125C12.0000740234375,6.535944970703125,12.0000740234375,6.535944970703125,12.0000740234375,6.535944970703125ZM3.3333740234375,7.843134970703125C2.9651840234374998,7.843134970703125,2.6667040234375,8.135754970703125,2.6667040234375,8.496734970703125C2.6667040234375,8.496734970703125,2.6667040234375,13.071894970703125,2.6667040234375,13.071894970703125C2.6667040234375,13.432894970703124,2.9651840234374998,13.725494970703124,3.3333740234375,13.725494970703124C3.3333740234375,13.725494970703124,12.6666740234375,13.725494970703124,12.6666740234375,13.725494970703124C13.0348740234375,13.725494970703124,13.3333740234375,13.432894970703124,13.3333740234375,13.071894970703125C13.3333740234375,13.071894970703125,13.3333740234375,8.496734970703125,13.3333740234375,8.496734970703125C13.3333740234375,8.135754970703125,13.0348740234375,7.843134970703125,12.6666740234375,7.843134970703125C12.6666740234375,7.843134970703125,3.3333740234375,7.843134970703125,3.3333740234375,7.843134970703125C3.3333740234375,7.843134970703125,3.3333740234375,7.843134970703125,3.3333740234375,7.843134970703125Z" fill-rule="evenodd" fill="#3662EC" fill-opacity="1"/></g></g></svg>