<svg xmlns="http://www.w3.org/2000/svg" xmlns:xlink="http://www.w3.org/1999/xlink" fill="none" version="1.1" width="16" height="16" viewBox="0 0 16 16"><defs><clipPath id="master_svg0_28_0918"><rect x="0" y="0" width="16" height="16" rx="0"/></clipPath></defs><g style="mix-blend-mode:passthrough" clip-path="url(#master_svg0_28_0918)"><g style="mix-blend-mode:passthrough"><path d="M8,2.666581953125C6.89543,2.666581953125,6,3.562021953125,6,4.666581953125C6,5.771151953125,6.89543,6.666581953125,8,6.666581953125C9.1046,6.666581953125,10,5.771151953125,10,4.666581953125C10,3.562021953125,9.1046,2.666581953125,8,2.666581953125C8,2.666581953125,8,2.666581953125,8,2.666581953125ZM4.66667,4.666581953125C4.66667,2.8256419531250003,6.15905,1.333251953125,8,1.333251953125C9.84093,1.333251953125,11.33333,2.8256419531250003,11.33333,4.666581953125C11.33333,6.507531953125,9.84093,7.999921953125,8,7.999921953125C6.15905,7.999921953125,4.66667,6.507531953125,4.66667,4.666581953125C4.66667,4.666581953125,4.66667,4.666581953125,4.66667,4.666581953125ZM2.976313,10.309581953125C3.6014299999999997,9.684451953125,4.44928,9.333251953125,5.33333,9.333251953125C5.33333,9.333251953125,10.66667,9.333251953125,10.66667,9.333251953125C11.55073,9.333251953125,12.3986,9.684451953125,13.0237,10.309581953125C13.6488,10.934651953125,14,11.782551953125,14,12.666551953125C14,12.666551953125,14,13.999951953125,14,13.999951953125C14,14.368151953125,13.7015,14.666551953125,13.3333,14.666551953125C12.9651,14.666551953125,12.6667,14.368151953125,12.6667,13.999951953125C12.6667,13.999951953125,12.6667,12.666551953125,12.6667,12.666551953125C12.6667,12.136151953125,12.4559,11.627451953125,12.0809,11.252381953125C11.7058,10.877321953125,11.19707,10.666581953125,10.66667,10.666581953125C10.66667,10.666581953125,5.33333,10.666581953125,5.33333,10.666581953125C4.8029,10.666581953125,4.29419,10.877321953125,3.91912,11.252381953125C3.54405,11.627451953125,3.33333,12.136151953125,3.33333,12.666551953125C3.33333,12.666551953125,3.33333,13.999951953125,3.33333,13.999951953125C3.33333,14.368151953125,3.03485,14.666551953125,2.666667,14.666551953125C2.298477,14.666551953125,2,14.368151953125,2,13.999951953125C2,13.999951953125,2,12.666551953125,2,12.666551953125C2,11.782551953125,2.3511889999999998,10.934651953125,2.976313,10.309581953125C2.976313,10.309581953125,2.976313,10.309581953125,2.976313,10.309581953125Z" fill-rule="evenodd" fill="#3662EC" fill-opacity="1"/></g></g></svg>