<?xml version="1.0" encoding="utf-8"?>
<!-- Generator: Adobe Illustrator 24.3.0, SVG Export Plug-In . SVG Version: 6.00 Build 0)  -->
<svg version="1.1" id="Layer_1" xmlns="http://www.w3.org/2000/svg" xmlns:xlink="http://www.w3.org/1999/xlink" x="0px" y="0px"
	 viewBox="0 0 724 242" style="enable-background:new 0 0 724 242;" xml:space="preserve">
<style type="text/css">
	.st0{fill:red;}
	.st1{fill:#EF463C;}
</style>
<path class="st0" d="M157.3,168.7c11.5,0,19.8-5.3,24-12.2l12.3,7c-7.3,11.3-20,18.8-36.6,18.8c-26.8,0-44.6-18.8-44.6-43.8
	c0-24.6,17.6-43.8,43.6-43.8c25.1,0,41.5,20.6,41.5,44c0,2.2-0.2,4.3-0.5,6.5h-69.8C130,160.2,141.8,168.7,157.3,168.7z
	 M127.1,132.5h55.6c-2.5-16.5-14.3-24.1-26.8-24.1C140.3,108.4,129.5,118,127.1,132.5z"/>
<path class="st0" d="M214,50.6h14.5v129.6H214V50.6z"/>
<path class="st0" d="M334.1,96.9v83.3h-14.5v-14.3c-6.7,10.2-17.3,16.5-31.5,16.5c-23.1,0-42.1-19.1-42.1-43.8s19-43.8,42.1-43.8
	c14.2,0,24.8,6.3,31.5,16.5V97L334.1,96.9L334.1,96.9z M319.6,138.5c0-17-12.8-29.8-29.6-29.8c-16.7,0-29.5,12.8-29.5,29.8
	s12.8,29.8,29.5,29.8C306.8,168.3,319.6,155.5,319.6,138.5z"/>
<path class="st0" d="M469.3,96.9l-25.8,83.3h-14.8l-19.5-61.6l-19.5,61.6h-14.8l-25.8-83.3h15.2l18.3,63.3l19.6-63.3h14l19.6,63.4
	l18.3-63.4H469.3z"/>
<path class="st0" d="M564.4,96.9v83.3h-14.5v-14.3c-6.7,10.2-17.3,16.5-31.5,16.5c-23.1,0-42.1-19.1-42.1-43.8s19-43.8,42.1-43.8
	c14.2,0,24.8,6.3,31.5,16.5V97L564.4,96.9L564.4,96.9z M549.9,138.5c0-17-12.8-29.8-29.6-29.8c-16.7,0-29.5,12.8-29.5,29.8
	s12.8,29.8,29.5,29.8C537.1,168.3,549.9,155.5,549.9,138.5z"/>
<path class="st0" d="M626.8,95.4v15.2c-12.5-0.5-26,5.8-26,25.5v44.1h-14.5V96.9h14.5v14C606.1,99.2,616.3,95.4,626.8,95.4z"/>
<path class="st0" d="M676.7,168.7c11.5,0,19.8-5.3,24-12.2l12.3,7c-7.3,11.3-20,18.8-36.6,18.8c-26.8,0-44.6-18.8-44.6-43.8
	c0-24.6,17.6-43.8,43.6-43.8c25.1,0,41.5,20.6,41.5,44c0,2.2-0.2,4.3-0.5,6.5h-69.8C649.4,160.2,661.3,168.7,676.7,168.7z
	 M646.6,132.5h55.6c-2.5-16.5-14.3-24.1-26.8-24.1C659.8,108.4,648.9,118,646.6,132.5z"/>
<path class="st0" d="M95,50.6c0,0,0,68.8,0,87.9c0,17.9-13.4,43.8-46,43.8c-23.1,0-42.1-19.1-42.1-43.8s19-43.8,42.1-43.8
	c14.2,0,24.8,6.3,31.5,16.5V50.6H95z M80.5,138.5c0-17-12.8-29.8-29.6-29.8c-16.7,0-29.5,12.8-29.5,29.8s12.8,29.8,29.5,29.8
	C67.7,168.3,80.5,155.5,80.5,138.5z"/>
<path class="st1" d="M80.5,138.5c0-17-12.8-29.8-29.6-29.8c-16.7,0-29.5,12.8-29.5,29.8s12.8,29.8,29.5,29.8
	C67.7,168.3,80.5,155.5,80.5,138.5z"/>
</svg>
