<svg xmlns="http://www.w3.org/2000/svg" xmlns:xlink="http://www.w3.org/1999/xlink" width="151.736" height="43.003" viewBox="0 0 151.736 43.003">
  <defs>
    <radialGradient id="radial-gradient" cx="0.246" cy="0.168" r="0.886" gradientTransform="matrix(0.654, 0.756, -0.793, 0.686, 0.218, -0.133)" gradientUnits="objectBoundingBox">
      <stop offset="0" stop-color="#e8e5f7"/>
      <stop offset="0.308" stop-color="#a69ff4"/>
      <stop offset="0.612" stop-color="#6b63e0"/>
      <stop offset="0.823" stop-color="#5252d6"/>
      <stop offset="0.952" stop-color="#5857ce"/>
      <stop offset="1" stop-color="#635fd5"/>
    </radialGradient>
  </defs>
  <g id="组_30784" data-name="组 30784" transform="translate(-25 -17)">
    <path id="排除_1" data-name="排除 1" d="M21.5,43a21.4,21.4,0,0,1-7.8-1.459c-.417-.162-.835-.341-1.243-.53.408.189.826.367,1.243.53a21.591,21.591,0,0,0,15.055.205A21.409,21.409,0,0,1,21.5,43Zm11.511-5.736a53.345,53.345,0,0,1-8.24-.593c-3.409-.556-5.937-1.485-7.513-2.76A10.581,10.581,0,0,1,14.6,30.873a6.982,6.982,0,0,1-.906-3.406,8.863,8.863,0,0,1,1.47-4.656A20.331,20.331,0,0,1,19.7,17.9a30.779,30.779,0,0,1,5.4-3.459,41.767,41.767,0,0,1,5.809-2.418A53.369,53.369,0,0,1,37,10.412c1.574-.321,2.593-.455,2.6-.456l-.314-.539A21.388,21.388,0,0,1,43,21.5a21.649,21.649,0,0,1-.474,4.51,21.393,21.393,0,0,1-3.5,7.941A21.661,21.661,0,0,1,36.2,37.188C35.647,37.217,34.491,37.267,33.011,37.267ZM2.791,32.1h0c-.315-.554-.608-1.128-.87-1.705A21.388,21.388,0,0,1,.5,26.122a21.705,21.705,0,0,1-.061-8.954A21.384,21.384,0,0,1,3.672,9.48a21.563,21.563,0,0,1,9.459-7.79A21.391,21.391,0,0,1,17.167.437a21.689,21.689,0,0,1,9.526.195,21.44,21.44,0,0,1,8.859,4.6,21.647,21.647,0,0,1,3.362,3.661,66.552,66.552,0,0,0-14.181,2.683,48.436,48.436,0,0,0-8.119,3.388,39.68,39.68,0,0,0-8.707,6.168,17.171,17.171,0,0,0-2.85,3.494,15.889,15.889,0,0,0-1.532,3.29,13.615,13.615,0,0,0-.735,4.19Z" transform="translate(25 17)" fill="url(#radial-gradient)"/>
    <g id="组_30783" data-name="组 30783" transform="translate(20.277 -45.2)">
      <path id="路径_40436" data-name="路径 40436" d="M9.511-19.782V-16.6H2.3v8.876H4.233V-8.775H9.511v6.156H11.5V-8.775h5.3v1.047h1.929V-16.6H11.5v-3.179Zm-5.279,9.3v-4.41H9.511v4.41Zm7.268,0v-4.41h5.3v4.41Zm25.054-3.344L35.113-13v-2.132a19.748,19.748,0,0,0,.853-2.132h3.553v-1.691H29.083v1.691h4.994a18.416,18.416,0,0,1-5.949,8.122l1.178,1.378a21.88,21.88,0,0,0,3.939-4.153v9.151h1.868V-12.927a38.533,38.533,0,0,1,3.655,4.961l1.6-1.011A40.473,40.473,0,0,0,36.555-13.828ZM22-13.166v1.672h2.091v4.3c-.893.184-1.787.349-2.7.5l.487,1.672a55.327,55.327,0,0,0,6.6-1.764V-8.462c-.832.294-1.665.551-2.518.79v-3.822h2.152v-1.672H25.957v-3.565h2.436v-1.691h-6.7v1.691h2.4v3.565Zm23.49-5.954-1.766.772a26.986,26.986,0,0,1,2.7,3.951l1.807-.809A39.45,39.45,0,0,0,45.488-19.12Zm-2.132,5.292v1.691h6.781v2.848h-8.06V-7.6h8.06v4.925h1.949V-7.6h8.06V-9.289h-8.06v-2.848h6.639v-1.691H52.086V-19.69H50.137v5.862Zm13.177-5.219a20.633,20.633,0,0,1-2.518,3.9l1.705.809a20.111,20.111,0,0,0,2.518-3.951Zm5.583,9.372v1.691H74.359V-4.86c0,.368-.284.57-.812.57-.731,0-1.523-.037-2.335-.11l.447,1.709h2.558c1.381,0,2.091-.588,2.091-1.746V-7.984h4.385V-9.675H76.308v-.937H74.359v.937ZM77.709-19.1H64.167v6.285c0,1.121.69,1.691,2.071,1.691H78.216a1.8,1.8,0,0,0,1.766-.919,8.8,8.8,0,0,0,.406-1.8l-1.827-.533a3.865,3.865,0,0,1-.284,1.323.808.808,0,0,1-.67.312H66.989c-.589,0-.873-.257-.873-.753v-.937H77.709ZM66.116-16.015v-1.507H75.78v1.507Zm1.076,8.251L65.811-6.551a19.681,19.681,0,0,1,3.269,2.9l1.462-1.3A24.4,24.4,0,0,0,67.192-7.764Zm17.42-4.318v9.353H86.5V-14.8a22.145,22.145,0,0,0,1.929-4.263L86.7-19.8A21.481,21.481,0,0,1,82.3-11.88l.568,1.746C83.475-10.759,84.063-11.421,84.612-12.082Zm3.309-4.667v1.672h3.594a18.079,18.079,0,0,1-4.568,7.828l.995,1.488a20.518,20.518,0,0,0,5.116-9.317v7.02H90.215v1.672h2.842v3.638h1.888V-6.386h2.9V-8.058h-2.9v-7.02a23.1,23.1,0,0,0,4.934,9.1L101.118-7.4a18.991,18.991,0,0,1-4.649-7.681h3.858V-16.75h-5.38v-2.977H93.058v2.977Z" transform="translate(55 86)" fill="#a29cf8" stroke="#a29cf8" stroke-width="0.5"/>
      <path id="路径_40435" data-name="路径 40435" d="M.419-2.187H3.787V-3.2h-2.4l2.4-5.264v-.807H.513v.957h2.3L.419-3.081Zm7.051,0h.8V-9.273h-.8v3.038H5.383V-9.273h-.8v7.086h.8v-3.1H7.47ZM9.2-5.73a15.886,15.886,0,0,0,.054,1.643,2.567,2.567,0,0,0,.072.379q.047.146.1.306a2.229,2.229,0,0,0,.615.865,1.536,1.536,0,0,0,1.038.408,1.559,1.559,0,0,0,1.049-.408,2.192,2.192,0,0,0,.6-.865,2.017,2.017,0,0,0,.185-.685q.047-.428.047-1.643,0-1.234-.047-1.652a2,2,0,0,0-.185-.676,2.27,2.27,0,0,0-.6-.875,1.521,1.521,0,0,0-1.049-.4,1.5,1.5,0,0,0-1.038.4,2.309,2.309,0,0,0-.615.875,2.423,2.423,0,0,0-.177.676A15.855,15.855,0,0,0,9.2-5.73Zm.8,0a11.33,11.33,0,0,1,.058-1.424,1.374,1.374,0,0,1,.206-.588,1.142,1.142,0,0,1,.333-.365.883.883,0,0,1,.485-.151.926.926,0,0,1,.5.151,1.1,1.1,0,0,1,.318.365,1.443,1.443,0,0,1,.213.588A12.079,12.079,0,0,1,12.17-5.73a11.8,11.8,0,0,1-.054,1.414,1.454,1.454,0,0,1-.213.6,1.007,1.007,0,0,1-.318.355.793.793,0,0,1-.5.16.757.757,0,0,1-.485-.16,1.047,1.047,0,0,1-.333-.355,1.387,1.387,0,0,1-.206-.6A11.072,11.072,0,0,1,10.006-5.73Zm3.9,3.543h.8V-7.222h.014L17.1-2.187h.756V-9.273h-.8v5.035h-.014L14.655-9.273H13.9Zm6.78-2.887h1.074V-4.7a1.789,1.789,0,0,1-.311,1.074.913.913,0,0,1-.771.428.757.757,0,0,1-.485-.16,1.047,1.047,0,0,1-.333-.355,1.387,1.387,0,0,1-.206-.6,11.072,11.072,0,0,1-.058-1.414,11.33,11.33,0,0,1,.058-1.424,1.374,1.374,0,0,1,.206-.588,1.142,1.142,0,0,1,.333-.365.883.883,0,0,1,.485-.151.89.89,0,0,1,.651.3,1.68,1.68,0,0,1,.355.729h.847a3.023,3.023,0,0,0-.608-1.492,1.552,1.552,0,0,0-1.245-.608,1.5,1.5,0,0,0-1.038.4,2.309,2.309,0,0,0-.615.875,2.423,2.423,0,0,0-.177.676A15.854,15.854,0,0,0,18.79-5.73a15.886,15.886,0,0,0,.054,1.643,2.567,2.567,0,0,0,.072.379q.047.146.1.306a2.229,2.229,0,0,0,.615.865,1.536,1.536,0,0,0,1.038.408,1.663,1.663,0,0,0,1.339-.734,3,3,0,0,0,.543-1.784V-6.089H20.682Zm5.694,2.887h.8V-9.273h-.8v3.038H24.289V-9.273h-.8v7.086h.8v-3.1h2.087Zm1.816-2.4a2.727,2.727,0,0,0,.55,1.774,1.651,1.651,0,0,0,1.324.685A1.654,1.654,0,0,0,31.4-2.814a2.823,2.823,0,0,0,.539-1.774V-9.273h-.8V-4.7a1.792,1.792,0,0,1-.3,1.1.931.931,0,0,1-.771.4.912.912,0,0,1-.763-.4,1.76,1.76,0,0,1-.311-1.1V-9.273h-.8Zm5.514-.136.763-3.1h.014l.763,3.1Zm2.178,2.537h.843L34.81-9.273H34.14L32.223-2.187h.847l.405-1.584h2Zm1.407,0h.8V-7.222h.014L40.49-2.187h.756V-9.273h-.8v5.035h-.014L38.044-9.273h-.752Zm6.91-1.72-.525.807a2.583,2.583,0,0,0,2.015.972q1.813-.029,1.852-2.061a2.466,2.466,0,0,0-.351-1.322,1.543,1.543,0,0,0-1.1-.714q-.376-.063-.593-.112a.936.936,0,0,1-.568-.35.93.93,0,0,1-.177-.554,1.067,1.067,0,0,1,.264-.768.831.831,0,0,1,.615-.248,2.016,2.016,0,0,1,1.306.544l.445-.885a2.491,2.491,0,0,0-1.711-.734,1.54,1.54,0,0,0-1.263.573,2.309,2.309,0,0,0-.459,1.5,2.285,2.285,0,0,0,.365,1.312,1.614,1.614,0,0,0,1.035.676q.38.073.7.131a.851.851,0,0,1,.687.953q-.014.967-1.042.987A1.987,1.987,0,0,1,44.2-3.907Zm4.186,1.72h3.368V-3.2H49.187v-2.08h2.192v-.953H49.187V-8.257h2.569V-9.273H48.387Zm4.121,0h.8V-6.6h.014l1.1,3.4h.666l1.1-3.4h.018v4.418h.8V-9.273h-.756L54.773-4.656,53.26-9.273h-.752Zm5.615,0h.8V-9.273h-.8Zm4.62-1.983q-.333.967-1.006.967a.757.757,0,0,1-.485-.16,1.047,1.047,0,0,1-.333-.355,1.387,1.387,0,0,1-.206-.6,11.072,11.072,0,0,1-.058-1.414,11.329,11.329,0,0,1,.058-1.424,1.374,1.374,0,0,1,.206-.588,1.142,1.142,0,0,1,.333-.365.883.883,0,0,1,.485-.151.89.89,0,0,1,.651.3,1.68,1.68,0,0,1,.355.729h.847a3.023,3.023,0,0,0-.608-1.492,1.552,1.552,0,0,0-1.245-.608,1.5,1.5,0,0,0-1.038.4,2.309,2.309,0,0,0-.615.875,2.423,2.423,0,0,0-.177.676,15.854,15.854,0,0,0-.054,1.652,15.886,15.886,0,0,0,.054,1.643,2.567,2.567,0,0,0,.072.379q.047.146.1.306a2.229,2.229,0,0,0,.615.865,1.536,1.536,0,0,0,1.038.408,1.594,1.594,0,0,0,1.19-.525,2.942,2.942,0,0,0,.662-1.516Zm1.23-1.56a15.886,15.886,0,0,0,.054,1.643,2.567,2.567,0,0,0,.072.379q.047.146.1.306a2.229,2.229,0,0,0,.615.865,1.536,1.536,0,0,0,1.038.408,1.559,1.559,0,0,0,1.049-.408,2.191,2.191,0,0,0,.6-.865,2.017,2.017,0,0,0,.185-.685q.047-.428.047-1.643,0-1.234-.047-1.652a2,2,0,0,0-.185-.676,2.27,2.27,0,0,0-.6-.875,1.521,1.521,0,0,0-1.049-.4,1.5,1.5,0,0,0-1.038.4,2.309,2.309,0,0,0-.615.875,2.423,2.423,0,0,0-.177.676A15.854,15.854,0,0,0,63.973-5.73Zm.8,0a11.33,11.33,0,0,1,.058-1.424,1.374,1.374,0,0,1,.206-.588,1.142,1.142,0,0,1,.333-.365.883.883,0,0,1,.485-.151.926.926,0,0,1,.5.151,1.1,1.1,0,0,1,.318.365,1.442,1.442,0,0,1,.213.588,12.08,12.08,0,0,1,.054,1.424,11.806,11.806,0,0,1-.054,1.414,1.454,1.454,0,0,1-.213.6,1.007,1.007,0,0,1-.318.355.793.793,0,0,1-.5.16.757.757,0,0,1-.485-.16,1.047,1.047,0,0,1-.333-.355,1.388,1.388,0,0,1-.206-.6A11.072,11.072,0,0,1,64.776-5.73Zm3.9,3.543h.8V-7.222h.014L71.87-2.187h.756V-9.273h-.8v5.035h-.014L69.425-9.273h-.752Zm5.069,0h1.791a1.488,1.488,0,0,0,1-.35,2.223,2.223,0,0,0,.644-.826q.087-.19.148-.365a2.266,2.266,0,0,0,.087-.408,13.79,13.79,0,0,0,.062-1.594q0-1.074-.04-1.512a2.607,2.607,0,0,0-.242-.836,1.739,1.739,0,0,0-1.606-1.2H73.741Zm.8-6.07H75.5a.991.991,0,0,1,.941.6,1.454,1.454,0,0,1,.206.646q.033.4.033,1.322,0,.948-.033,1.293a1.428,1.428,0,0,1-.17.578A1.018,1.018,0,0,1,75.5-3.2H74.54Zm3.77,3.669a2.728,2.728,0,0,0,.55,1.774,1.651,1.651,0,0,0,1.324.685,1.654,1.654,0,0,0,1.335-.685,2.823,2.823,0,0,0,.539-1.774V-9.273h-.8V-4.7a1.792,1.792,0,0,1-.3,1.1.931.931,0,0,1-.771.4.912.912,0,0,1-.763-.4,1.76,1.76,0,0,1-.311-1.1V-9.273h-.8Zm7.474.418q-.333.967-1.006.967a.757.757,0,0,1-.485-.16,1.047,1.047,0,0,1-.333-.355,1.388,1.388,0,0,1-.206-.6A11.075,11.075,0,0,1,83.7-5.73a11.332,11.332,0,0,1,.058-1.424,1.375,1.375,0,0,1,.206-.588,1.142,1.142,0,0,1,.333-.365.883.883,0,0,1,.485-.151.89.89,0,0,1,.651.3,1.68,1.68,0,0,1,.355.729h.847a3.023,3.023,0,0,0-.608-1.492,1.552,1.552,0,0,0-1.245-.608,1.5,1.5,0,0,0-1.038.4,2.309,2.309,0,0,0-.615.875,2.423,2.423,0,0,0-.177.676,15.854,15.854,0,0,0-.054,1.652,15.886,15.886,0,0,0,.054,1.643,2.566,2.566,0,0,0,.072.379q.047.146.1.306a2.23,2.23,0,0,0,.615.865,1.536,1.536,0,0,0,1.038.408,1.594,1.594,0,0,0,1.19-.525,2.942,2.942,0,0,0,.662-1.516Zm2.3,1.983h.8V-8.315h1.443v-.957h-3.69v.957h1.443Zm2.5-3.543a15.888,15.888,0,0,0,.054,1.643,2.569,2.569,0,0,0,.072.379q.047.146.1.306a2.229,2.229,0,0,0,.615.865,1.536,1.536,0,0,0,1.038.408,1.559,1.559,0,0,0,1.049-.408,2.192,2.192,0,0,0,.6-.865,2.017,2.017,0,0,0,.184-.685q.047-.428.047-1.643,0-1.234-.047-1.652a2,2,0,0,0-.184-.676,2.27,2.27,0,0,0-.6-.875,1.521,1.521,0,0,0-1.049-.4,1.5,1.5,0,0,0-1.038.4,2.309,2.309,0,0,0-.615.875,2.423,2.423,0,0,0-.177.676A15.856,15.856,0,0,0,90.585-5.73Zm.8,0a11.331,11.331,0,0,1,.058-1.424,1.374,1.374,0,0,1,.206-.588,1.142,1.142,0,0,1,.333-.365.883.883,0,0,1,.485-.151.926.926,0,0,1,.5.151,1.1,1.1,0,0,1,.318.365,1.442,1.442,0,0,1,.213.588,12.076,12.076,0,0,1,.054,1.424A11.8,11.8,0,0,1,93.5-4.315a1.454,1.454,0,0,1-.213.6,1.007,1.007,0,0,1-.318.355.793.793,0,0,1-.5.16.757.757,0,0,1-.485-.16,1.047,1.047,0,0,1-.333-.355,1.387,1.387,0,0,1-.206-.6A11.073,11.073,0,0,1,91.388-5.73Zm4.7-2.586h1.252a.76.76,0,0,1,.586.219,1.1,1.1,0,0,1,.264.8,1.324,1.324,0,0,1-.221.778.774.774,0,0,1-.673.35H96.084Zm-.8,6.129h.8V-5.215H97.1l1.089,3.028h.951L97.922-5.331a2.028,2.028,0,0,0,1.02-1.963,2.185,2.185,0,0,0-.525-1.512,1.373,1.373,0,0,0-1.074-.467H95.285Z" transform="translate(56.973 97.329)" fill="#a29cf8"/>
    </g>
  </g>
</svg>
